<svg xmlns="http://www.w3.org/2000/svg" viewBox="0 0 336.34 323.1"><defs><style>.cls-1{isolation:isolate;}.cls-2,.cls-4{fill:#fff;}.cls-2,.cls-3{stroke:#1a749c;stroke-miterlimit:10;}.cls-3{fill:#1a749c;}.cls-5{fill:#7d7c7d;}.cls-6{mix-blend-mode:multiply;}.cls-7{fill:#cccac9;}</style></defs><title>1hexágono</title><g class="cls-1"><g id="Capa_1" data-name="Capa 1"><polygon class="cls-2" points="84.38 322.6 0.58 180.6 84.38 38.61 251.96 38.61 335.76 180.6 251.96 322.6 84.38 322.6"/><polygon class="cls-3" points="101.72 298.98 35.13 180.29 101.72 61.59 234.91 61.59 301.51 180.29 234.91 298.98 101.72 298.98"/><circle class="cls-4" cx="89.36" cy="44.54" r="39.77"/><g id="F1sIgx.tif"><path class="cls-5" d="M262.93,218q-5.25,6.32-10.5,12.61c-1.16,1.38-2.45,1.35-3.64-.06-3.18-3.77-6.37-7.53-9.47-11.38a3.36,3.36,0,0,1-.57-2.39c.2-1.11,1.3-1.2,2.29-1.19,1.74,0,3.47,0,5.39,0a28.32,28.32,0,0,0-3.19-8.81c-6-10.91-15.15-17.48-27.44-19.23a36.42,36.42,0,0,0-10.69,72,36.89,36.89,0,0,0,37.17-17.35,4.28,4.28,0,0,1,2.92-2.33,3.85,3.85,0,0,1,4.08,1.58,3.64,3.64,0,0,1,.09,4.48c-2.55,3.36-4.91,7-8,9.85-9.42,8.92-20.83,12.83-33.75,12.06-20.35-1.2-37.47-16.82-40.82-37.06A44.36,44.36,0,0,1,202.47,180c1.89-.34,3.79-.62,5.69-.93h5.39a9.92,9.92,0,0,0,1.1.31c3,.57,6.16.8,9.06,1.75C240,186.4,250.24,197.43,254.4,214c.31,1.26.78,1.64,2,1.55s2.3.06,3.44,0a3,3,0,0,1,3.11,1.53Z" transform="translate(-121.49 -179.07)"/><path class="cls-5" d="M206.8,205.11c0-3.79,0-7.58,0-11.37,0-2.85,1.92-4.68,4.46-4.43,2.25.22,3.63,2,3.63,4.67,0,7.28,0,14.56,0,21.84a3.85,3.85,0,0,0,1.21,3.17,4.89,4.89,0,0,1,1.42,2.55,3.21,3.21,0,0,0,2,2.39c4,2.28,8,4.6,12.05,6.91,2.41,1.39,3.17,3.67,1.95,5.76s-3.58,2.51-6,1.14c-4.15-2.38-8.28-4.79-12.46-7.11a3.3,3.3,0,0,0-2.18-.3,7.2,7.2,0,0,1-8-3.14,7.1,7.1,0,0,1,1-8.55,3.91,3.91,0,0,0,.94-2.31C206.85,212.59,206.8,208.85,206.8,205.11Zm7.11,18.47a3.06,3.06,0,0,0-6.11-.06,3.06,3.06,0,1,0,6.11.06Z" transform="translate(-121.49 -179.07)"/></g><g class="cls-6"><circle class="cls-4" cx="93.7" cy="44.64" r="39.77"/><g id="F1sIgx.tif-2" data-name="F1sIgx.tif"><path class="cls-7" d="M267.26,218.08q-5.25,6.31-10.5,12.61c-1.15,1.38-2.44,1.35-3.63-.06-3.18-3.77-6.38-7.53-9.47-11.38a3.26,3.26,0,0,1-.57-2.39c.2-1.11,1.29-1.2,2.29-1.19,1.73,0,3.47,0,5.38,0a28.3,28.3,0,0,0-3.18-8.81c-6-10.91-15.16-17.47-27.45-19.23a36.42,36.42,0,0,0-10.69,72,36.89,36.89,0,0,0,37.17-17.35,4.28,4.28,0,0,1,2.93-2.33,3.86,3.86,0,0,1,4.08,1.58,3.62,3.62,0,0,1,.08,4.48c-2.55,3.36-4.9,7-7.94,9.85-9.42,8.92-20.83,12.83-33.76,12.06-20.34-1.2-37.46-16.82-40.81-37.06a44.35,44.35,0,0,1,35.62-50.8c1.89-.34,3.79-.62,5.68-.93h5.39a11.31,11.31,0,0,0,1.1.31c3,.57,6.16.8,9.07,1.75,16.27,5.27,26.52,16.3,30.68,32.91.32,1.26.78,1.64,2,1.55s2.29.06,3.43,0a3,3,0,0,1,3.11,1.53Z" transform="translate(-121.49 -179.07)"/><path class="cls-7" d="M211.13,205.21c0-3.79,0-7.58,0-11.37,0-2.85,1.92-4.68,4.46-4.43,2.24.22,3.62,2,3.62,4.68,0,7.27,0,14.55,0,21.83a3.82,3.82,0,0,0,1.21,3.17,4.94,4.94,0,0,1,1.41,2.55,3.25,3.25,0,0,0,2,2.39c4,2.28,8,4.6,12.06,6.91,2.4,1.39,3.16,3.67,1.94,5.76s-3.58,2.51-6,1.14c-4.15-2.38-8.28-4.79-12.46-7.11a3.29,3.29,0,0,0-2.18-.3,7,7,0,0,1-7-11.69,3.91,3.91,0,0,0,.94-2.31C211.19,212.69,211.13,209,211.13,205.21Zm7.11,18.47a3.06,3.06,0,0,0-6.11-.06,3.06,3.06,0,1,0,6.11.06Z" transform="translate(-121.49 -179.07)"/></g></g></g></g></svg>