<svg xmlns="http://www.w3.org/2000/svg" viewBox="0 0 476.94 476.94"><defs><style>.cls-1{isolation:isolate;}.cls-2{fill:#6ac3c7;}.cls-3{opacity:0.6;mix-blend-mode:multiply;}.cls-4{fill:#fff;}.cls-5{fill:#ee7566;}.cls-6{fill:#fec905;}.cls-7{fill:#095a83;}</style></defs><title>configuracion</title><g class="cls-1"><g id="Capa_1" data-name="Capa 1"><circle class="cls-2" cx="240.69" cy="240.83" r="238.47" transform="translate(-102.02 238.37) rotate(-45)"/><g class="cls-3"><path class="cls-2" d="M156.6,254.42l.76-16.45a4.2,4.2,0,0,1,.14-1.66,55.71,55.71,0,0,0,10.55-5.38,4.17,4.17,0,0,1,3.69.66l14.66,7.49a3.47,3.47,0,0,0,4.86-.65h0l10.07-13.18a3.46,3.46,0,0,0-.66-4.86l-11.08-12.17a4.28,4.28,0,0,1-1.09-1.28,55.32,55.32,0,0,0,3.66-11.26,4.17,4.17,0,0,1,3.07-2.14l15.67-5.07a3.47,3.47,0,0,0,3-3.9h0l-2.21-16.44a3.46,3.46,0,0,0-3.89-3l-16.45-.76a4.2,4.2,0,0,1-1.66-.14,55.71,55.71,0,0,0-5.38-10.55A4.14,4.14,0,0,1,185,150l7.49-14.66a3.47,3.47,0,0,0-.65-4.86h0L178.6,120.42a3.47,3.47,0,0,0-4.86.65l-12.16,11.09a4.28,4.28,0,0,1-1.28,1.09A55.21,55.21,0,0,0,149,129.59a4.19,4.19,0,0,1-2.14-3.08l-5.06-15.66a3.48,3.48,0,0,0-3.9-3h0l-16.44,2.2a3.48,3.48,0,0,0-3,3.9l-.76,16.45a4.2,4.2,0,0,1-.14,1.66,55.71,55.71,0,0,0-10.55,5.38,4.16,4.16,0,0,1-3.69-.66l-14.66-7.49a3.47,3.47,0,0,0-4.86.65h0L73.78,143.14a3.47,3.47,0,0,0,.65,4.86l11.09,12.17a4.1,4.1,0,0,1,1.08,1.28A55.92,55.92,0,0,0,83,172.71a4.14,4.14,0,0,1-3.08,2.14l-15.66,5.07a3.47,3.47,0,0,0-3,3.9h0l2.2,16.44a3.48,3.48,0,0,0,3.9,3l16.44.76a4.23,4.23,0,0,1,1.67.14,55.71,55.71,0,0,0,5.38,10.55,4.17,4.17,0,0,1-.66,3.69L82.67,233a3.46,3.46,0,0,0,.65,4.86h0L96.5,248a3.47,3.47,0,0,0,4.86-.65l12.17-11.09a4.28,4.28,0,0,1,1.28-1.09,55.32,55.32,0,0,0,11.26,3.66,4.17,4.17,0,0,1,2.14,3.08l5.07,15.66a3.47,3.47,0,0,0,3.9,3h0l16.44-2.2A3.48,3.48,0,0,0,156.6,254.42Zm-42.68-67.06a23.85,23.85,0,1,1,26.8,20.47A23.85,23.85,0,0,1,113.92,187.36Z" transform="translate(-2.22 -2.36)"/></g><g class="cls-3"><path class="cls-2" d="M340.23,430.09l.55-11.82a3,3,0,0,1,.1-1.19,40.07,40.07,0,0,0,7.58-3.87,3,3,0,0,1,2.65.48l10.53,5.38a2.49,2.49,0,0,0,3.5-.47h0l7.23-9.47a2.48,2.48,0,0,0-.47-3.49l-8-8.75a2.86,2.86,0,0,1-.78-.92,39.87,39.87,0,0,0,2.63-8.09,3,3,0,0,1,2.2-1.54l11.26-3.64a2.48,2.48,0,0,0,2.14-2.8h0l-1.58-11.81A2.49,2.49,0,0,0,377,366l-11.82-.55a3,3,0,0,1-1.19-.1,40.07,40.07,0,0,0-3.87-7.58,3,3,0,0,1,.47-2.65L366,344.54a2.51,2.51,0,0,0-.47-3.5h0l-9.47-7.23a2.49,2.49,0,0,0-3.5.47l-8.74,8a3,3,0,0,1-.92.78,40.28,40.28,0,0,0-8.09-2.63,3,3,0,0,1-1.54-2.2l-3.64-11.26a2.49,2.49,0,0,0-2.8-2.14h0L315,326.37a2.49,2.49,0,0,0-2.13,2.8L312.32,341a3,3,0,0,1-.1,1.19,39.77,39.77,0,0,0-7.58,3.87,3,3,0,0,1-2.65-.47l-10.54-5.39a2.5,2.5,0,0,0-3.49.47h0l-7.24,9.48a2.5,2.5,0,0,0,.47,3.49l8,8.74a3,3,0,0,1,.78.92,40.28,40.28,0,0,0-2.63,8.09,3,3,0,0,1-2.21,1.54l-11.26,3.64a2.48,2.48,0,0,0-2.13,2.8h0l1.58,11.82a2.48,2.48,0,0,0,2.8,2.13l11.82.55a3,3,0,0,1,1.19.1,39.77,39.77,0,0,0,3.87,7.58,3,3,0,0,1-.47,2.65l-5.39,10.54a2.48,2.48,0,0,0,.47,3.49h0l9.47,7.24a2.5,2.5,0,0,0,3.49-.47l8.75-8a2.86,2.86,0,0,1,.92-.78,39.87,39.87,0,0,0,8.09,2.63,3,3,0,0,1,1.54,2.21l3.64,11.26a2.48,2.48,0,0,0,2.8,2.13h0l11.81-1.58A2.49,2.49,0,0,0,340.23,430.09Zm-30.66-48.18a17.13,17.13,0,1,1,19.25,14.7A17.13,17.13,0,0,1,309.57,381.91Z" transform="translate(-2.22 -2.36)"/></g><g class="cls-3"><path class="cls-2" d="M297.68,176.75l.73-15.75a4,4,0,0,1,.13-1.59,52.58,52.58,0,0,0,10.11-5.16,4,4,0,0,1,3.53.64l14,7.17a3.31,3.31,0,0,0,4.65-.62h0l9.65-12.63a3.32,3.32,0,0,0-.63-4.65l-10.61-11.65a3.93,3.93,0,0,1-1-1.23,53.7,53.7,0,0,0,3.5-10.78,4,4,0,0,1,2.94-2l15-4.85a3.34,3.34,0,0,0,2.85-3.74h0l-2.11-15.74a3.32,3.32,0,0,0-3.73-2.85L331,90.53a3.9,3.9,0,0,1-1.6-.13,52.75,52.75,0,0,0-5.15-10.1,4,4,0,0,1,.63-3.53l7.18-14a3.34,3.34,0,0,0-.62-4.66h0l-12.63-9.64a3.34,3.34,0,0,0-4.66.62L302.45,59.67a4,4,0,0,1-1.22,1,52.75,52.75,0,0,0-10.79-3.5,4,4,0,0,1-2.05-3l-4.85-15a3.32,3.32,0,0,0-3.73-2.85h0l-15.75,2.11a3.32,3.32,0,0,0-2.85,3.73L260.48,58a4,4,0,0,1-.13,1.59,53.15,53.15,0,0,0-10.11,5.16,4,4,0,0,1-3.53-.63l-14-7.18a3.32,3.32,0,0,0-4.65.62h0l-9.64,12.63a3.31,3.31,0,0,0,.62,4.65L229.62,86.5a3.86,3.86,0,0,1,1,1.22,54,54,0,0,0-3.5,10.79,4,4,0,0,1-2.94,2l-15,4.85a3.31,3.31,0,0,0-2.85,3.73h0l2.1,15.75a3.33,3.33,0,0,0,3.74,2.85l15.75.73a4,4,0,0,1,1.59.13,53.33,53.33,0,0,0,5.15,10.1,4,4,0,0,1-.63,3.54l-7.18,14a3.32,3.32,0,0,0,.63,4.65h0l12.62,9.64a3.32,3.32,0,0,0,4.66-.62l11.65-10.62a4,4,0,0,1,1.23-1,53.1,53.1,0,0,0,10.78,3.51,4,4,0,0,1,2.05,2.94l4.85,15a3.32,3.32,0,0,0,3.73,2.85h0l15.75-2.11A3.31,3.31,0,0,0,297.68,176.75Zm-40.87-64.22a22.84,22.84,0,1,1,25.67,19.6A22.83,22.83,0,0,1,256.81,112.53Z" transform="translate(-2.22 -2.36)"/></g><g class="cls-3"><path class="cls-2" d="M228.41,395.93l.55-11.81a3,3,0,0,1,.1-1.2,39.78,39.78,0,0,0,7.58-3.87,3,3,0,0,1,2.65.48l10.53,5.38a2.49,2.49,0,0,0,3.49-.46h0l7.24-9.48a2.49,2.49,0,0,0-.47-3.49l-8-8.74a3.05,3.05,0,0,1-.77-.92,40.14,40.14,0,0,0,2.62-8.1,3,3,0,0,1,2.21-1.53l11.26-3.64a2.5,2.5,0,0,0,2.14-2.8h0L268,333.93a2.49,2.49,0,0,0-2.79-2.14l-11.82-.55a3,3,0,0,1-1.2-.09,39,39,0,0,0-3.87-7.59,3,3,0,0,1,.48-2.65l5.39-10.53a2.5,2.5,0,0,0-.47-3.49h0l-9.48-7.24a2.5,2.5,0,0,0-3.49.47l-8.74,8a3.24,3.24,0,0,1-.92.78,39.65,39.65,0,0,0-8.09-2.63,3,3,0,0,1-1.54-2.21l-3.64-11.26a2.5,2.5,0,0,0-2.8-2.14h0l-11.82,1.59A2.49,2.49,0,0,0,201,295l-.55,11.81a3,3,0,0,1-.09,1.2,39.57,39.57,0,0,0-7.59,3.87,3,3,0,0,1-2.65-.48L179.63,306a2.49,2.49,0,0,0-3.49.46h0L168.9,316a2.5,2.5,0,0,0,.47,3.49l8,8.74a3.24,3.24,0,0,1,.78.92,39.54,39.54,0,0,0-2.63,8.1,3,3,0,0,1-2.21,1.53L162,342.4a2.5,2.5,0,0,0-2.14,2.8h0L161.47,357a2.49,2.49,0,0,0,2.8,2.14l11.81.55a3,3,0,0,1,1.2.09,39.57,39.57,0,0,0,3.87,7.59,3,3,0,0,1-.48,2.65l-5.38,10.53a2.49,2.49,0,0,0,.46,3.49h0l9.48,7.24a2.5,2.5,0,0,0,3.49-.47l8.74-8a3.24,3.24,0,0,1,.92-.78,39.54,39.54,0,0,0,8.1,2.63,3,3,0,0,1,1.53,2.21l3.64,11.26a2.5,2.5,0,0,0,2.8,2.14h0l11.82-1.59A2.49,2.49,0,0,0,228.41,395.93Zm-30.67-48.18A17.14,17.14,0,1,1,217,362.46,17.14,17.14,0,0,1,197.74,347.75Z" transform="translate(-2.22 -2.36)"/></g><path class="cls-4" d="M356.17,198.14a80.34,80.34,0,0,0-23.45,3.48,93.09,93.09,0,0,0-184.05,0A80.49,80.49,0,1,0,125.22,359.1h231a80.48,80.48,0,0,0,0-161Z" transform="translate(-2.22 -2.36)"/><path class="cls-5" d="M309.2,333.45l.6-13a3.38,3.38,0,0,1,.11-1.31,43.75,43.75,0,0,0,8.35-4.26,3.32,3.32,0,0,1,2.91.52l11.59,5.93a2.73,2.73,0,0,0,3.84-.52h0l8-10.42a2.73,2.73,0,0,0-.52-3.84l-8.77-9.63a3.28,3.28,0,0,1-.85-1,43.69,43.69,0,0,0,2.89-8.9,3.3,3.3,0,0,1,2.43-1.69l12.39-4a2.74,2.74,0,0,0,2.35-3.08h0l-1.74-13a2.75,2.75,0,0,0-3.08-2.36l-13-.6a3.23,3.23,0,0,1-1.32-.11,43.38,43.38,0,0,0-4.26-8.34,3.31,3.31,0,0,1,.53-2.92l5.92-11.59a2.74,2.74,0,0,0-.51-3.84h0l-10.43-8a2.74,2.74,0,0,0-3.84.51l-9.62,8.77a3.45,3.45,0,0,1-1,.86,44,44,0,0,0-8.91-2.9,3.27,3.27,0,0,1-1.69-2.43l-4-12.38a2.75,2.75,0,0,0-3.08-2.36h0l-13,1.75a2.74,2.74,0,0,0-2.35,3.08l-.61,13a3.37,3.37,0,0,1-.1,1.31A44.34,44.34,0,0,0,270,241a3.29,3.29,0,0,1-2.91-.52l-11.59-5.93a2.74,2.74,0,0,0-3.85.52h0l-8,10.42a2.74,2.74,0,0,0,.52,3.85l8.76,9.62a3.18,3.18,0,0,1,.86,1,43.89,43.89,0,0,0-2.89,8.9,3.28,3.28,0,0,1-2.43,1.69l-12.39,4a2.74,2.74,0,0,0-2.35,3.08h0l1.74,13a2.75,2.75,0,0,0,3.08,2.36l13,.6a3.23,3.23,0,0,1,1.32.11,43.91,43.91,0,0,0,4.25,8.34,3.28,3.28,0,0,1-.52,2.92l-5.92,11.59a2.74,2.74,0,0,0,.51,3.84h0l10.43,8a2.74,2.74,0,0,0,3.84-.51l9.62-8.77a3.45,3.45,0,0,1,1-.86,44,44,0,0,0,8.91,2.9,3.3,3.3,0,0,1,1.69,2.43l4,12.39a2.74,2.74,0,0,0,3.08,2.35h0l13-1.74A2.74,2.74,0,0,0,309.2,333.45Zm-33.74-53a18.85,18.85,0,1,1,21.19,16.19A18.86,18.86,0,0,1,275.46,280.42Z" transform="translate(-2.22 -2.36)"/><path class="cls-6" d="M190.57,212.69l9.57-.58a2.27,2.27,0,0,1,1,0,32.06,32.06,0,0,0,3.78,5.77,2.44,2.44,0,0,1-.16,2.18l-3.43,9a2,2,0,0,0,.68,2.78h0l8.26,5a2,2,0,0,0,2.78-.68l6.35-7.17a2.31,2.31,0,0,1,.68-.71,33.06,33.06,0,0,0,6.75,1.42,2.45,2.45,0,0,1,1.43,1.64l3.9,8.76a2,2,0,0,0,2.44,1.48h0l9.39-2.29a2,2,0,0,0,1.48-2.44l-.58-9.57a2.32,2.32,0,0,1,0-1,31.67,31.67,0,0,0,5.77-3.77,2.47,2.47,0,0,1,2.18.15l9,3.43a2,2,0,0,0,2.78-.67h0l5-8.27a2,2,0,0,0-.68-2.77L261.68,208a2.28,2.28,0,0,1-.71-.67,32,32,0,0,0,1.42-6.75,2.43,2.43,0,0,1,1.65-1.43l8.75-3.91a2,2,0,0,0,1.48-2.44h0L272,183.4a2,2,0,0,0-2.44-1.48l-9.57.58a2.7,2.7,0,0,1-1,0,31.57,31.57,0,0,0-3.77-5.78,2.45,2.45,0,0,1,.15-2.17l3.44-9a2,2,0,0,0-.68-2.77h0l-8.26-5a2,2,0,0,0-2.78.68l-6.36,7.17a2.39,2.39,0,0,1-.67.71,31.91,31.91,0,0,0-6.75-1.42,2.43,2.43,0,0,1-1.43-1.65l-3.9-8.76a2,2,0,0,0-2.45-1.48h0l-9.38,2.3a2,2,0,0,0-1.48,2.44l.58,9.57a2.65,2.65,0,0,1,0,1,32.14,32.14,0,0,0-5.78,3.78,2.42,2.42,0,0,1-2.17-.16l-9-3.43a2,2,0,0,0-2.77.68h0l-5,8.26a2,2,0,0,0,.68,2.78l7.17,6.35a2.43,2.43,0,0,1,.71.68,31.77,31.77,0,0,0-1.42,6.75,2.45,2.45,0,0,1-1.65,1.43l-8.75,3.9a2,2,0,0,0-1.49,2.44h0l2.3,9.39A2,2,0,0,0,190.57,212.69Zm36.18-28.88a13.89,13.89,0,1,1-10.18,16.79A13.89,13.89,0,0,1,226.75,183.81Z" transform="translate(-2.22 -2.36)"/><path class="cls-7" d="M170.31,280l6.77-.41a2,2,0,0,1,.68,0,23,23,0,0,0,2.67,4.09,1.71,1.71,0,0,1-.11,1.54l-2.42,6.33a1.42,1.42,0,0,0,.48,2h0l5.84,3.54a1.43,1.43,0,0,0,2-.48l4.49-5.07a1.64,1.64,0,0,1,.48-.5,22.61,22.61,0,0,0,4.77,1,1.71,1.71,0,0,1,1,1.17l2.76,6.19a1.43,1.43,0,0,0,1.73,1h0l6.63-1.62a1.43,1.43,0,0,0,1-1.73l-.41-6.76a2,2,0,0,1,0-.69,23,23,0,0,0,4.09-2.66,1.69,1.69,0,0,1,1.53.1l6.34,2.43a1.43,1.43,0,0,0,2-.48h0l3.54-5.84a1.43,1.43,0,0,0-.48-2l-5.07-4.5a1.61,1.61,0,0,1-.5-.47,22.61,22.61,0,0,0,1-4.77,1.69,1.69,0,0,1,1.16-1l6.19-2.76a1.43,1.43,0,0,0,1-1.73h0l-1.62-6.64a1.43,1.43,0,0,0-1.73-1l-6.76.41a1.78,1.78,0,0,1-.69,0,22.41,22.41,0,0,0-2.67-4.08,1.75,1.75,0,0,1,.11-1.54l2.43-6.33a1.43,1.43,0,0,0-.48-2h0l-5.84-3.54a1.42,1.42,0,0,0-2,.48l-4.5,5.07a1.73,1.73,0,0,1-.47.5,22.61,22.61,0,0,0-4.77-1,1.76,1.76,0,0,1-1-1.17l-2.76-6.19a1.42,1.42,0,0,0-1.72-1h0l-6.64,1.62a1.42,1.42,0,0,0-1,1.72l.4,6.77a1.61,1.61,0,0,1,0,.69,22.9,22.9,0,0,0-4.08,2.66,1.71,1.71,0,0,1-1.54-.1l-6.33-2.43a1.43,1.43,0,0,0-2,.48h0l-3.54,5.84a1.42,1.42,0,0,0,.48,2l5.07,4.49a1.76,1.76,0,0,1,.5.48,22.61,22.61,0,0,0-1,4.77,1.72,1.72,0,0,1-1.17,1L168,270.58a1.44,1.44,0,0,0-1,1.73h0l1.63,6.63A1.42,1.42,0,0,0,170.31,280Zm25.58-20.41a9.82,9.82,0,1,1-7.2,11.87A9.82,9.82,0,0,1,195.89,259.58Z" transform="translate(-2.22 -2.36)"/></g></g></svg>