<svg id="Capa_1" data-name="Capa 1" xmlns="http://www.w3.org/2000/svg" viewBox="0 0 478.4 478.4"><defs><style>.cls-1{fill:#6ac3c7;}.cls-2{fill:#fff;}.cls-3{fill:#ee7566;}.cls-4{fill:#095a83;}.cls-5{fill:#003f61;}</style></defs><title>datos</title><circle class="cls-1" cx="239.2" cy="239.2" r="239.2"/><path class="cls-2" d="M107.21,108.25c-.57-5.8,2.64-9.22,8-9.75l7.91-.77c6.49-.63,8.92,3.15,9.37,7.78l1.76,18.09c.56,5.75-2.38,8.93-7.72,9.45l-7.91.77c-5.43.53-9.13-2-9.69-7.75Zm12.36,19.2,4.68-.46c2.26-.22,3.42-1.18,3.17-3.79l-1.56-16c-.22-2.22-1.31-3.35-3.63-3.13l-5.07.5a3.15,3.15,0,0,0-3.12,3.78l1.55,16C115.88,127.27,118,127.6,119.57,127.45Z" transform="translate(-1.64 -1.74)"/><path class="cls-3" d="M148.87,153.46c-.65-5.79,2.5-9.26,7.88-9.86l7.9-.89c6.48-.73,9,3,9.48,7.65l2,18.06c.64,5.73-2.26,9-7.59,9.56l-7.9.88c-5.42.61-9.16-1.83-9.8-7.61Zm12.64,19,4.67-.52c2.26-.25,3.4-1.23,3.11-3.83l-1.78-16c-.25-2.22-1.36-3.33-3.68-3.07l-5.06.56a3.17,3.17,0,0,0-3.07,3.83l1.79,15.92C157.82,172.35,159.89,172.66,161.51,172.47Z" transform="translate(-1.64 -1.74)"/><path class="cls-3" d="M309.88,92.41c1.42-5.64,5.59-7.79,10.83-6.47l7.71,1.94c6.33,1.6,7.34,6,6.2,10.49L330.19,116c-1.41,5.59-5.26,7.59-10.46,6.28L312,120.34c-5.28-1.33-7.93-4.92-6.51-10.56Zm5.17,22.25,4.55,1.14c2.21.56,3.62,0,4.26-2.5l3.92-15.56c.55-2.16-.1-3.59-2.36-4.16l-4.94-1.25a3.16,3.16,0,0,0-4.21,2.51l-3.92,15.54C311.63,113.24,313.46,114.26,315.05,114.66Z" transform="translate(-1.64 -1.74)"/><path class="cls-3" d="M292.71,148.06c-.65-5.79,2.5-9.26,7.87-9.86l7.9-.89c6.49-.72,9,3,9.48,7.65L320,163c.64,5.73-2.26,9-7.59,9.56l-7.89.88c-5.42.61-9.16-1.82-9.81-7.6Zm12.64,19,4.66-.53c2.26-.25,3.41-1.23,3.12-3.83l-1.79-15.95c-.25-2.21-1.36-3.33-3.67-3.07l-5.07.56a3.16,3.16,0,0,0-3.06,3.84L301.32,164C301.65,167,303.72,167.26,305.35,167.08Z" transform="translate(-1.64 -1.74)"/><path class="cls-3" d="M349.21,202c-.65-5.78,2.5-9.25,7.87-9.86l7.9-.88c6.49-.73,9,3,9.49,7.64l2,18.07c.64,5.73-2.26,9-7.58,9.55l-7.9.89c-5.42.61-9.16-1.83-9.81-7.61Zm12.64,19,4.67-.52c2.26-.26,3.4-1.24,3.11-3.84l-1.79-15.94c-.25-2.22-1.35-3.34-3.67-3.08l-5.07.57a3.16,3.16,0,0,0-3.06,3.83L357.82,218C358.15,220.94,360.22,221.24,361.85,221.06Z" transform="translate(-1.64 -1.74)"/><path class="cls-2" d="M229.13,396.86c-.65-5.78,2.5-9.25,7.88-9.86l7.9-.88c6.48-.73,9,3,9.48,7.64l2,18.07c.64,5.73-2.26,9-7.59,9.55l-7.9.89c-5.42.61-9.16-1.83-9.8-7.61Zm12.64,19,4.67-.52c2.26-.26,3.4-1.24,3.11-3.84l-1.79-15.94c-.24-2.22-1.35-3.34-3.67-3.08l-5.06.57A3.16,3.16,0,0,0,236,396.9l1.79,15.92C238.08,415.76,240.15,416.06,241.77,415.88Z" transform="translate(-1.64 -1.74)"/><path class="cls-2" d="M204.89,138.42c3.07-4.95,7.69-5.73,12.29-2.89l6.76,4.19c5.54,3.44,5.18,7.92,2.73,11.87l-9.58,15.46c-3,4.9-7.31,5.64-11.87,2.82l-6.75-4.19c-4.64-2.87-6.07-7.09-3-12Zm-1.82,22.76,4,2.48c1.93,1.19,3.44,1.13,4.82-1.1l8.45-13.63c1.17-1.9,1-3.46-1-4.69L215,141.55a3.17,3.17,0,0,0-4.78,1.12l-8.44,13.62C200.25,158.8,201.69,160.32,203.07,161.18Z" transform="translate(-1.64 -1.74)"/><path class="cls-4" d="M263.21,102.07c-1.92-5.49.38-9.58,5.49-11.36l7.5-2.62c6.16-2.16,9.42,1,10.95,5.34l6,17.16c1.91,5.45-.2,9.24-5.26,11l-7.51,2.63c-5.14,1.79-9.33.25-11.25-5.24Zm16.56,15.73,4.43-1.55c2.15-.75,3.05-2,2.19-4.43l-5.3-15.15c-.73-2.1-2.06-3-4.26-2.18L272,96.17a3.16,3.16,0,0,0-2.14,4.42l5.28,15.12C276.14,118.5,278.23,118.34,279.77,117.8Z" transform="translate(-1.64 -1.74)"/><path class="cls-3" d="M162.47,89.83c3.06-5,7.69-5.73,12.28-2.88l6.76,4.19c5.55,3.44,5.18,7.92,2.73,11.87l-9.58,15.45c-3,4.91-7.31,5.65-11.86,2.83L156,117.1c-4.64-2.87-6.07-7.1-3-12Zm-1.82,22.77,4,2.47c1.93,1.2,3.44,1.14,4.82-1.09l8.45-13.64c1.17-1.89,1-3.46-1-4.69L172.59,93a3.16,3.16,0,0,0-4.78,1.12l-8.43,13.61C157.82,110.21,159.26,111.74,160.65,112.6Z" transform="translate(-1.64 -1.74)"/><path class="cls-4" d="M349.57,141.1c3.07-4.94,7.69-5.72,12.29-2.88l6.75,4.19c5.55,3.44,5.18,7.92,2.74,11.87l-9.58,15.45c-3,4.91-7.31,5.65-11.87,2.83l-6.75-4.19c-4.64-2.87-6.07-7.1-3-12Zm-1.82,22.77,4,2.47c1.93,1.2,3.44,1.14,4.81-1.09L365,151.61c1.17-1.89,1-3.46-1-4.69l-4.33-2.68a3.16,3.16,0,0,0-4.78,1.12L346.48,159C344.93,161.49,346.37,163,347.75,163.87Z" transform="translate(-1.64 -1.74)"/><path class="cls-4" d="M245.26,178c3.06-4.95,7.69-5.73,12.28-2.88l6.76,4.19c5.55,3.43,5.18,7.92,2.73,11.87l-9.57,15.45c-3,4.9-7.32,5.65-11.87,2.82l-6.76-4.18c-4.63-2.87-6.07-7.1-3-12Zm-1.82,22.77,4,2.47c1.94,1.2,3.44,1.13,4.82-1.09l8.45-13.64c1.17-1.9,1-3.46-1-4.69l-4.33-2.68a3.16,3.16,0,0,0-4.78,1.11l-8.43,13.62C240.61,198.33,242.05,199.86,243.44,200.72Z" transform="translate(-1.64 -1.74)"/><path class="cls-2" d="M281,187.38c.86-5.75,4.8-8.29,10.15-7.49l7.86,1.18c6.45,1,7.88,5.24,7.19,9.84l-2.7,18c-.86,5.71-4.5,8.07-9.8,7.28L285.83,215c-5.39-.81-8.37-4.12-7.51-9.87Zm7.3,21.64,4.65.7c2.25.34,3.6-.31,4-2.9L299.32,191c.33-2.21-.45-3.57-2.75-3.92l-5-.76a3.16,3.16,0,0,0-3.95,2.91L285.19,205C284.75,208,286.68,208.78,288.29,209Z" transform="translate(-1.64 -1.74)"/><path class="cls-4" d="M100.07,177.74c-1.16-5.71,1.67-9.45,7-10.53l7.79-1.58c6.39-1.31,9.2,2.21,10.13,6.76l3.63,17.81c1.15,5.66-1.45,9.13-6.7,10.2L114.1,202c-5.34,1.09-9.29-1-10.45-6.7Zm14.29,17.81,4.61-.94c2.23-.45,3.28-1.53,2.75-4.1l-3.2-15.72c-.45-2.18-1.65-3.2-3.93-2.73l-5,1a3.16,3.16,0,0,0-2.71,4.08l3.2,15.7C110.67,195.75,112.76,195.88,114.36,195.55Z" transform="translate(-1.64 -1.74)"/><path class="cls-2" d="M140.31,195.28l5.39-5.84,6.44-2,10.38,33.93-6.49,2-8.41-27.49-6,3.63Z" transform="translate(-1.64 -1.74)"/><path class="cls-2" d="M237.56,436.24l7.2-3.37,6.71.61-3.22,35.34-6.76-.62,2.61-28.63-6.94,1.09Z" transform="translate(-1.64 -1.74)"/><path class="cls-2" d="M196.94,186.11l7.62-2.3,6.54,1.57-8.28,34.5-6.6-1.58,6.71-28-7,.07Z" transform="translate(-1.64 -1.74)"/><path class="cls-2" d="M345.22,90.7,352,86.48l6.73-.2,1.07,35.47L353,122l-.86-28.73-6.75,1.92Z" transform="translate(-1.64 -1.74)"/><path class="cls-2" d="M237.75,70.34l7.61-2.3,6.55,1.57-8.28,34.51-6.6-1.59,6.71-27.95-7,.08Z" transform="translate(-1.64 -1.74)"/><path class="cls-3" d="M242.45,137.59l3.73-7,5.73-3.54,18.64,30.19-5.77,3.57-15.1-24.46-4.9,5Z" transform="translate(-1.64 -1.74)"/><path class="cls-4" d="M193.84,83l3.73-7,5.73-3.54,18.64,30.19-5.77,3.57L201.07,81.7l-4.9,5Z" transform="translate(-1.64 -1.74)"/><path class="cls-2" d="M324.36,186.11l7.61-2.3,6.55,1.57-8.28,34.5-6.6-1.58,6.71-28-7,.07Z" transform="translate(-1.64 -1.74)"/><polygon class="cls-4" points="386.94 254.54 239.2 368.43 91.46 254.54 386.94 254.54"/><rect class="cls-4" x="217.99" y="342.73" width="42.43" height="51.94"/><rect class="cls-5" x="91.46" y="218.08" width="295.48" height="36.46"/></svg>