<svg id="Capa_1" data-name="Capa 1" xmlns="http://www.w3.org/2000/svg" viewBox="0 0 478.3 478.3"><defs><style>.cls-1{fill:#095a83;}.cls-2{fill:#fff;}.cls-3{fill:#ee7566;}</style></defs><title>disenio</title><circle class="cls-1" cx="240.78" cy="239.15" r="239.15" transform="translate(-100.21 240.3) rotate(-45)"/><rect class="cls-2" x="110.75" y="141.61" width="125.91" height="123.84"/><rect class="cls-3" x="110.75" y="141.61" width="125.91" height="28.34"/><path class="cls-1" d="M233.54,262.1H116.83V173.35H233.54Zm-114.78-1.92H231.61V175.27H118.76Z" transform="translate(-1.63)"/><rect class="cls-1" x="116.17" y="194.11" width="114.78" height="1.93"/><rect class="cls-1" x="116.17" y="216.76" width="114.78" height="1.93"/><rect class="cls-1" x="116.17" y="239.42" width="114.78" height="1.93"/><rect class="cls-1" x="151.55" y="174.31" width="1.93" height="86.83"/><rect class="cls-1" x="193.64" y="174.31" width="1.93" height="86.83"/><rect class="cls-2" x="289.19" y="141.61" width="125.91" height="166.92"/><rect class="cls-3" x="289.19" y="141.61" width="125.91" height="28.34"/><path class="cls-1" d="M412,303.84H295.27V173.35H412ZM297.2,301.92H410.05V175.27H297.2Z" transform="translate(-1.63)"/><rect class="cls-1" x="294.61" y="192.18" width="114.78" height="1.93"/><rect class="cls-1" x="294.61" y="214.36" width="114.78" height="1.93"/><rect class="cls-1" x="294.61" y="236.54" width="114.78" height="1.93"/><rect class="cls-1" x="294.61" y="258.73" width="114.78" height="1.93"/><rect class="cls-1" x="294.61" y="280.91" width="114.78" height="1.93"/><rect class="cls-1" x="329.99" y="174.31" width="1.93" height="128.57"/><rect class="cls-1" x="372.08" y="174.31" width="1.93" height="128.57"/><rect class="cls-2" x="149.77" y="303.63" width="125.91" height="103.52"/><rect class="cls-3" x="149.77" y="303.63" width="125.91" height="28.34"/><path class="cls-1" d="M272.56,401.42H155.86V335.37h116.7Zm-114.78-1.93H270.64v-62.2H157.78Z" transform="translate(-1.63)"/><rect class="cls-1" x="155.2" y="356.12" width="114.78" height="1.93"/><rect class="cls-1" x="155.2" y="378.78" width="114.78" height="1.93"/><rect class="cls-1" x="190.79" y="336.33" width="1.49" height="64.12"/><rect class="cls-2" x="256.52" y="210.89" width="3.47" height="4.84"/><rect class="cls-2" x="267.98" y="210.89" width="7.99" height="4.84"/><rect class="cls-2" x="283.96" y="210.89" width="3.47" height="4.84"/><polygon class="cls-2" points="260.05 225.38 239.15 213.31 260.05 201.25 260.05 225.38"/><rect class="cls-2" x="166.76" y="132.49" width="4.84" height="7.26"/><rect class="cls-2" x="166.76" y="101.84" width="4.84" height="15.32"/><polygon class="cls-2" points="171.6 86.52 166.76 86.52 166.76 76.84 176.44 76.84 176.44 81.68 171.6 81.68 171.6 86.52"/><path class="cls-2" d="M331.06,81.68H315.77V76.84h15.29Zm-30.6,0H285.17V76.84h15.29Zm-30.59,0h-15.3V76.84h15.3Zm-30.61,0H224V76.84h15.3Zm-30.6,0h-15.3V76.84h15.3Z" transform="translate(-1.63)"/><polygon class="cls-2" points="354.42 86.52 349.58 86.52 349.58 81.68 344.74 81.68 344.74 76.84 354.42 76.84 354.42 86.52"/><rect class="cls-2" x="349.58" y="96.05" width="4.84" height="9.54"/><rect class="cls-2" x="349.58" y="115.13" width="4.84" height="7.26"/><polygon class="cls-2" points="339.93 118.85 352 139.75 364.06 118.85 339.93 118.85"/><rect class="cls-2" x="134.78" y="363.04" width="7.26" height="4.84"/><path class="cls-2" d="M122.32,367.88H108.23V363h14.09Zm-28.17,0H80.06V363H94.15Z" transform="translate(-1.63)"/><polygon class="cls-2" points="64.35 367.88 54.67 367.88 54.67 358.19 59.51 358.19 59.51 363.04 64.35 363.04 64.35 367.88"/><path class="cls-2" d="M61.13,342.59H56.29V327h4.84Zm0-31.21H56.29V295.77h4.84Zm0-31.22H56.29v-15.6h4.84Zm0-31.21H56.29v-15.6h4.84Z" transform="translate(-1.63)"/><polygon class="cls-2" points="59.51 217.75 54.67 217.75 54.67 208.06 64.35 208.06 64.35 212.91 59.51 212.91 59.51 217.75"/><rect class="cls-2" x="79.58" y="208.06" width="7.26" height="4.84"/><polygon class="cls-2" points="83.31 222.55 104.2 210.48 83.31 198.42 83.31 222.55"/><rect class="cls-2" x="353.18" y="313.59" width="4.84" height="7.26"/><rect class="cls-2" x="353.18" y="335.23" width="4.84" height="14.39"/><polygon class="cls-2" points="358.02 373.68 348.34 373.68 348.34 368.84 353.18 368.84 353.18 364 358.02 364 358.02 373.68"/><rect class="cls-2" x="319.92" y="368.84" width="14.21" height="4.84"/><rect class="cls-2" x="298.44" y="368.84" width="7.26" height="4.84"/><polygon class="cls-2" points="301.97 359.2 281.08 371.26 301.97 383.33 301.97 359.2"/></svg>