<svg id="Capa_1" data-name="Capa 1" xmlns="http://www.w3.org/2000/svg" viewBox="0 0 1208 725"><defs><style>.cls-1{fill:#f1f1f1;}.cls-2{fill:#3e3b56;}.cls-3{fill:#00729a;}.cls-4{fill:#429488;}.cls-5{fill:#78b46d;}.cls-6{fill:#fff;}.cls-7{fill:#2c2a40;}.cls-8{fill:#ffb8b8;}.cls-9{opacity:0.1;}.cls-10,.cls-9{isolation:isolate;}.cls-10{opacity:0.2;}</style></defs><title>Imagenes</title><path class="cls-1" d="M331.28,724.11l-31.37-87.85s34.51,17.26,36.08,39.22c0,0-7.85-109.82-23.53-133.35,0,0,25.1,3.14,53.34,125.5,0,0,4.7-141.19-37.66-182,0,0,58.05,47.07,62.76,149v89.42Z"/><path class="cls-1" d="M919.71,724.11,912.17,703s8.3,4.15,8.68,9.43c0,0-1.89-26.41-5.66-32.06,0,0,6,.75,12.82,30.17,0,0,1.13-33.95-9-43.75,0,0,14,11.31,15.09,35.83v21.5Z"/><circle class="cls-1" cx="779.95" cy="404.5" r="137.93"/><rect class="cls-1" x="-0.06" y="10.69" width="325.32" height="180.73"/><rect class="cls-1" x="441.31" y="10.69" width="325.32" height="180.73"/><rect class="cls-1" x="882.68" y="10.69" width="325.32" height="180.73"/><path class="cls-2" d="M836.21,724.61c-.22-.36-5.37-9-7.15-26.8-1.64-16.37-.58-44,13.73-82.47,27.11-72.93-6.25-131.78-6.59-132.36l1.65-1c.08.15,8.69,15.16,13.78,39.05A170.28,170.28,0,0,1,844.57,616c-27.07,72.81-6.94,107.28-6.74,107.62Z"/><circle class="cls-3" cx="825.61" cy="466.33" r="12.37"/><circle class="cls-2" cx="864.61" cy="511.99" r="12.37"/><circle class="cls-3" cx="837.97" cy="542.43" r="12.37"/><circle class="cls-3" cx="870.32" cy="568.11" r="12.37"/><circle class="cls-2" cx="828.46" cy="608.06" r="12.37"/><path class="cls-2" d="M843.68,725.06s-12.37-30.44,24.73-53.26Z"/><path class="cls-2" d="M828.47,724.51s-5.63-32.37-49.18-32.09Z"/><rect class="cls-3" x="0.42" y="0.23" width="324.37" height="16.17"/><rect class="cls-4" x="441.79" y="0.23" width="325.32" height="16.17"/><rect class="cls-5" x="883.16" y="0.23" width="324.37" height="16.17"/><rect class="cls-6" x="24.68" y="41.61" width="58.98" height="41.85"/><rect class="cls-6" x="137.87" y="41.61" width="162.66" height="4.76"/><rect class="cls-6" x="137.87" y="60.63" width="162.66" height="4.76"/><rect class="cls-6" x="137.87" y="79.66" width="162.66" height="4.76"/><rect class="cls-6" x="466.04" y="41.61" width="58.98" height="41.85"/><rect class="cls-6" x="579.24" y="41.61" width="162.66" height="4.76"/><rect class="cls-6" x="579.24" y="60.63" width="162.66" height="4.76"/><rect class="cls-6" x="579.24" y="79.66" width="162.66" height="4.76"/><rect class="cls-6" x="907.41" y="41.61" width="58.98" height="41.85"/><rect class="cls-6" x="1020.61" y="41.61" width="162.66" height="4.76"/><rect class="cls-6" x="1020.61" y="60.63" width="162.66" height="4.76"/><rect class="cls-6" x="1020.61" y="79.66" width="162.66" height="4.76"/><circle class="cls-3" cx="54.16" cy="63.01" r="19.02"/><circle class="cls-5" cx="936.9" cy="63.01" r="19.02"/><rect class="cls-2" x="150.02" y="191.43" width="1.9" height="5.71"/><path class="cls-2" d="M151.92,425.43H150V414h1.9Zm0-22.83H150V391.18h1.9Zm0-22.83H150V368.35h1.9Zm0-22.83H150V345.52h1.9Zm0-22.83H150V322.7h1.9Zm0-22.83H150V299.87h1.9Zm0-22.83H150V277h1.9Zm0-22.83H150V254.21h1.9Zm0-22.83H150V231.38h1.9Zm0-22.83H150V208.55h1.9Z"/><polygon class="cls-2" points="156.68 443.5 150.02 443.5 150.02 436.84 151.92 436.84 151.92 441.6 156.68 441.6 156.68 443.5"/><path class="cls-2" d="M1028.17,443.5H1016.7v-1.9h11.47Zm-22.94,0H993.77v-1.9h11.46Zm-22.93,0H970.83v-1.9H982.3Zm-22.93,0H947.9v-1.9h11.47Zm-22.94,0H925v-1.9h11.47Zm-22.93,0H902v-1.9H913.5Zm-22.94,0H879.1v-1.9h11.46Zm-22.93,0H856.16v-1.9h11.47Zm-22.93,0H833.23v-1.9H844.7Zm-22.94,0H810.3v-1.9h11.46Zm-22.93,0H787.36v-1.9h11.47Zm-22.94,0H764.43v-1.9h11.46Zm-22.93,0H741.49v-1.9H753Zm-22.93,0H718.56v-1.9H730Zm-22.94,0H695.63v-1.9h11.46Zm-22.93,0H672.69v-1.9h11.47Zm-22.93,0H649.76v-1.9h11.47Zm-22.94,0H626.82v-1.9h11.47Zm-22.93,0H603.89v-1.9h11.47Zm-22.94,0H581v-1.9h11.46Zm-22.93,0H558v-1.9h11.47Zm-22.93,0H535.09v-1.9h11.47Zm-22.94,0H512.15v-1.9h11.47Zm-22.93,0H489.22v-1.9h11.47Zm-22.94,0H466.29v-1.9h11.46Zm-22.93,0H443.35v-1.9h11.47Zm-22.93,0H420.42v-1.9h11.47Zm-22.94,0H397.48v-1.9H409Zm-22.93,0H374.55v-1.9H386Zm-22.94,0H351.62v-1.9h11.46Zm-22.93,0H328.68v-1.9h11.47Zm-22.93,0H305.75v-1.9h11.47Zm-22.94,0H282.82v-1.9h11.46Zm-22.93,0H259.88v-1.9h11.47Zm-22.94,0H237v-1.9h11.46Zm-22.93,0H214v-1.9h11.47Zm-22.93,0H191.08v-1.9h11.47Zm-22.94,0H168.15v-1.9h11.46Z"/><polygon class="cls-2" points="1046.29 443.5 1039.63 443.5 1039.63 441.6 1044.39 441.6 1044.39 436.84 1046.29 436.84 1046.29 443.5"/><path class="cls-2" d="M1046.29,425.43h-1.9V414h1.9Zm0-22.83h-1.9V391.18h1.9Zm0-22.83h-1.9V368.35h1.9Zm0-22.83h-1.9V345.52h1.9Zm0-22.83h-1.9V322.7h1.9Zm0-22.83h-1.9V299.87h1.9Zm0-22.83h-1.9V277h1.9Zm0-22.83h-1.9V254.21h1.9Zm0-22.83h-1.9V231.38h1.9Zm0-22.83h-1.9V208.55h1.9Z"/><rect class="cls-2" x="1044.39" y="191.43" width="1.9" height="5.71"/><rect class="cls-4" x="441.31" y="385.48" width="325.32" height="338.64"/><rect class="cls-6" x="466.04" y="429.71" width="58.98" height="41.85"/><rect class="cls-6" x="579.24" y="429.71" width="162.66" height="4.76"/><rect class="cls-6" x="579.24" y="448.73" width="162.66" height="4.76"/><rect class="cls-6" x="579.24" y="467.76" width="162.66" height="4.76"/><rect class="cls-6" x="466.04" y="580.48" width="58.98" height="41.85"/><rect class="cls-6" x="579.24" y="580.48" width="162.66" height="4.76"/><rect class="cls-6" x="579.24" y="599.5" width="162.66" height="4.76"/><rect class="cls-6" x="579.24" y="618.53" width="162.66" height="4.76"/><polygon class="cls-3" points="495.78 461.22 475.6 434.31 480.38 430.72 496.82 452.65 538.74 418.7 542.53 423.32 495.78 461.22"/><polygon class="cls-3" points="495.78 610.56 475.6 583.65 480.38 580.06 496.82 601.99 538.74 568.04 542.53 572.66 495.78 610.56"/><rect class="cls-2" x="8.51" y="723.16" width="1174.76" height="1.9"/><path class="cls-2" d="M644.92,201.89s31.39-13.68,46.13.77S651.58,212.35,644.92,201.89Z"/><path class="cls-7" d="M699.12,137c-10.55-17.82-31.42-18.65-31.42-18.65s-20.33-2.6-33.38,24.54c-12.16,25.31-28.94,49.74-2.7,55.66l4.74-14.75,2.93,15.85a102.65,102.65,0,0,0,11.23.19c28.1-.91,54.87.26,54-9.82C703.38,176.64,709.27,154.17,699.12,137Z"/><path class="cls-8" d="M713.88,460.15S700.57,484.88,692,484.88s-7.61,16.17-5.71,20,6.66,12.36-.95,24.73c-2.66,4.32-2.19,9.22-.44,13.76,4.89,12.75,23.9,8.89,23.29-4.75,0-.15,0-.3,0-.45-.95-15.22,6.66-39,14.27-44.71s14.26-20.93,14.26-20.93Z"/><path class="cls-8" d="M622.57,454.44s13.31,24.73,21.87,24.73,7.61,16.17,5.71,20-6.66,12.36,1,24.73c2.66,4.32,2.19,9.22.44,13.77-4.89,12.74-23.9,8.88-23.29-4.76,0-.15,0-.3,0-.45,1-15.22-6.65-39-14.26-44.71s-14.27-20.92-14.27-20.92Z"/><path class="cls-7" d="M633,332.68l-5.71,12.37s-83.71,27.58-76.1,59.93,44.71,82.75,50.42,80.85,36.15-7.61,37.1-23.78-21.88-44.71-21.88-44.71l31.39-28.53,45.68-1,39,29.49s-40.9,36.15-22.83,50.42,44.71,23.78,48.51,18.07,46.61-90.37,39.95-98-74.19-36.14-74.19-36.14L706.27,326l-70.39-3.8Z"/><path class="cls-8" d="M650.15,175.73s4.76,31.39-4.75,35.2,19,20,19,20h16.17L691.05,209s-9.51-17.12-3.8-33.29S650.15,175.73,650.15,175.73Z"/><path class="cls-9" d="M650.15,175.73s4.76,31.39-4.75,35.2,19,20,19,20h16.17L691.05,209s-9.51-17.12-3.8-33.29S650.15,175.73,650.15,175.73Z"/><path class="cls-6" d="M643.49,202.37s10.47,11.41,12.37,13.31,10.46,12.37,28.54-2.85,20,2.85,20,2.85V329.83s-15.22-6.66-27.58,0-38-1.9-38-1.9L634,210Z"/><path class="cls-3" d="M650.48,202.37s-8.89-3.81-16.5,0-34.24,22.83-32.34,31.39,26.63,68.48,9.51,97-20,36.15-20,36.15L633,345.05s32.34-20,29.49-32.34S650.48,202.37,650.48,202.37Z"/><path class="cls-3" d="M688.21,202.37s20,1.9,20.92,3.8,30,10,28.06,18.55-28.06,85.13-16.65,99.4,30.44,34.25,23.78,36.15-18.07-2.85-29.48,0-38.05-20.93-35.2-46.61S679.66,209,688.21,202.37Z"/><path class="cls-8" d="M640.64,384.05v9.51s-4.76,21.88,10.46,20.93,5.71-26.64,5.71-26.64l-.95-8.56Z"/><path class="cls-8" d="M683.44,385s-10.46,21.88,0,23.78,18.08-12.36,18.08-16.17S683.44,385,683.44,385Z"/><ellipse class="cls-8" cx="697.24" cy="162.89" rx="1.9" ry="3.8"/><ellipse class="cls-8" cx="641.12" cy="162.89" rx="1.9" ry="3.8"/><path class="cls-3" d="M713.88,214.73s23.78,0,22.83,9.51-32.34,173.13-32.34,173.13-13.32-12.37-24.73-9.52Z"/><path class="cls-3" d="M621.62,217.59s-23.79,4.75-23.79,19,34.25,151.24,39,151.24,22.83-2.85,22.83-7.61S621.62,217.59,621.62,217.59Z"/><path class="cls-10" d="M626.85,245.65l21.4,83.7S638.26,256.11,626.85,245.65Z"/><path class="cls-10" d="M710.1,233.89,688.45,343.32S695.37,240.2,710.1,233.89Z"/><circle class="cls-8" cx="669.18" cy="163.37" r="27.59"/><polygon class="cls-7" points="694.46 135.3 673.84 124.5 645.37 128.92 639.48 154.94 654.14 154.38 658.24 144.82 658.24 154.22 665 153.96 668.93 138.74 671.39 154.94 695.44 154.45 694.46 135.3"/></svg>