<svg id="Capa_1" data-name="Capa 1" xmlns="http://www.w3.org/2000/svg" viewBox="0 0 933 633"><defs><style>.cls-1{fill:#f2f2f2;}.cls-2{fill:#36595e;}.cls-3{opacity:0.33;}.cls-4{fill:#78b46d;}.cls-5{fill:#00729a;}.cls-6{fill:#3f3d56;}.cls-7{opacity:0.1;}.cls-12,.cls-7{isolation:isolate;}.cls-8{fill:#3c544c;}.cls-9{fill:#2f2e41;}.cls-10{fill:#ffb9b9;}.cls-11{fill:#313f2d;}.cls-12{opacity:0.2;}.cls-13{fill:#57876a;}.cls-14{fill:#2c3d35;}</style></defs><title>Imagenes</title><circle class="cls-1" cx="603.59" cy="110.64" r="32"/><rect class="cls-1" x="191.93" y="-7.2" width="343" height="642" transform="matrix(0.52, -0.85, 0.85, 0.52, -93.91, 460.04)"/><path class="cls-2" d="M678.09,427.84c-5-11.5-12.7-21.6-28.1-30.1a98,98,0,0,0-25.4-10,62.52,62.52,0,0,0,16.3-11,56.47,56.47,0,0,0,15.6-23.3,77.23,77.23,0,0,0,3.5-28.2c-1.1-16.8-4.4-33.1-13.2-44.8s-21.2-20.7-37.6-27c-12.6-4.8-25.5-7.8-45.5-8.9v-63.9l-40,25v39h-32v-41l-41-23v64h-87.1l28,48c8.65,0,14.51.81,17.5,2.3a13.22,13.22,0,0,1,6.5,6c1.3,2.5,1.9,8.4,1.9,17.5v173.2c0,9-.6,14.8-1.9,17.4s-2,4.9-5.1,6.3-3.2,1.3-11.8,1.3h-.1l-35,48h87v64h41v-64h32v64h40v-64.4c26-1.3,44.5-4.7,59.4-10.3,19.3-7.2,34.1-17.7,44.7-31.5s14.9-34.9,15.8-51.2C684.19,456.74,682.59,438,678.09,427.84Zm-186.5-129.2h0v-1.33h28c15.73,0,68.15-5.24,69,37.57s-69,41.06-69,41.06h-28v-3.3h0Zm0,122h32c6.5,0,28.86,1,37,1.36a35.26,35.26,0,0,1,9.76,1.74c1.15.39,2.24.83,3.42,1.32a49.76,49.76,0,0,1,13.79,7,28.75,28.75,0,0,1,7.13,6.7,39.17,39.17,0,0,1,2.36,3.69,37.46,37.46,0,0,1,4.17,10.29,42.12,42.12,0,0,1,1.47,10.72c0,7.79-1.44,14.24-5,19.7-4.81,8.06-12.7,13.77-21.58,17.8-23,10.44-52.53,9.7-52.53,9.7h-32Z"/><g class="cls-3"><path class="cls-4" d="M612.25,112a3.48,3.48,0,0,0-1.58-1.74,5.18,5.18,0,0,0-1.42-.58,3.84,3.84,0,0,0,.91-.64,3.37,3.37,0,0,0,.88-1.35,4.79,4.79,0,0,0,.19-1.64,5,5,0,0,0-.74-2.6,4.63,4.63,0,0,0-2.11-1.57,7.62,7.62,0,0,0-2.55-.51V97.64l-2.24,1.45v2.26H601.8V99l-2.3-1.33v3.71h-4.88l1.57,2.79a2.35,2.35,0,0,1,1,.13.76.76,0,0,1,.36.35,2.88,2.88,0,0,1,.11,1v10.06a2.88,2.88,0,0,1-.11,1c-.07.15-.11.28-.29.36s-.17.08-.66.08h0l-2,2.78h4.87v3.72h2.3v-3.72h1.79v3.72h2.25V119.9a10.53,10.53,0,0,0,3.33-.6,5.43,5.43,0,0,0,2.5-1.83,5.8,5.8,0,0,0,.89-3A6.74,6.74,0,0,0,612.25,112Zm-10.46-7.49h0v-.08h1.57c.88,0,3.82-.31,3.87,2.18s-3.87,2.38-3.87,2.38h-1.57v-.19h0Zm0,7.08h1.79c.37,0,1.62.05,2.08.07a2.07,2.07,0,0,1,.55.11l.19.07a2.71,2.71,0,0,1,.77.41,1.35,1.35,0,0,1,.4.39,2.54,2.54,0,0,1,.45,1.43,2.06,2.06,0,0,1-.28,1.14,2.72,2.72,0,0,1-1.21,1,7.62,7.62,0,0,1-2.95.56h-1.79Z"/></g><circle class="cls-5" cx="798.24" cy="464.04" r="11.73"/><rect class="cls-6" x="889.7" y="458.17" width="2" height="133.55"/><circle class="cls-2" cx="890.7" cy="458.17" r="18.89"/><path class="cls-2" d="M853.51,533c-27.28,41.83-19.81,95-19.81,95s51.7-14.62,79-56.45,19.81-95,19.81-95S880.79,491.11,853.51,533Z"/><path class="cls-4" d="M833.56,627.5s-.67-.1-1.89-.35c-1-.2-2.32-.48-4-.87-14.65-3.45-53.6-15.13-79.07-45.84C716.76,542,718.1,488.28,718.1,488.28s48.74,7.92,80.86,42.45c1.39,1.48,2.75,3,4.06,4.61,27.74,33.45,30.32,78.47,30.53,89.59C833.58,626.6,833.56,627.5,833.56,627.5Z"/><path class="cls-6" d="M834.53,629.26l-1.1-.31c-.52-.14-52.38-15.2-79.55-56.87s-20-95.19-20-95.72l.16-1.14,1.1.31c.53.15,52.38,15.21,79.55,56.87h0c27.17,41.67,20,95.19,20,95.73ZM735.76,477.8c-.86,8-4.74,55.56,19.8,93.19s69.61,53.25,77.29,55.69c.87-8,4.75-55.55-19.79-93.19S743.45,480.24,735.76,477.8Z"/><g class="cls-7"><path d="M833.55,624.93c-.72.87-1.36,1.61-1.88,2.22-1.16,1.32-1.82,2-1.82,2s-.79-1-2.14-2.88c-7.37-10.27-31.07-46.8-29.24-89q.15-3.31.49-6.56c1.39,1.48,2.75,3,4.06,4.61C830.76,568.8,833.34,613.81,833.55,624.93Z"/></g><path class="cls-4" d="M874,540.34c-2.16,49.9-39.2,88.82-39.2,88.82s-33.54-42-31.39-91.87,39.2-88.82,39.2-88.82S876.15,490.45,874,540.34Z"/><rect class="cls-6" x="750.16" y="538.13" width="177.43" height="2" transform="translate(261.81 1352.38) rotate(-87.37)"/><rect class="cls-2" x="57.58" y="626.95" width="846.02" height="2"/><circle class="cls-4" cx="237.26" cy="369.06" r="42.73"/><circle class="cls-4" cx="164.63" cy="469.63" r="42.73"/><circle class="cls-4" cx="75.24" cy="549.94" r="42.73" transform="matrix(0.03, -1, 1, 0.03, -476.9, 606.84)"/><rect class="cls-2" x="74.2" y="549.7" width="2" height="77.51"/><circle class="cls-2" cx="75.2" cy="549.7" r="10.96"/><path class="cls-2" d="M75.2,597.47s-1.56-33.67-33.66-29.76"/><rect class="cls-2" x="236.29" y="369.22" width="2" height="258.54"/><circle class="cls-2" cx="237.29" cy="369.1" r="10.96"/><circle class="cls-2" cx="203.62" cy="556.15" r="10.96"/><path class="cls-2" d="M237.29,425.09s-1.57-33.68-33.67-29.77"/><path class="cls-2" d="M237.29,520.56s-1.57-33.68-33.67-29.76"/><path class="cls-2" d="M238.28,624.85l-2-.21a126,126,0,0,0,0-21.35c-.9-10.77-3.68-25.66-11.86-35.5a29.14,29.14,0,0,0-20.92-10.64l.16-2A31,31,0,0,1,226,566.52c8.51,10.24,11.4,25.58,12.32,36.64A128.11,128.11,0,0,1,238.28,624.85Z"/><circle class="cls-8" cx="270.96" cy="556.15" r="10.96"/><path class="cls-2" d="M236.3,624.85a128.11,128.11,0,0,1,0-21.69c.92-11.06,3.8-26.4,12.32-36.64a31,31,0,0,1,22.3-11.37l.15,2a29.11,29.11,0,0,0-20.91,10.64c-8.18,9.85-11,24.76-11.86,35.54a125.48,125.48,0,0,0,0,21.31Z"/><circle class="cls-2" cx="271.63" cy="453.33" r="10.96"/><path class="cls-2" d="M237,518.55a115.51,115.51,0,0,1-.08-20.12c.86-10.3,3.6-24.64,11.74-34.5,5.75-7,13.47-10.87,22.92-11.6l.15,2c-8.89.68-16.13,4.34-21.53,10.88-15,18.13-11.26,52.76-11.22,53.11Z"/><rect class="cls-2" x="163.67" y="469.58" width="2" height="157.81"/><circle class="cls-2" cx="164.67" cy="469.58" r="10.96"/><path class="cls-2" d="M164.67,514.22S163.1,480.54,131,484.45"/><path class="cls-2" d="M165.66,624.49l-2-.22a123.42,123.42,0,0,0,0-21c-.89-10.61-3.64-25.31-11.75-35.07a29.24,29.24,0,0,0-21-10.69l.15-2A31.13,31.13,0,0,1,153.5,566.9c8.45,10.17,11.3,25.3,12.21,36.21A126.24,126.24,0,0,1,165.66,624.49Z"/><circle class="cls-2" cx="131" cy="556.48" r="10.96"/><circle class="cls-1" cx="766.59" cy="369.64" r="18"/><g class="cls-7"><path d="M576.12,500.94c-23,10.44-52.53,9.7-52.53,9.7h-32v-6.11c13-3.64,31.07-5.89,51-5.89A233.72,233.72,0,0,1,576.12,500.94Z"/></g><g class="cls-7"><path d="M614.59,518.64c0,11.05-32.24,20-72,20s-72-8.95-72-20c0-5.51,8-10.5,21-14.11v6.11h32s29.57.74,52.53-9.7C599,504.28,614.59,511,614.59,518.64Z"/></g><rect class="cls-9" x="521.15" y="394.11" width="30.63" height="30.69"/><path class="cls-10" d="M532.54,415.81s2.54,8.87-1.9,9.51a17.33,17.33,0,0,0-7.61,3.17l8.24,10.78h15.22l9.51-9.51s-12.68-9.51-10.15-15.22S532.54,415.81,532.54,415.81Z"/><g class="cls-7"><path d="M532.54,415.81s2.54,8.87-1.9,9.51a17.33,17.33,0,0,0-7.61,3.17l8.24,10.78h15.22l9.51-9.51s-12.68-9.51-10.15-15.22S532.54,415.81,532.54,415.81Z"/></g><polygon class="cls-10" points="536.34 526.11 550.92 531.18 561.07 531.82 560.43 522.94 539.51 516.76 536.34 526.11"/><path class="cls-11" d="M555,524.21s0,8.88,1.27,8.88,18.39-1.9,23.46,0,12.68-5.07,8.87-8.88-10-9.51-13.88-8.24S555,520.41,555,520.41Z"/><path class="cls-11" d="M508.45,516s-7.61,15.22-2.54,16.48,10.78-.63,11.42-1.26,9.5-3.17,10.77-1.91,1.27-5.07,1.27-5.07Z"/><path class="cls-11" d="M514.79,495.05s-12,16.48-3.17,20.92,51.35,4.44,54.52,0,4.44-18.38,0-19.65S514.79,495.05,514.79,495.05Z"/><g class="cls-12"><path d="M514.79,495.05s-12,16.48-3.17,20.92,51.35,4.44,54.52,0,4.44-18.38,0-19.65S514.79,495.05,514.79,495.05Z"/></g><circle class="cls-10" cx="537.61" cy="405.67" r="14.58"/><path class="cls-4" d="M514.79,428.49,527.47,426s3.17,10.15,13.31,8.24S553.46,426,553.46,426s7.61,3.17,8.24,3.17,8.88,3.17,8.88,5.07-9.51,20.92-9.51,20.92l1.26,34.24-46.91-1.27,3.17-33.6Z"/><path class="cls-10" d="M507.82,445s-3.81,33.6-1.27,36.13,12.68,9.51,12.68,9.51V483l-5.07-9.51,5.07-22.19Z"/><path class="cls-10" d="M573.43,444s-2.22,34.55-2.22,35.82-5.71,5.7-7.61,5.7-3.17-3.17-3.17-3.17l4.44-5.07-3.17-26Z"/><path class="cls-11" d="M567.41,492.52s28.52-15.85,29.16,0S582,514.7,582,514.7s-39.31,11.79-40.89,7.48-4.76-11.28-2.22-11.91,5.7-1.91,7-.64S563,500.12,563,500.12Z"/><g class="cls-12"><path d="M563.33,501.06l-.72-1.87c2.24-.86,8.36-3.41,9.79-4.85,2-2,7.67-4.53,7.91-4.64l.81,1.83c-1.54.68-5.85,2.78-7.3,4.23C571.82,497.75,564.19,500.72,563.33,501.06Z"/></g><path class="cls-4" d="M518.59,429.76l-3.8-1.27s-13.95,14.58-9.51,18.38,7,5.07,8.24,6.34,7.61,1.9,7.61,1.9Z"/><path class="cls-4" d="M564.87,432.93l5.71,1.26s4.43,9.51,5.7,10.78-1.9.63-3.8,3.17-3.81,7-7.61,7-8.87-6.34-8.87-6.34Z"/><path class="cls-11" d="M516.06,498.22S492,481.1,483.73,493.78s35.5,29.8,41.84,32.33,12,5.08,12,5.08,5.71-14,5.71-16.49-4.44-2.53-5.71-2.53-7-1.27-8.24-3.17S516.06,498.22,516.06,498.22Z"/><g class="cls-12"><path d="M521.54,505.07c-.07-.1-1.81-2.82-7-4-5.86-1.31-12.18-6.32-12.45-6.54l1.25-1.56c.06.05,6.23,4.94,11.64,6.15,6,1.34,8.16,4.75,8.24,4.89Z"/></g><path class="cls-13" d="M511.68,470l.51,26.84a3.37,3.37,0,0,0,3.4,3.3l49.95-.57a3.35,3.35,0,0,0,3.31-3.16l1.52-26.28a3.36,3.36,0,0,0-3.16-3.55H515a3.37,3.37,0,0,0-3.36,3.36Z"/><path class="cls-14" d="M505.91,428.65c1.36-3,3.19-5.82,4.06-9,1-3.81.63-7.84.51-11.79a37.11,37.11,0,0,1,.88-10.4,17.85,17.85,0,0,1,5.15-8.95c6.64-5.94,18.8-6.36,26.91-3.89,3.2,1,6.6,2.82,7.4,6.07.12.49.17,1,.3,1.48.67,2.42,3.14,3.95,4,6.29,1.16,3-.62,6.33-.85,9.57-.27,3.77,1.58,7.34,3.41,10.66,1.09,2,2.22,4.07,2.11,6.31a8,8,0,0,1-1.09,3.49,13.27,13.27,0,0,1-11.16,6.39,6.94,6.94,0,0,1-4.17-1c-2-1.36-2.56-4.1-2.15-6.47s1.61-4.51,2.55-6.72c.29-.68.55-1.37.79-2.07a14.18,14.18,0,1,0-9.35,1.59,19.27,19.27,0,0,1-.93,10.68,40.82,40.82,0,0,1-4.49,7.83,10.93,10.93,0,0,1-2.86,3.2,10.24,10.24,0,0,1-2.43,1c-3.58,1.15-7.35,2.07-11.08,1.56s-7.41-2.77-8.68-6.31C503.65,435.12,504.55,431.65,505.91,428.65Z"/><ellipse class="cls-14" cx="536.91" cy="397.48" rx="15.47" ry="8.77"/><g class="cls-3"><path class="cls-4" d="M773.32,370.68a2.66,2.66,0,0,0-1.23-1.35,4,4,0,0,0-1.11-.46,2.55,2.55,0,0,0,.72-.49,2.49,2.49,0,0,0,.67-1.05,3.64,3.64,0,0,0,.16-1.27,3.86,3.86,0,0,0-.58-2,3.56,3.56,0,0,0-1.64-1.22,5.82,5.82,0,0,0-2-.4v-2.88l-1.74,1.12v1.76H765.2v-1.85l-1.79-1v2.88h-3.79l1.22,2.17a1.82,1.82,0,0,1,.76.1.57.57,0,0,1,.28.27,2.34,2.34,0,0,1,.08.79v7.81a2.36,2.36,0,0,1-.08.79c-.06.11-.09.22-.22.28s-.14.06-.52.06h0l-1.52,2.16h3.79v2.89h1.78v-2.89h1.4v2.89h1.74v-2.91a8.21,8.21,0,0,0,2.59-.46,4.29,4.29,0,0,0,1.94-1.42,4.4,4.4,0,0,0,.69-2.31A5.2,5.2,0,0,0,773.32,370.68Zm-8.13-5.82h0v-.06h1.22c.68,0,3-.24,3,1.69s-3,1.85-3,1.85h-1.22v-.15h0Zm0,5.5h1.4c.28,0,1.25,0,1.61.06a1.56,1.56,0,0,1,.42.08l.15.06a2.13,2.13,0,0,1,.6.31,1.27,1.27,0,0,1,.31.3,2.18,2.18,0,0,1,.29.64,1.91,1.91,0,0,1,.06.48,1.55,1.55,0,0,1-.22.89,2.1,2.1,0,0,1-.94.8,5.75,5.75,0,0,1-2.28.44h-1.4Z"/></g><circle class="cls-1" cx="64.59" cy="432.64" r="18"/><g class="cls-3"><path class="cls-4" d="M71.32,433.68a2.66,2.66,0,0,0-1.23-1.35,4,4,0,0,0-1.11-.46,2.37,2.37,0,0,0,.71-.49,2.42,2.42,0,0,0,.68-1.05,3.64,3.64,0,0,0,.16-1.27,3.86,3.86,0,0,0-.58-2,3.56,3.56,0,0,0-1.64-1.22,5.82,5.82,0,0,0-2-.4v-2.88l-1.74,1.12v1.76H63.2v-1.85l-1.79-1v2.88H57.62l1.22,2.17a1.82,1.82,0,0,1,.76.1.57.57,0,0,1,.28.27,2.34,2.34,0,0,1,.08.79v7.81a2.36,2.36,0,0,1-.08.79c-.06.11-.09.22-.22.28s-.14.06-.52.06h0l-1.52,2.16h3.79v2.89h1.78v-2.89h1.4v2.89h1.74v-2.91a8.21,8.21,0,0,0,2.59-.46A4.29,4.29,0,0,0,70.86,438a4.49,4.49,0,0,0,.69-2.31A5.2,5.2,0,0,0,71.32,433.68Zm-8.13-5.82h0v-.06h1.22c.68,0,3-.24,3,1.69s-3,1.85-3,1.85H63.19v-.15h0Zm0,5.5h1.4c.28,0,1.25,0,1.61.06a1.56,1.56,0,0,1,.42.08l.15.06a2.13,2.13,0,0,1,.6.31,1.27,1.27,0,0,1,.31.3,2.18,2.18,0,0,1,.29.64,1.91,1.91,0,0,1,.06.48,1.55,1.55,0,0,1-.22.89,2.1,2.1,0,0,1-.94.8,5.75,5.75,0,0,1-2.28.44h-1.4Z"/></g></svg>