<svg id="Capa_1" data-name="Capa 1" xmlns="http://www.w3.org/2000/svg" viewBox="0 0 1245 780"><defs><style>.cls-1{fill:#f1f1f1;}.cls-2{fill:#00729a;}.cls-3{fill:#78b46d;}.cls-4{fill:#a9a9a9;}.cls-5{opacity:0.2;}.cls-5,.cls-7{isolation:isolate;}.cls-6{fill:#2e4e53;}.cls-7{opacity:0.1;}.cls-8{fill:#2d5053;}.cls-9{fill:#1d3d3d;}.cls-10{fill:#429488;}.cls-11{fill:#fff;}.cls-12{fill:#3e3b56;}.cls-13{fill:#36595e;}</style></defs><title>Imagenes</title><circle class="cls-1" cx="343.73" cy="232.47" r="232.13"/><path class="cls-2" d="M24.84,56.07c0,84.46,53,152.8,118.46,152.8"/><path class="cls-3" d="M143.3,208.87c0-85.4,59.13-154.51,132.2-154.51"/><path class="cls-3" d="M67.76,63.73c0,80.23,33.79,145.14,75.54,145.14"/><path class="cls-2" d="M143.3,208.87c0-109.13,68.35-197.43,152.8-197.43"/><path class="cls-4" d="M118.38,210s16.8-.52,21.86-4.12,25.85-7.91,27.1-2.13,25.25,28.76,6.28,28.91-44.07-3-49.12-6S118.38,210,118.38,210Z"/><g class="cls-5"><path d="M174,230.6c-19,.15-44.07-3-49.12-6-3.85-2.35-5.38-10.76-5.9-14.64l-.56,0s1.07,13.55,6.12,16.63,30.16,6.18,49.12,6c5.48,0,7.37-2,7.27-4.88C180.13,229.48,178,230.57,174,230.6Z"/></g><ellipse class="cls-6" cx="241.29" cy="462.96" rx="203.79" ry="27.72"/><g class="cls-7"><ellipse cx="241.29" cy="462.96" rx="171.1" ry="23.28"/></g><ellipse class="cls-8" cx="936.58" cy="720.16" rx="308.42" ry="41.96"/><ellipse class="cls-8" cx="363.34" cy="703.81" rx="185.27" ry="25.2"/><path class="cls-9" d="M583.35,689.6c-20.32,0-38.89-2-54.62-6l.54-2.11c45.59,11.65,115.36,5.87,182.08-15.1,67-21.08,114.54-52.59,123.93-82.25l2.08.66c-9.75,30.78-56.61,62.06-125.36,83.67C667.88,682.34,622.4,689.6,583.35,689.6Z"/><path class="cls-9" d="M493.85,558.29c-22.48-5.75-34-12.21-37.43-20.94-4.18-10.72,4.17-23.57,15.74-41.37,18.35-28.23,43.48-66.9,39.4-126.12-2.33-33.75-14.47-58.62-36.09-73.92-22.8-16.15-52.25-18.64-73-17.88a193.88,193.88,0,0,0-40,5.59l-.59-2.1a196.75,196.75,0,0,1,40.43-5.67c21-.77,51,1.77,74.33,18.27,22.19,15.7,34.64,41.12,37,75.56,4.13,59.94-21.23,99-39.75,127.46-11.21,17.25-19.31,29.71-15.54,39.39,3.09,7.9,14.51,14.14,35.94,19.62Z"/><path class="cls-9" d="M264.74,669.47c-7-1.79-10.65-3.87-11.77-6.75-1.4-3.59,1.2-7.59,4.8-13.13,5.46-8.39,12.93-19.89,11.72-37.44-.68-9.9-4.22-17.18-10.52-21.64-12.83-9.09-33.1-3.64-33.3-3.58l-.58-2.11c.87-.24,21.45-5.78,35.13,3.9,6.87,4.86,10.72,12.7,11.45,23.28,1.26,18.27-6.76,30.61-12.07,38.78-3.25,5-5.59,8.6-4.6,11.15.83,2.12,4.1,3.85,10.28,5.43Z"/><path class="cls-9" d="M873.48,614.16,864.89,669s-42.26,22.46-12.54,23.12,169.72,0,169.72,0,27.07,0-15.85-23.78l-8.59-57.45Z"/><g class="cls-7"><path d="M846.37,691.49c6.75-6,18.52-12.26,18.52-12.26l8.59-54.81,124.15.12,8.59,54c10,5.54,16.21,9.79,19.84,13,5.51-1.25,11.53-5.93-19.84-23.31l-8.59-57.45-124.15,3.3L864.89,669S829.38,687.84,846.37,691.49Z"/></g><rect class="cls-9" x="655.22" y="232.13" width="559.35" height="389.63" rx="19.67"/><rect class="cls-8" x="674.04" y="252.93" width="521.71" height="291.89"/><circle class="cls-1" cx="934.9" cy="243.69" r="3.3"/><path class="cls-9" d="M1214.57,567.94v34.15a19.67,19.67,0,0,1-19.66,19.67h-520a19.67,19.67,0,0,1-19.67-19.66h0V567.94Z"/><polygon class="cls-9" points="1080.84 727.75 1080.84 734.35 725.55 734.35 725.55 729.07 726.04 727.75 734.8 703.98 1073.58 703.98 1080.84 727.75"/><path class="cls-9" d="M1217.57,721.28c-.65,2.77-3.09,5.69-8.61,8.45-19.82,9.91-60.1-2.64-60.1-2.64s-31-5.28-31-19.15a24.08,24.08,0,0,1,2.72-1.62c8.33-4.41,36-15.28,84.92.46a20.37,20.37,0,0,1,9.31,6.1C1216.75,715.2,1218.31,718.15,1217.57,721.28Z"/><g class="cls-7"><path d="M1217.57,721.28c-24.25,9.3-45.87,10-68-5.42-11.19-7.76-21.35-9.69-29-9.54,8.33-4.41,36-15.28,84.92.46a20.37,20.37,0,0,1,9.31,6.1C1216.75,715.2,1218.31,718.15,1217.57,721.28Z"/></g><ellipse class="cls-1" cx="1187.16" cy="713.22" rx="8.59" ry="2.64"/><circle class="cls-1" cx="934.9" cy="595.01" r="12.55"/><g class="cls-7"><polygon points="1080.84 727.75 1080.84 734.35 725.55 734.35 725.55 729.07 726.04 727.75 1080.84 727.75"/></g><rect class="cls-9" x="143.2" y="173.62" width="226.68" height="263.73"/><rect class="cls-8" x="120.32" y="147.46" width="272.45" height="93.72"/><rect class="cls-8" x="120.32" y="258.62" width="272.45" height="93.72"/><rect class="cls-8" x="120.32" y="369.78" width="272.45" height="93.72"/><rect class="cls-2" x="320.84" y="163.81" width="17.44" height="17.44"/><rect class="cls-10" x="345.91" y="163.81" width="17.44" height="17.44"/><rect class="cls-3" x="370.97" y="163.81" width="17.44" height="17.44"/><rect class="cls-2" x="320.84" y="273.88" width="17.44" height="17.44"/><rect class="cls-10" x="345.91" y="273.88" width="17.44" height="17.44"/><rect class="cls-3" x="370.97" y="273.88" width="17.44" height="17.44"/><rect class="cls-2" x="320.84" y="383.95" width="17.44" height="17.44"/><rect class="cls-10" x="345.91" y="383.95" width="17.44" height="17.44"/><rect class="cls-3" x="370.97" y="383.95" width="17.44" height="17.44"/><circle class="cls-9" cx="369.88" cy="586.66" r="86.09"/><rect class="cls-9" x="330.65" y="654.22" width="26.16" height="46.86"/><rect class="cls-9" x="382.96" y="654.22" width="26.16" height="46.86"/><ellipse class="cls-9" cx="352.45" cy="701.63" rx="21.8" ry="8.17"/><ellipse class="cls-9" cx="404.76" cy="700.54" rx="21.8" ry="8.17"/><circle class="cls-11" cx="372.06" cy="564.86" r="29.42"/><circle class="cls-12" cx="372.06" cy="564.86" r="9.81"/><path class="cls-3" d="M286.37,506.59C279.42,475.46,301.64,444,336,436.32s67.86,11.35,74.81,42.48S395,521.42,360.63,529.09,293.32,537.72,286.37,506.59Z"/><ellipse class="cls-9" cx="445.31" cy="557.06" rx="43.05" ry="13.51" transform="translate(-183.27 220.16) rotate(-23.17)"/><ellipse class="cls-9" cx="284.02" cy="614.82" rx="43.05" ry="13.51" transform="translate(-219.01 161.35) rotate(-23.17)"/><path class="cls-11" d="M420,611.72c0,8.43-21.69,25.07-45.77,25.07s-46.86-15.55-46.86-24,22.79-6.54,46.86-6.54S420,603.3,420,611.72Z"/><rect class="cls-13" x="105.87" y="760.7" width="846.02" height="2"/></svg>