<svg id="Capa_1" data-name="Capa 1" xmlns="http://www.w3.org/2000/svg" xmlns:xlink="http://www.w3.org/1999/xlink" viewBox="0 0 1058 860"><defs><style>.cls-1{fill:none;}.cls-18,.cls-2{opacity:0.17;}.cls-3{fill:#78b46d;}.cls-4{fill:#6c63ff;}.cls-5{fill:#00729a;}.cls-6{fill:#444053;}.cls-7{fill:#d5d6db;}.cls-8{fill:#01617a;}.cls-27,.cls-9{opacity:0.1;}.cls-10,.cls-15,.cls-18,.cls-9{isolation:isolate;}.cls-10{opacity:0.3;}.cls-11{fill:#fff;}.cls-12{fill:#2d5053;}.cls-13{fill:#3a3768;}.cls-14{fill:#1d3d3d;}.cls-15{opacity:0.45;}.cls-16{opacity:0.13;}.cls-17{fill:#429488;}.cls-19{clip-path:url(#clip-path);}.cls-20{fill:gray;}.cls-21{fill:#be6f72;}.cls-22{fill:#3e373a;}.cls-23{fill:#4b4b5b;}.cls-24{fill:#38484c;}.cls-25{fill:#e7c7ca;}.cls-26{fill:#c3c7d9;}.cls-28{fill:#ffd037;}.cls-29{fill:#9d9cb5;}.cls-30{fill:#41968a;}</style><clipPath id="clip-path"><path class="cls-1" d="M739.39,391.65c-6.77-18.39-44-20.12-60.19-15.43-11.49,3.34-35.7,7.11-48.64,9l-.84-.8c1.68-.49,1.72-1.71,1.51-3.53a55.23,55.23,0,0,1,.11-7.16c7.92,2.47,15-3.36,15-3.36h0c9.31-4.14,6.81-21.86,8.59-26.7,1.33-3.62,2.77-25,3.41-35.6h.14l.07-3.57c.1-1.54.14-2.44.14-2.44s.91-26,2.69-31.28c1.65-4.85,3-29.25,3.21-33.12v-.51l-.14-2.25c.09-1.65.14-3.48.12-5.41,0-8.84-.92-20-1-21.79v-.94c.07-3.78-.4-22.7-16.5-29.85-5.93-2.65-13.06-5.8-20-8.88-1.78-15.36-5.85-30.65-5.49-46.13,0-2.33.2-4.66.43-7,0,.67-.07,1.35-.08,2.07v4.51c.61-19.37,7.93-38.83,7.24-57.78-.06,1.85-.19,3.72-.37,5.58a59.86,59.86,0,0,0-2-19c-.62-2.19-1.46-4.44-3.25-5.9a13.4,13.4,0,0,0-5.67-2.25A113.8,113.8,0,0,0,603,39.36a22.85,22.85,0,0,0-3.35-6.51c-10.5-14.4-26-27.94-44.42-31-9.22-1.55-19.83-.25-26.1,6.34A20.19,20.19,0,0,0,527.28,10c-3.37,4-4.82,9.31-8.28,13.33-.23.27-.48.52-.73.78-6.77,6.05-17.32,7.31-24.84,12.75a28.54,28.54,0,0,0-3.71,3.23A63,63,0,0,0,481.6,50c-3.38,4.76-6.86,9.71-7.94,15.4-2.16,11.38,5.59,22.17,7,33.63,3.21,25.63-25.16,48.38-19.79,73.67A33.81,33.81,0,0,0,470,189c-11.06,10-20.48,19.74-20.48,19.74v.58H447.8l.18,2.07h-.18l1,11.22-1,16.35v1.55h.07c.32,6,1.59,27.53,3.1,32.08,1.78,5.26,2.68,31.28,2.68,31.28s2,36.77,3.77,41.63-.76,22.53,8.59,26.7h0a19.59,19.59,0,0,0,9.38,3.89c-.47,3.87-.17,6.68,1.37,7.56a4.5,4.5,0,0,0,2.17.62,22.64,22.64,0,0,0-1.68,2.95,44,44,0,0,1-10.85-2.56c-10-4.14-43.35-13.45-53-6.9s-33,12.49-22.2,38.86,15.76,27,15.76,27a38.32,38.32,0,0,1,8.6,8.64c3.23,4.85,33.31,16,40.83,16a74.54,74.54,0,0,1,9.57.47s-8.16,7.17-7.07,11.33-2.49,37.46-2.49,37.46,8.28,8.34,11.82-2.6l.12.17c.67.9,4.25,5,11-.17a61.93,61.93,0,0,1,8.76-5.55l32.62-4.61a91.52,91.52,0,0,1,10.21-.07c5.18.42,10.26-2.64,13.46-5,6.75,2.56,14.35,5.37,18,6.39,7.33,2.07,41,11.11,48.88,8.28a11,11,0,0,0,4.24-3l7.51.24-3.52.7,16.17.24-.39.23,11.68-.11c17.09.16,36.3.21,38.83-.36,3.95-.88,24.49-.26,30.55,0h1.68s22.57-4.5,13.26-27.4C724,467.31,702,462.19,692.25,460.79c2.75-.55,5.12-1,6.69-1.23,6.82-1,20.07-7.24,21.15-9.36s12.18-8.28,15-11.79S746.18,410,739.39,391.65ZM552.44,443.11l-1.11.36-.74.25-1.43,1.41c-1.14-.77-2.36-1.57-3.63-2.4C547.77,442.86,550.08,443,552.44,443.11Zm98.63,29.16Z"/></clipPath></defs><title>Imagenes</title><g class="cls-2"><path class="cls-3" d="M620.27,143.41c-67-2.32-130.77-23.94-191.68-47.6S307.34,45.94,242,33.41c-42.05-8.06-90.14-9.2-124,13.34-32.61,21.73-43.14,59.14-48.8,93.89-4.26,26.14-6.77,53.65,4.91,78.12,8.11,17,22.5,31.28,32.45,47.61C141.15,323,116.68,392.83,79.15,448.12c-17.6,25.94-38,50.71-51.61,78.3s-19.87,59.24-8,87.41c11.78,27.94,39.86,48.89,70.26,63.63,61.78,30,134.54,38.53,205.54,43.39,157.12,10.75,315.07,6.09,472.61,1.43,58.3-1.72,116.85-3.47,174.21-12.49,31.85-5,64.73-12.94,87.86-32.13,29.34-24.35,36.62-65.59,17-96.12-33-51.21-124.19-63.93-147.28-118.9-12.69-30.25.35-63.95,18.79-92,39.57-60.19,105.9-113,109.39-181.8,2.4-47.26-29.49-94.57-78.79-116.93C897.43,48.37,825.75,51.35,787.65,90.15,748.39,130.13,679.41,145.46,620.27,143.41Z"/></g><polygon class="cls-4" points="450.13 715.77 95.92 714.05 60.73 631.5 185.18 622.46 163.49 531.95 409.64 500.05 173.93 418.11 194.75 413.16 573.77 474.99 552.89 616.24 523.06 693.87 450.13 715.77"/><path class="cls-4" d="M101.35,679.47s21.74-3.48,34.77,11.88c0,0-9.56,7.54-30.13-2.9Z"/><path class="cls-4" d="M99.08,679.13S85.21,696.2,92,715.2c0,0,11.3-4.53,12.53-27.56Z"/><path class="cls-4" d="M86.62,651.08s8.69-16,43.46,6.37c0,0-4.64,10.72-20,9.85S90.67,659.48,86.62,651.08Z"/><path class="cls-4" d="M84.37,649.93s-18-2.07-19.79,39.22c0,0,11.44,2.37,19.56-10.69S88.94,658.07,84.37,649.93Z"/><path class="cls-5" d="M73.87,617s10.14-28.11,46.94-8.12c0,0-8.4,25.79-43.18,17.68Z"/><path class="cls-5" d="M62.57,575s19.12-28.39,53-2.07c0,0-11.88,26.66-50.13,12.17Z"/><path class="cls-5" d="M58.51,535s22.31-26.08,55.88,0c0,0-21.15,22.9-55.88,6.67Z"/><path class="cls-5" d="M55,496.15s22.6-27.24,54.77-1.45c0,0-25.5,24.05-54.77,7.82Z"/><path class="cls-5" d="M57.06,461.67s23.8-35.07,53.9-11.31c0,0-25.5,30.14-53.9,18Z"/><path class="cls-5" d="M62.57,421.39s25.21-34.77,54.47-8.11c0,0-29.84,30.13-54.47,14.48Z"/><path class="cls-5" d="M71,385.39s29.85-32.69,55.88-19.67c0,0-31.1,34.71-57.18,28.34Z"/><path class="cls-5" d="M81.4,351.26s34.44-40,54.48-26.66c0,0-25.38,31-56.92,34.15Z"/><path class="cls-5" d="M96.46,311.67S126.6,279,148.63,287.11c0,0-25.79,33.9-56.22,34.77Z"/><path class="cls-5" d="M110.09,274.65s33.32-31.3,47.81-25.79c0,0-24.05,34.77-49.26,32.74Z"/><path class="cls-5" d="M123.42,240.45S152.1,203.06,167.76,206c0,0-17.4,33.33-44.34,38.29Z"/><path class="cls-5" d="M137.88,194.35s25.36-28.65,39.06-28.59c0,0-20,38.29-40.1,37.94Z"/><path class="cls-5" d="M146.45,163.66,171,104s1.22,53.95-27.61,70.76Z"/><path class="cls-5" d="M156.4,97.83s4-49.85,1.45-53.91c0,0,17.51,41.45-1.62,75.93Z"/><path class="cls-5" d="M72.92,616.32s-25.4-15.74-41.84,22.77c0,0,22.6,15,44.83-12.94Z"/><path class="cls-5" d="M61.75,573.37s-31.15-14.21-46.26,26c0,0,24.06,16.56,49.09-15.83Z"/><path class="cls-5" d="M57.06,537.38s-22.31-26.09-55.88,0c0,0,21.15,22.89,55.88,6.66Z"/><path class="cls-5" d="M54.27,496.15S31.67,468.91-.5,494.7c0,0,25.5,24.05,54.77,7.82Z"/><path class="cls-5" d="M57.06,462.66S41.21,423.39,6.75,440.27c0,0,18.62,34.83,48.9,28.91Z"/><path class="cls-5" d="M64.56,421.19s-15.76-39.95-50.7-21.43c0,0,21.4,36.62,49.15,27.6Z"/><path class="cls-5" d="M74.33,385.58s-6.21-43.8-35.18-47.73c0,0,6.15,46.2,31.28,55.63Z"/><path class="cls-5" d="M82.14,351.34s-2.43-52.78-26.38-54.62c0,0,.8,40.06,23.68,62.09Z"/><path class="cls-5" d="M98.94,310.19s-7.14-43.89-30-49.25c0,0,2.84,42.51,27.75,60Z"/><path class="cls-5" d="M112.8,275s-.24-45.72-14.21-52.44c0,0-8.66,41.4,10.16,58.27Z"/><path class="cls-5" d="M124.48,239.94s-2-47.08-16.42-53.71c0,0-5,37.25,14.26,56.79Z"/><path class="cls-5" d="M139.9,198.11s-.08-38.29-10.41-47.28c0,0-10.26,41.95,5,55Z"/><path class="cls-5" d="M145.24,161.77,135.19,98.05s-13.65,52.22,10.53,75.23Z"/><path class="cls-5" d="M147.2,98.43s-25.79-42.84-25.26-47.6c0,0,2.74,44.9,35.18,67.26Z"/><path class="cls-5" d="M150.22,85.77S125.88,24.92,114.87,20c0,0,34.77,17.67,37.38,64Z"/><path class="cls-6" d="M136.71,204.06l-1.66-.51c20.54-67,25.66-109.69,14.43-120.41l1.19-1.26C162.59,93.18,157.75,135.43,136.71,204.06Z"/><path class="cls-6" d="M80.15,360.9,77.69,360c2.18-6.14,4.53-12.37,7-18.5,21.44-53.44,39.7-103.16,51.4-141.32l2.15-1C126.5,237.4,108.57,289,87.1,342.53,84.65,348.56,82.31,354.75,80.15,360.9Z"/><path class="cls-6" d="M132,729.6c-.33-.36-33.62-37.85-56.83-101.86A376.74,376.74,0,0,1,52.72,511c-1.6-49.81,8.85-105.42,26.76-155.94l1.94,2.27c-40.19,113.39-24.22,210.55-3,269.07,23,63.42,55.88,100.5,56.2,100.87Z"/><path class="cls-7" d="M652.22,650s-23.46,28.63-4.83,71.92L460.08,803.16l-18,3.77-8.28-36.22L439.36,725V700Z"/><polygon class="cls-4" points="60.73 631.5 319.98 584.23 663.5 638.96 450.13 715.77 60.73 631.5"/><polygon class="cls-5" points="60.73 631.5 319.98 584.23 663.5 638.96 450.13 715.77 60.73 631.5"/><path class="cls-4" d="M60.72,631.49s-24.24,45.93,3.7,88.36l384.45,83.31S425,766.57,450.1,715.77Z"/><path class="cls-8" d="M60.72,631.49s-24.24,45.93,3.7,88.36l384.45,83.31S425,766.57,450.1,715.77Z"/><g class="cls-9"><path d="M72.18,647.41s-13.86,33.61,0,55.37"/></g><path class="cls-8" d="M448.87,803.16,663.5,711.57s12,2.59,4.24,11.39S453,812,453,812L64.42,719.85Z"/><g class="cls-9"><path d="M448.87,803.16,663.5,711.57s12,2.59,4.24,11.39S453,812,453,812L64.42,719.85Z"/></g><g class="cls-9"><path d="M431.28,725s-20.7,24.83,0,62.09"/></g><g class="cls-9"><rect x="436.29" y="740.07" width="97.87" height="1.03" transform="translate(-209.44 191.63) rotate(-18.45)"/></g><g class="cls-9"><rect x="434.9" y="742.68" width="119.25" height="1.03" transform="translate(-231.87 224.3) rotate(-20.82)"/></g><g class="cls-9"><rect x="434.28" y="747.52" width="138.22" height="1.03" transform="translate(-245.85 246.44) rotate(-22.26)"/></g><g class="cls-9"><rect x="433.89" y="749.59" width="159.1" height="1.03" transform="translate(-263.28 277.88) rotate(-24.31)"/></g><g class="cls-9"><rect x="434.8" y="751.72" width="174.01" height="1.03" transform="translate(-257.6 271.96) rotate(-23.61)"/></g><g class="cls-9"><rect x="435.95" y="752.36" width="208.23" height="1.03" transform="translate(-254.25 275.85) rotate(-23.36)"/></g><g class="cls-10"><polygon class="cls-11" points="157.04 636.55 339.17 598.26 450.13 619.47 300.88 667.59 157.04 636.55"/></g><path class="cls-8" d="M663.5,639s9.42,3.8,3.89,9.66S450.1,715.77,450.1,715.77Z"/><path class="cls-7" d="M755,550.47s-23.45,28.62-4.82,71.92L562.84,703.63l-18,3.78-8.28-36.22,5.62-45.7v-25Z"/><polygon class="cls-12" points="163.49 531.95 422.73 484.7 766.26 539.42 552.89 616.24 163.49 531.95"/><path class="cls-13" d="M163.44,532s-24.25,45.94,3.69,88.37l384.45,83.31s-23.85-36.63,1.27-87.4Z"/><path class="cls-14" d="M163.44,532s-24.25,45.94,3.69,88.37l384.45,83.31s-23.85-36.63,1.27-87.4L431.28,589.92Z"/><g class="cls-9"><path d="M174.93,547.88s-13.84,33.6,0,55.36"/></g><path class="cls-14" d="M551.62,703.63,766.26,612s12,2.59,4.23,11.38-214.73,89-214.73,89l-388.59-92.1Z"/><g class="cls-9"><path d="M551.62,703.63,766.26,612s12,2.59,4.23,11.38-214.73,89-214.73,89l-388.59-92.1Z"/></g><g class="cls-9"><path d="M534,625.49s-20.7,24.84,0,62.1"/></g><g class="cls-9"><rect x="539.05" y="640.54" width="97.87" height="1.03" transform="translate(-172.66 219.03) rotate(-18.45)"/></g><g class="cls-9"><rect x="537.68" y="643.16" width="119.25" height="1.03" transform="translate(-189.78 254.33) rotate(-20.82)"/></g><g class="cls-9"><rect x="537.04" y="647.98" width="138.22" height="1.03" transform="translate(-200.48 277.94) rotate(-22.26)"/></g><g class="cls-9"><rect x="536.66" y="650.06" width="159.1" height="1.03" transform="translate(-213.19 311.36) rotate(-24.31)"/></g><g class="cls-9"><rect x="537.56" y="652.16" width="174.01" height="1.03" transform="translate(-209.12 304.78) rotate(-23.61)"/></g><g class="cls-9"><rect x="538.71" y="652.81" width="208.23" height="1.03" transform="translate(-206.36 308.44) rotate(-23.36)"/></g><g class="cls-15"><polygon class="cls-11" points="259.8 537.01 441.94 498.72 552.89 519.94 403.65 568.06 259.8 537.01"/></g><path class="cls-14" d="M766.26,539.42s9.41,3.8,3.89,9.66-217.26,67.15-217.26,67.15Z"/><path class="cls-7" d="M764.7,436.6s-23.46,51.4-4.83,94.69L572.56,589.76l-17.94,3.8-8.28-36.22,5.54-45.71v-25Z"/><polygon class="cls-5" points="173.25 418.1 432.5 370.84 776.03 425.56 562.65 502.38 173.25 418.1"/><path class="cls-4" d="M173.25,418.09S149,464,176.9,506.45l384.45,83.31s-23.87-36.62,1.26-87.38Z"/><path class="cls-8" d="M173.25,418.09S149,464,176.9,506.45l384.45,83.31s-23.87-36.62,1.26-87.38Z"/><g class="cls-9"><path d="M184.7,434s-13.86,33.62,0,55.37"/></g><path class="cls-8" d="M561.39,589.76,776,520.94s12,2.59,4.24,11.39-214.73,66.23-214.73,66.23L176.94,506.45Z"/><g class="cls-9"><path d="M561.39,589.76,776,520.94s12,2.59,4.24,11.39-214.73,66.23-214.73,66.23L176.94,506.45Z"/></g><g class="cls-9"><path d="M543.8,511.63s-20.7,24.83,0,62.09"/></g><g class="cls-9"><rect x="548.82" y="526.68" width="97.87" height="1.03" transform="translate(-136.12 216.27) rotate(-18.45)"/></g><g class="cls-9"><rect x="547.44" y="529.29" width="119.25" height="1.03" transform="translate(-148.67 250.37) rotate(-20.82)"/></g><g class="cls-9"><rect x="546.79" y="534.12" width="138.22" height="1.03" transform="translate(-156.62 273.15) rotate(-22.26)"/></g><g class="cls-9"><rect x="546.43" y="536.19" width="159.1" height="1.03" transform="translate(-165.44 305.29) rotate(-24.31)"/></g><g class="cls-9"><rect x="547.33" y="538.31" width="174.01" height="1.03" transform="translate(-162.71 299.16) rotate(-23.61)"/></g><g class="cls-9"><rect x="548.49" y="538.96" width="208.23" height="1.03" transform="translate(-160.41 302.98) rotate(-23.36)"/></g><g class="cls-10"><polygon class="cls-11" points="269.56 423.15 451.69 384.86 562.65 406.07 413.4 454.19 269.56 423.15"/></g><path class="cls-8" d="M776,425.56s9.42,3.8,3.89,9.66-217.26,67.16-217.26,67.16Z"/><path class="cls-5" d="M320.74,111.42s-39.32-2.37-34.73,25.22c0,0-.92,4.87,3.5,7.09,0,0,.07-2.07,4-1.36a18,18,0,0,0,4.28.21,9,9,0,0,0,5.23-2.16h0s11.06-4.57,15.37-22.66c0,0,3.18-3.94,3.1-5l-6.66,2.84s2.26,4.79.48,8.77c0,0-.22-8.59-1.5-8.4-.26,0-3.44,1.67-3.44,1.67s3.9,8.35.95,14.41c0,0,1.12-10.28-2.18-13.81L304.51,121s4.56,8.62,1.47,15.66c0,0,.79-10.8-2.46-15L299.28,125s4.3,8.5,1.68,14.34c0,0-.34-12.57-2.59-13.52,0,0-3.72,3.27-4.27,4.62,0,0,2.93,6.21,1.1,9.42,0,0-1.1-8.37-2.07-8.41,0,0-3.69,5.55-4.07,9.32a20.18,20.18,0,0,1,3.17-9.88,11.13,11.13,0,0,0-5.65,2.93s.57-3.92,6.57-4.26c0,0,3.06-4.21,3.87-4.46,0,0-6-.51-9.58,1.09,0,0,3.19-3.69,10.67-2.07l4.14-3.41s-7.84-1-11.18.11c0,0,3.84-3.27,12.31-.89l4.56-2.72s-6.69-1.44-10.68-.92c0,0,4.2-2.27,12,.19l3.25-1.46s-4.9-1-6.34-1.12-1.51-.55-1.51-.55a17.05,17.05,0,0,1,9.21,1S320.88,111.85,320.74,111.42Z"/><g class="cls-16"><path class="cls-17" d="M874,224.82s-39.33-2.37-34.73,25.22c0,0-.92,4.87,3.5,7.09,0,0,.07-2.07,4-1.36a18.15,18.15,0,0,0,4.29.21,8.87,8.87,0,0,0,5.17-2.16h0s11.07-4.57,15.37-22.66c0,0,3.19-3.94,3.1-5L868.07,229s2.27,4.79.49,8.77c0,0-.22-8.59-1.49-8.4-.26,0-3.46,1.67-3.46,1.67s3.9,8.35,1,14.41c0,0,1.12-10.28-2.18-13.81l-4.68,2.73s4.56,8.62,1.47,15.66c0,0,.8-10.8-2.45-15l-4.23,3.31s4.28,8.5,1.66,14.34c0,0-.34-12.57-2.59-13.52,0,0-3.7,3.27-4.27,4.62,0,0,2.94,6.21,1.12,9.42,0,0-1.12-8.37-2.07-8.41,0,0-3.7,5.55-4.08,9.31a20.1,20.1,0,0,1,3.19-9.87,11.16,11.16,0,0,0-5.66,2.93s.58-3.92,6.57-4.26c0,0,3-4.21,3.87-4.47,0,0-6-.5-9.58,1.1,0,0,3.18-3.69,10.67-2.07l4.14-3.41s-7.86-1-11.18.11c0,0,3.83-3.27,12.3-.89l4.56-2.72s-6.7-1.44-10.68-.92c0,0,4.2-2.27,12,.19l3.26-1.46s-4.9-1-6.34-1.12-1.51-.55-1.51-.55a16.88,16.88,0,0,1,9.21,1S874.1,225.25,874,224.82Z"/></g><g class="cls-16"><path class="cls-17" d="M387,281.86s-17.13-35.53-39-18c0,0-4.71,1.57-4.48,6.51,0,0,1.81-.94,3.11,2.87a18.47,18.47,0,0,0,1.9,3.83,9,9,0,0,0,4.44,3.51h0s9.39,7.44,27.28,2.36c0,0,5,.86,5.81.26l-5.71-4.42s-3.1,4.32-7.43,4.7c0,0,7.41-4.38,6.61-5.39-.16-.21-3.1-2.2-3.1-2.2s-5.39,7.48-12.12,7.86c0,0,9.52-4,11-8.64l-4.65-2.75s-5.31,8.19-13,8.92c0,0,9.81-4.57,11.89-9.45l-5-2.07s-5.33,7.89-11.7,8.46c0,0,10.8-6.43,10.53-8.86,0,0-4.66-1.64-6.11-1.48,0,0-4,5.57-7.68,5.57,0,0,6.76-5.06,6.34-5.87,0,0-6.64-.52-10.14,1a20.11,20.11,0,0,1,10.17-2.07,11.15,11.15,0,0,0-5.32-3.51s3.71-1.4,6.93,3.66c0,0,5.17.61,5.78,1.2,0,0-2.47-5.45-5.63-7.82,0,0,4.78,1,7,8.28l5,2s-2.89-7.37-5.55-9.7c0,0,4.72,1.75,6.78,10.35l4.59,2.65s-2-6.55-4.4-9.77c0,0,4,2.57,5.7,10.58l2.86,2.13s-1.55-4.75-2.07-6.07-.26-1.6-.26-1.6a17,17,0,0,1,3.61,8.54S386.6,282.17,387,281.86Z"/></g><g class="cls-16"><path class="cls-17" d="M784.13,174.63s-17.12-35.53-39-18c0,0-4.7,1.57-4.48,6.51,0,0,1.82-.93,3.1,2.87a18.06,18.06,0,0,0,1.92,3.83,8.78,8.78,0,0,0,4.43,3.51h0s9.39,7.43,27.28,2.37c0,0,5,.85,5.82.25l-5.68-4.43s-3.1,4.33-7.42,4.71c0,0,7.4-4.39,6.6-5.4-.16-.21-3.1-2.21-3.1-2.21s-5.38,7.49-12.12,7.87c0,0,9.53-4,11-8.63l-4.73-2.73s-5.3,8.18-12.95,8.92c0,0,9.81-4.58,11.9-9.46l-5-2.07s-5.33,7.89-11.69,8.45c0,0,10.79-6.42,10.52-8.84,0,0-4.66-1.65-6.1-1.48,0,0-4,5.56-7.69,5.56,0,0,6.76-5.06,6.35-5.88,0,0-6.64-.51-10.15,1a20.11,20.11,0,0,1,10.17-2.07,11.13,11.13,0,0,0-5.31-3.51s3.71-1.41,6.93,3.65c0,0,5.17.63,5.78,1.22,0,0-2.47-5.46-5.64-7.83,0,0,4.78,1,7,8.33l5,2s-2.88-7.38-5.54-9.71c0,0,4.72,1.75,6.77,10.35l4.6,2.65s-2-6.54-4.41-9.77c0,0,4,2.57,5.69,10.58l2.87,2.13s-1.54-4.75-2.07-6.08-.26-1.58-.26-1.58a17,17,0,0,1,3.59,8.54S783.81,175,784.13,174.63Z"/></g><g class="cls-16"><path class="cls-17" d="M838.87,350.36s-17.13-35.54-39-18c0,0-4.69,1.57-4.48,6.51,0,0,1.82-.93,3.11,2.86a18.07,18.07,0,0,0,1.9,3.84,8.87,8.87,0,0,0,4.43,3.51h0s9.4,7.44,27.29,2.37c0,0,5,.86,5.82.25l-5.72-4.42s-3.1,4.33-7.43,4.71c0,0,7.4-4.39,6.61-5.4-.17-.21-3.11-2.21-3.11-2.21s-5.38,7.49-12.12,7.88c0,0,9.53-4.05,11-8.64l-4.66-2.75s-5.3,8.19-13,8.92c0,0,9.81-4.58,11.9-9.46l-5-2.07s-5.33,7.88-11.69,8.45c0,0,10.8-6.42,10.53-8.86,0,0-4.66-1.64-6.11-1.48,0,0-4,5.57-7.69,5.57,0,0,6.77-5.06,6.35-5.88,0,0-6.64-.51-10.15,1A20.17,20.17,0,0,1,807.92,335a11,11,0,0,0-5.31-3.51s3.7-1.42,6.92,3.65c0,0,5.17.61,5.78,1.2,0,0-2.47-5.44-5.63-7.82,0,0,4.78,1,7,8.33l5,2s-2.89-7.38-5.55-9.7c0,0,4.72,1.74,6.77,10.35l4.6,2.64s-2-6.54-4.41-9.77c0,0,4,2.57,5.71,10.59l2.86,2.07s-1.55-4.75-2.07-6.08-.25-1.58-.25-1.58a17,17,0,0,1,3.59,8.54S838.55,350.67,838.87,350.36Z"/></g><g class="cls-2"><ellipse class="cls-3" cx="208.49" cy="810.04" rx="23.79" ry="2.66"/></g><g class="cls-2"><ellipse class="cls-3" cx="52.53" cy="764.84" rx="23.79" ry="2.66"/></g><g class="cls-2"><ellipse class="cls-3" cx="327.38" cy="840.06" rx="23.79" ry="2.66"/></g><g class="cls-18"><ellipse class="cls-3" cx="936.6" cy="774.67" rx="23.79" ry="2.66"/></g><g class="cls-18"><ellipse class="cls-3" cx="738.62" cy="761.76" rx="23.79" ry="2.66"/></g><g class="cls-18"><ellipse class="cls-3" cx="610.55" cy="822.53" rx="28.14" ry="4.83"/></g><path class="cls-5" d="M623.1,774S583.92,794.2,604.16,818c0,0,1.9,5.17,7.41,4.81,0,0-1.1-2,3.1-3.61a20,20,0,0,0,4.24-2.25,9.85,9.85,0,0,0,3.78-5.06h0s8-10.72,1.81-30.56c0,0,.8-5.6.1-6.52l-4.76,6.53s4.91,3.31,5.48,8.16c0,0-5.17-8.14-6.21-7.24-.22.18-2.36,3.57-2.36,3.57s8.53,5.78,9.16,13.29c0,0-4.8-10.52-10-12l-3,5.3s9.31,5.67,10.35,14.2c0,0-5.42-10.82-10.94-13l-2.19,5.6s9,5.71,9.81,12.81c0,0-7.51-11.87-10.21-11.5,0,0-1.7,5.26-1.47,6.88,0,0,6.34,4.25,6.46,8.42,0,0-5.86-7.4-6.76-6.92,0,0-.37,7.44,1.43,11.31,0,0-3.11-5.52-2.6-11.31a12.52,12.52,0,0,0-3.76,6.05s-1.68-4.09,3.87-7.86c0,0,.53-5.78,1.17-6.5,0,0-6,2.94-8.56,6.54,0,0,.94-5.37,9.09-8l2.07-5.67s-8.15,3.46-10.67,6.5c0,0,1.81-5.33,11.31-7.89l2.82-5.17s-7.25,2.44-10.79,5.17c0,0,2.75-4.58,11.66-6.69l2.28-3.26s-5.25,1.87-6.72,2.55-1.76.34-1.76.34a19,19,0,0,1,9.43-4.29S623.46,774.31,623.1,774Z"/><g class="cls-19"><rect class="cls-20" x="545.53" y="442.73" width="6.91" height="2.4"/><rect class="cls-20" x="380.41" y="520.59" width="365.77" height="5.3"/><rect class="cls-20" x="380.41" y="240.13" width="365.77" height="280.46"/><rect class="cls-20" x="380.41" y="1.21" width="365.77" height="238.91"/><rect class="cls-20" x="380.41" y="0.25" width="365.77" height="0.96"/></g><path class="cls-21" d="M618.42,334s15.83,41.4,24.84,37.26,6.56-21.73,8.28-26.55,3.62-41.4,3.62-41.4.87-25.87,2.59-31.11c1.59-4.81,2.88-29.08,3.1-32.9v-.5l-1.71-30-9.66-2.41-22.42,8.27L624,232.37l-1.21,6.92-.52,3Z"/><g class="cls-9"><path d="M623.64,327.06s15.11,12.37,19.66,13.45,7.35,10.74,7.35,10.74"/></g><path class="cls-21" d="M494.6,335.81s-15.83,41.39-24.84,37.25-6.56-21.73-8.28-26.55-3.62-41.4-3.62-41.4S457,279.24,455.28,274c-1.6-4.81-2.89-29.08-3.11-32.89v-.51l1.72-30,9.66-2.41L486,216.46l3.1,17.72,1.21,6.93.52,2.95Z"/><rect class="cls-22" x="562.36" y="114.28" width="35.34" height="55.09"/><g class="cls-9"><rect x="562.36" y="114.28" width="35.34" height="55.09"/></g><path class="cls-23" d="M488.39,377s-12.08,13.28-7.6,15.69,33.47,47.61,33.47,47.61,95.21,11.72,113.16-5.87,17.6-49,17.6-49-14.43,3.1-16,1.42S618.8,377,618.8,377,496.67,369.62,488.39,377Z"/><path class="cls-24" d="M488.39,377s-12.08,13.28-7.6,15.69,33.47,47.61,33.47,47.61,95.21,11.72,113.16-5.87,17.6-49,17.6-49-14.43,3.1-16,1.42S618.8,377,618.8,377,496.67,369.62,488.39,377Z"/><path class="cls-21" d="M659.78,209.21l-31,24.84-9.39.68-3.44.25L558,239.22l-60-4.39-8.93-.65-11.38-.83-23.8-22.76s16.85-18.05,31.6-30.23c5.82-4.81,11.31-8.7,15.32-10.24l.68-.23a17,17,0,0,0,6.56-4.58c11.66-12,22.43-41.66,22.43-41.66s51.4-26.56,45.19,8.28,23.11,26.22,23.11,26.22l9.66,4.41,3.82,1.75,9.74,4.46,22,10.08C661.21,186.79,659.78,209.21,659.78,209.21Z"/><g class="cls-9"><circle cx="555.62" cy="105.79" r="46.23"/></g><g class="cls-9"><path d="M659.86,242.14H452.17v-.51l1.72-30s16.85-18.05,31.6-30.23l130.4-5.17,6.06-6.4,22,10.08c17.25,7.93,15.86,30.36,15.86,30.36S662.14,236.24,659.86,242.14Z"/></g><path class="cls-25" d="M659.86,241.11H452.17v-.51l1.72-30s16.85-18.05,31.6-30.23l130.4-5.17,6.06-6.4,22,10.08c17.25,7.93,15.86,30.35,15.86,30.35S662.14,235.21,659.86,241.11Z"/><g class="cls-9"><path d="M522.32,157s32.77,41.75,76.41-.86,4.83,95,4.83,95L509.39,262.3Z"/></g><path class="cls-25" d="M522.32,159s32.77,41.75,76.41-.86,4.83,95,4.83,95l-94.17,11.18Z"/><g class="cls-9"><path d="M612.21,166.35l3.47,52.87,3.71,17.59,2.84,13.45s7.24,103.49,5.17,108.66,1,9.32,1.47,12.07-.43,9.67-.09,12.77,0,4.48-7.93,3.37-19-3-19-3-27.94,2.07-37.59-1.37-27.94-3.46-27.94-3.46-27.6.69-36.57-.34-13.8,11-19.66,7.58,6.89-36.9,11-46.56-5.51-34.16-5.51-34.16l12.42-68.89,2.76-15.61v-49.1l.68-.23a17,17,0,0,0,6.56-4.58l3.11,49.41,97.27,3.45v-55.6"/></g><path class="cls-25" d="M612.21,164.28l3.47,52.87,3.71,17.59,2.84,13.45s7.24,103.49,5.17,108.66,1,9.32,1.47,12.07-.43,9.67-.09,12.77,0,4.48-7.93,3.37-19-3-19-3-27.94,2.07-37.59-1.37-27.94-3.46-27.94-3.46-27.6.69-36.57-.34-13.8,11-19.66,7.58,6.89-36.9,11-46.56-5.51-34.15-5.51-34.15l12.42-68.9,2.76-15.61v-49.1l.68-.23a17,17,0,0,0,6.56-4.58l3.11,49.41,97.27,3.45v-55.6"/><g class="cls-9"><path d="M623.4,53.94c-.59-2.16-1.41-4.41-3.11-5.86a12.66,12.66,0,0,0-5.46-2.23,107.93,107.93,0,0,0-14.36-2.75,23,23,0,0,0-3.11-6.45c-10.14-14.32-25.15-27.83-42.8-30.88-9.24-1.61-19.95-.17-25.87,7.12-3.25,4-4.65,9.31-7.93,13.24-6.32,7.64-17.74,8.58-25.7,14.49-4.26,3.11-7.34,7.61-10.35,12-3.26,4.73-6.62,9.65-7.65,15.3-2.07,11.29,5.39,22,6.77,33.45,3.1,25.49-24.22,48.1-19.05,73.25,3,14.66,16.55,25,30.56,30.22,4.94,1.86,10.58,3.7,12.89,8.44,1,2.07,1.21,4.46,2.18,6.55,3.27,7,14,7.24,19.8,2.16s7.6-13.3,8.28-21c2.77-33.48-10.64-66.57-9.08-100.14.47-10.15,3.32-21.67,12.42-26.26,12.24-6.21,27,4.14,40.44,2.16a80.2,80.2,0,0,1,3.87,49c-2.14,8.93-5.84,17.59-6.11,26.8-.41,14,7.16,26.84,13.7,39.23a20.92,20.92,0,0,1,2.76,7.57,18.06,18.06,0,0,1-1.48,7.91c-3.69,10-10.07,19.18-10.79,29.77a4.83,4.83,0,0,0,.77,3.54,4.46,4.46,0,0,0,2.67,1.2c11.18,1.91,20.85-8,26.3-17.94a84.12,84.12,0,0,0,10.37-35.72c1.13-21.07-6.43-41.8-6-62.89C618.91,101.21,629.74,77.07,623.4,53.94Z"/></g><path class="cls-22" d="M624.43,52.91c-.59-2.17-1.4-4.41-3.1-5.86a12.79,12.79,0,0,0-5.47-2.24,107.63,107.63,0,0,0-14.36-2.75,23.13,23.13,0,0,0-3.1-6.45C588.25,21.29,573.25,7.79,555.59,4.73c-9.24-1.6-20-.16-25.87,7.12-3.25,4-4.64,9.32-7.92,13.25-6.33,7.64-17.74,8.58-25.71,14.49-4.25,3.1-7.34,7.6-10.35,12-3.26,4.73-6.61,9.66-7.65,15.31-2.07,11.29,5.4,22,6.77,33.44,3.11,25.49-24.21,48.1-19.05,73.25,3,14.66,16.56,25,30.57,30.23,4.94,1.85,10.58,3.69,12.88,8.43,1,2.07,1.21,4.46,2.19,6.55,3.27,7,14,7.25,19.79,2.17s7.6-13.3,8.28-21c2.78-33.49-10.64-66.57-9.07-100.14.46-10.16,3.32-21.67,12.42-26.27,12.24-6.21,27,4.14,40.44,2.16a80.28,80.28,0,0,1,3.87,49c-2.14,8.93-5.85,17.6-6.12,26.81-.4,14,7.16,26.83,13.7,39.23a20.78,20.78,0,0,1,2.77,7.56,18.4,18.4,0,0,1-1.48,7.92c-3.7,9.94-10.07,19.18-10.8,29.76a4.82,4.82,0,0,0,.78,3.54,4.46,4.46,0,0,0,2.67,1.2c11.18,1.92,20.84-8,26.3-17.93A84,84,0,0,0,625.36,187c1.13-21.07-6.42-41.79-6-62.88C619.94,100.18,630.78,76,624.43,52.91Z"/><polygon class="cls-26" points="601.57 511.11 642.63 512.42 636.74 481.98 605.29 484.97 601.57 511.11"/><path class="cls-24" d="M728.78,439c-2.76,3.45-13.46,9.66-14.49,11.72S700.5,459,693.93,460s-27.24,5.52-31,7.94c-2.72,1.73-24.57,7.24-38.92,10.29a109.45,109.45,0,0,1-11.79,2.12C606,480.69,538,457.58,538,457.58l13.1-13.46.73-.24c3.7-1.26,20.82-7,30.32-9.79,10.7-3.11,23.12-15.87,23.12-15.87s18.27-6.21,20.7-6.9-6.21-24.14-6.21-24.14S659.44,381.67,675,377s51.4-2.94,57.95,15.35S731.58,435.5,728.78,439Z"/><path class="cls-25" d="M548,497.24s-7.93,8.28-15.87,7.6-35.69,2.07-35.69,2.07a55.93,55.93,0,0,0-14,8.1c-6.49,5.11-9.93,1-10.57.17l-.12-.17c-3.45,10.88-11.38,2.59-11.38,2.59s3.44-33.12,2.39-37.26,6.82-11.24,6.82-11.24l9.31-2.37,23.6-6.05,33.81,11.73Z"/><g class="cls-9"><path d="M478.89,466.73l-7,48.45-.12-.17c-3.45,10.88-11.38,2.59-11.38,2.59s3.44-33.12,2.39-37.26,6.82-11.24,6.82-11.24Z"/></g><g class="cls-9"><path d="M527.72,328.9s18.27,6.21,34.15,0"/></g><g class="cls-9"><path d="M590.11,340.64s7.58,3.79,13.45,0"/></g><g class="cls-9"><path d="M590.11,349.62s12.76,1.71,15.18-1.74"/></g><g class="cls-9"><path d="M586,368.92s24-3.1,29.92-7.24"/></g><g class="cls-9"><path d="M512.83,361.68s13.46,7.58,23.46,7.24"/></g><g class="cls-9"><path d="M624,478.22a109.89,109.89,0,0,1-11.79,2.12C606,480.69,538,457.58,538,457.58l13.1-13.46.73-.24c2.07,1.46,3.76,2.71,5,3.66,5.7,4.49,11.2-1.38,13.27-1.38s20,14.83,20,14.83,16.55,3.8,19.32,7.25,12.42,2.76,14.13,5.17C624.07,474.16,624.13,476,624,478.22Z"/></g><path class="cls-24" d="M496.46,388.58s-16.74,1-26.4-3.1S428.33,372,419,378.62,387.27,391,397.62,417.26s15.18,26.91,15.18,26.91a37.1,37.1,0,0,1,8.28,8.59c3.11,4.83,32.08,15.86,39.33,15.86s20,0,37.94,12.42,34.15,13.8,34.15,13.8,22.76,9.32,29.85,11.39,39.48,11,47.08,8.28,12.42-20,12.42-20,3.44-15.52,1.71-17.93-11.38-1.73-14.13-5.18-19.32-7.24-19.32-7.24-17.9-14.84-20-14.84-7.57,5.86-13.27,1.37a301.87,301.87,0,0,0-35.72-22.76C508.05,421,496.46,388.58,496.46,388.58Z"/><g class="cls-9"><path d="M462.8,398.59a19.77,19.77,0,0,1,17,4.48c8.28,6.9,36.14,20.76,36.14,20.76"/></g><g class="cls-9"><path d="M669.79,398.16s-36.91,5.58-43.8,13.17"/></g><path class="cls-25" d="M712.22,512.42H710.6c-5.84-.2-25.62-.82-29.43,0-4.48,1-63.82,0-63.82,0L629,510s-4.31-15.08-1.58-16.34c0,0-15.52-10.22-3.82-17.12s24.32-4,24.32-4l29.38-9.95,5.64-1.92S716,462.41,725,485.18,712.22,512.42,712.22,512.42Z"/><g class="cls-9"><path d="M712.22,512.42H710.6c9.63-7.94,31.42-32.14-33.34-49.77l5.64-1.92S716,462.46,725,485.23,712.22,512.42,712.22,512.42Z"/></g><circle class="cls-23" cx="651.34" cy="483.79" r="1.81"/><circle class="cls-23" cx="640.82" cy="486.78" r="1.81"/><g class="cls-27"><path d="M589.54,104.08a80.43,80.43,0,0,0-5.94-33.26c-13.46,2-28.19-8.37-40.44-2.16-9.07,4.59-11.92,16.11-12.42,26.26-.13,2.68-.15,5.36-.1,8a27.33,27.33,0,0,1,.1-2.86c.47-10.16,3.32-21.67,12.42-26.27,12.25-6.21,27,4.14,40.44,2.16A80.21,80.21,0,0,1,589.54,104.08Z"/><path d="M485.29,102.19a34.79,34.79,0,0,0-.14-6.77c-1.1-9.11-6.07-17.81-7-26.69-1.16,10.71,5.66,21,7,31.86A6.27,6.27,0,0,1,485.29,102.19Z"/><path d="M539.81,195.05c-.64,7.68-2.45,15.89-8.28,21s-16.55,4.81-19.79-2.16c-1-2.07-1.19-4.48-2.2-6.55-2.29-4.74-7.94-6.58-12.88-8.44-14-5.24-27.55-15.52-30.56-30.22a32.67,32.67,0,0,1-.55-4,32.73,32.73,0,0,0,.55,9.21c3,14.66,16.56,25,30.56,30.23,4.94,1.85,10.59,3.69,12.88,8.43,1,2.07,1.21,4.46,2.2,6.55,3.26,7,14,7.25,19.79,2.17s7.59-13.3,8.28-21a117.29,117.29,0,0,0,.32-12.15C540.13,190.43,540,192.75,539.81,195.05Z"/><path d="M619.75,119.25v4.48c.57-19.25,7.63-38.6,6.94-57.44C626.15,83.71,620.14,101.53,619.75,119.25Z"/><path d="M597.54,197.11a13.71,13.71,0,0,0,.24-3.73,20.76,20.76,0,0,0-2.77-7.57c-6-11.38-12.8-23-13.61-35.67,0,.54-.07,1-.08,1.62-.41,14,7.15,26.83,13.69,39.23A25.18,25.18,0,0,1,597.54,197.11Z"/><path d="M625.7,182.14a84.18,84.18,0,0,1-10.45,35.72c-5.46,9.95-15.12,19.85-26.3,17.94a4.45,4.45,0,0,1-2.67-1.21,2.58,2.58,0,0,1-.49-.81c-.12.81-.23,1.62-.29,2.45a4.8,4.8,0,0,0,.78,3.53A4.39,4.39,0,0,0,589,241c11.18,1.92,20.84-8,26.3-17.93a84.22,84.22,0,0,0,10.45-35.73c.12-2.42.13-4.83.06-7.24C625.74,180.76,625.74,181.45,625.7,182.14Z"/></g><g class="cls-9"><path d="M641.28,496.61a40.71,40.71,0,0,1-14.1-2.46l.4-.95c.26.1,26,10.53,42.85-13.15l.84.59C662.1,493.55,650.35,496.61,641.28,496.61Z"/></g><g class="cls-9"><path d="M632.82,513.31l-.57-.86c.22-.14,22-13.92,49.15-.49l-.45.93a52.54,52.54,0,0,0-34.16-4.78A44.67,44.67,0,0,0,632.82,513.31Z"/></g><g class="cls-9"><path d="M489.83,509.93l-.95-.42c.14-.31,3.52-7.74,11.66-10.18,6.38-1.9,13.8-.18,22.06,5.15l-.56.87c-8-5.15-15.13-6.84-21.21-5C493.14,502.63,489.86,509.86,489.83,509.93Z"/></g><g class="cls-9"><path d="M460.23,210.07l18.32-16.56s71-4.65,74,19.49c0,0,25.18-28.63,78.13-22.25l22.41,17.84-61.93,27.18-60.18,20.87L486.62,236.8Z"/></g><path class="cls-7" d="M460.23,211.11l18.32-16.56s71-4.66,74,19.48c0,0,25.18-28.62,78.13-22.25l22.41,17.85L591.12,236.8l-60.18,20.87-44.32-19.83Z"/><g class="cls-9"><polygon points="452.13 213.18 460.23 310.11 546.13 314.43 542.4 217.9 542.33 216.28 452.13 213.18"/></g><polygon class="cls-5" points="452.13 211.1 460.23 308.04 546.13 312.36 542.4 215.83 542.33 214.21 452.13 211.1"/><g class="cls-9"><polygon points="656.98 211.1 568.38 224.39 568.38 321.76 654.96 309.25 656.98 211.1"/></g><polygon class="cls-5" points="656.98 209.03 568.38 222.32 568.38 319.69 654.96 307.18 656.98 209.03"/><g class="cls-10"><polygon class="cls-11" points="636.09 232.8 588.22 238.12 589.27 254.42 636.05 249.31 636.09 232.8"/></g><path class="cls-21" d="M464.89,360l4.87,13.11s7.25,6.21,15.17,3.11,14.84-4.65,18.29-7.67,8.28-18.21,8.28-18.21,4.83-16.55,9.65-20.69,17.6-61.17,0-55.6-31,57.32-31,57.32-3.11,3.79-7.59,4.14-13.45-.69-15.18,3.11S459.71,352.36,464.89,360Z"/><g class="cls-9"><path d="M568.37,224.38a29.77,29.77,0,0,1-26-6.48l3.74,96.52s8.79,9.52,22.24,7.34Z"/></g><path class="cls-4" d="M568.37,222.31a29.77,29.77,0,0,1-26-6.48l3.74,96.52s8.79,9.52,22.24,7.34Z"/><path class="cls-14" d="M568.37,222.31a29.77,29.77,0,0,1-26-6.48l3.74,96.52s8.79,9.52,22.24,7.34Z"/><g class="cls-9"><path d="M570.44,211.44s36-11,45.45-9.47"/></g><g class="cls-9"><path d="M530.13,206.62s-34.94-8.27-40.78-5.93"/></g><g class="cls-9"><path d="M593.17,212.81s24.1-8.84,32.82-4.63"/></g><g class="cls-9"><path d="M581,434.51a80.35,80.35,0,0,1,11.88-7.38c6.21-3,17.59-10.75,17.59-10.75"/></g><g class="cls-9"><path d="M489.35,328.9s-15.12,12.37-19.66,13.46-7.35,10.73-7.35,10.73"/></g><path class="cls-21" d="M648.09,358.11l-4.82,13.14s-7.25,6.21-15.18,3.1-14.83-4.64-18.29-7.66-8.28-18.21-8.28-18.21-4.82-16.56-9.65-20.69-17.6-61.18,0-55.6,31,57.32,31,57.32,3.11,3.79,7.59,4.14,13.45-.69,15.18,3.11S653.26,350.55,648.09,358.11Z"/><g class="cls-9"><path d="M639.64,333.93s9.88,6.36,9.84,13.95"/></g><circle class="cls-21" cx="555.78" cy="103.52" r="46.23"/><path class="cls-22" d="M526.75,91.11c5.61-.88,10.53-4.14,15.89-6,12-4.21,25.26-1.32,37.4,2.47,4.65,1.46,9.38,3.11,14.27,3.11s10.07-2,12.56-6.21c2.3-3.87,1.85-8.9-.08-13s-5.18-7.33-8.45-10.42c-10.76-10.16-24.11-19.66-38.88-18.63-5.94.43-11.62,2.55-17.08,4.9a188.15,188.15,0,0,0-20.06,10.1c-5,2.89-14.19,6.75-17.06,12C498.74,81.36,516.61,92.71,526.75,91.11Z"/><g class="cls-9"><path d="M606.87,80.12c-2.49,4.21-7.68,6.21-12.56,6.21s-9.62-1.58-14.28-3c-12.14-3.8-25.4-6.7-37.4-2.47-5.35,1.87-10.28,5.17-15.89,6C518.57,88.1,505.4,81,504,71.93c-1.61,10.46,13.66,19.42,22.76,18,5.61-.88,10.54-4.14,15.89-6,12-4.22,25.26-1.32,37.4,2.47,4.66,1.46,9.38,3.11,14.28,3s10.07-2,12.56-6.21a12.18,12.18,0,0,0,1.45-7.57A11,11,0,0,1,606.87,80.12Z"/></g><path class="cls-5" d="M982,641s6.14,8-2.84,20.14S962.82,683.45,965.8,691c0,0,13.54-22.5,24.55-22.82S994.12,654.49,982,641Z"/><g class="cls-9"><path d="M982,641a10.39,10.39,0,0,1,1.25,2.52c10.74,12.62,16.48,24.41,6.14,24.7-9.63.28-21.17,17.49-23.93,21.83.09.35.2.69.32,1,0,0,13.54-22.5,24.55-22.82S994.12,654.49,982,641Z"/></g><path class="cls-28" d="M993.4,651.19c0,2.82-.32,5.11-.7,5.11S992,654,992,651.19s.4-1.49.79-1.49S993.4,648.36,993.4,651.19Z"/><path class="cls-28" d="M997.32,654.56c-2.47,1.35-4.63,2.17-4.82,1.82s1.67-1.71,4.14-3.1,1.5-.37,1.69,0S999.81,653.21,997.32,654.56Z"/><path class="cls-5" d="M949.59,641s-6.14,8,2.83,20.14,16.36,22.35,13.37,29.9c0,0-13.52-22.5-24.54-22.82S937.52,654.49,949.59,641Z"/><g class="cls-9"><path d="M949.59,641a10.08,10.08,0,0,0-1.26,2.52c-10.74,12.62-16.47,24.41-6.13,24.7,9.61.28,21.16,17.49,23.92,21.83a6.49,6.49,0,0,1-.33,1s-13.52-22.5-24.54-22.82S937.52,654.49,949.59,641Z"/></g><path class="cls-28" d="M938.18,651.19c0,2.82.31,5.11.71,5.11s.71-2.29.71-5.11-.4-1.49-.79-1.49S938.18,648.36,938.18,651.19Z"/><path class="cls-28" d="M934.27,654.56c2.47,1.35,4.64,2.17,4.82,1.82s-1.66-1.71-4.14-3.1-1.5-.37-1.68,0S931.79,653.21,934.27,654.56Z"/><g class="cls-2"><ellipse class="cls-3" cx="965.8" cy="742.55" rx="64.16" ry="9.84"/></g><path class="cls-14" d="M998.82,680.19l-.31,2.5-.43,3.54-.18,1.48-.43,3.54-.19,1.48-.42,3.53-4.92,40.25c-.43,3.59-6.3,6.4-13.39,6.4H953c-7.09,0-12.94-2.81-13.39-6.4l-4.91-40.25-.44-3.53-.17-1.48-.44-3.54-.19-1.48-.42-3.54-.31-2.5c-.24-2.07,2.93-3.75,6.94-3.75h52.18C995.9,676.44,999.07,678.15,998.82,680.19Z"/><polygon class="cls-29" points="998.51 682.69 998.09 686.23 933.51 686.23 933.08 682.69 998.51 682.69"/><polygon class="cls-29" points="997.9 687.71 997.48 691.25 934.13 691.25 933.69 687.71 997.9 687.71"/><polygon class="cls-29" points="997.29 692.73 996.86 696.27 934.74 696.27 934.31 692.73 997.29 692.73"/><g class="cls-16"><rect class="cls-30" x="-42" y="858.03" width="1100" height="2"/></g></svg>