<svg id="Capa_1" data-name="Capa 1" xmlns="http://www.w3.org/2000/svg" xmlns:xlink="http://www.w3.org/1999/xlink" viewBox="0 0 1053 679"><defs><style>.cls-1{fill:none;}.cls-2{fill:#85848b;}.cls-3{fill:#504f60;}.cls-4{opacity:0.2;}.cls-11,.cls-17,.cls-4{isolation:isolate;}.cls-5{fill:#6c63ff;}.cls-6{fill:#514e7f;}.cls-7{fill:#464353;}.cls-8{fill:#a1616a;}.cls-9{fill:#00729a;}.cls-10{fill:#01617a;}.cls-11,.cls-29{opacity:0.1;}.cls-12{fill:#33323d;}.cls-13{fill:#8dd070;}.cls-14{fill:#4e5e5d;}.cls-15{fill:#303a39;}.cls-16{fill:#fbbebe;}.cls-17,.cls-24{opacity:0.05;}.cls-18{fill:#3c4f54;}.cls-19{fill:#425150;}.cls-20{clip-path:url(#clip-path);}.cls-21{fill:gray;}.cls-22{fill:#2d293d;}.cls-23{fill:#424e51;}.cls-25{fill:#ffcdd3;}.cls-26{fill:#3c5354;}.cls-27{fill:#575988;}.cls-28{fill:#3c5451;}</style><clipPath id="clip-path"><path class="cls-1" d="M821.67,536.17c-1.3-5.57-2.11-10.46-2.11-10.46s.3-6.06-2.42-10.61v-1.52h0v-11.2a37.31,37.31,0,0,1,2.83-5.87c2-3.52,0-16.42,0-16.42s-7.47-18.19-5.66-29.73S799,399.12,799,399.12a50,50,0,0,1,1.61-11.34,9.07,9.07,0,0,0,.22-2.38v-.2c-.26-7.61-6.28-21.87-6.28-21.87l.81-27.18s3.84-16-2.42-37.55c-2.19-7.51-3.59-13.52-4.48-18.16-.1-.52-.2-1-.28-1.51,12.89-2,22.74-3.6,22.74-3.6s-7.48-31.29-12.53-36.77-9.09-22.69-9.09-22.69-2.63-22.09,1.62-28.55,4.85-17.6,4.85-17.6,9.69-7,10.91-10.17,3.23-10.17,3.23-13.88-1.21-7-.81-9-2.83-9.39-1.21-12.91a9.8,9.8,0,0,0,.64-3.39v-.1h0a47.89,47.89,0,0,0-.85-9.18,26,26,0,0,0-9.6-5.13l-.21-.84-.55-2.2c-.31-.2-.63-.39-.95-.56v-.8l-.09-3.18,1.52-7.14c3-12.42-13.59-14.27-13.59-14.27a8.75,8.75,0,0,0-4.7-4.12c-3.33-1.17-.55,18.68,1,20,1.17,1,4.79,7.18,6.54,10.24h0l.28.5a5.75,5.75,0,0,0-.76.8l.63,4.31.1.66a17.48,17.48,0,0,0-2.65,4.51s3,3.32,2.43,7,.93,8.35,1,8.6c-.18-.21-2.31-2.51-4.44-2s-8.08,2.35-8.08,2.35-4.44.78-4,1.76-3,5.28-3,5.28l-11.94-11.32c-.12-.34-.25-.68-.35-1a26.68,26.68,0,0,1-1-5,28.7,28.7,0,0,0,3.82-1.21,8.33,8.33,0,0,0,3.3-2.12c1.21-1.43,1.44-3.37,1.93-5.15.94-3.48,3-6.57,4.43-9.88A32.15,32.15,0,0,0,771,83.45a11.77,11.77,0,0,0-1.83-5.2c-1.95-2.68-5.49-3.77-8.06-5.91s-4.23-5.41-7.23-7c-2.71-1.45-6-1.28-9.06-.78a48.59,48.59,0,0,0-16.93,6.16c-1.74,1-3.66,2.23-5.66,1.86-1.72-.31-3-1.68-4.08-3a.43.43,0,0,1,0-.16.65.65,0,0,1-.13-.16,21,21,0,0,0-1.86,8.94,11,11,0,0,0,.06,1.43v.91h0a2.74,2.74,0,0,1-.09.63A4.77,4.77,0,0,1,715,82.78a9.84,9.84,0,0,0-1,1.33,1.65,1.65,0,0,1,.16-.49A7,7,0,0,0,713,87.39a3.8,3.8,0,0,0,.9,2.7,12.83,12.83,0,0,0,1.95,1.56,22.37,22.37,0,0,0-.36,4,23.08,23.08,0,0,0,11.26,19.71c.14.33.27.67.4,1,1.53,4,2.68,8.7,2.17,13a6.1,6.1,0,0,1-.14.94c0,.31-.3.33-.43.5h0s-19.73.2-24.37-4-11.72,10.27-11.72,10.27-7.07,1.37-8.49,0-9.69-.19-9.69-.19a17.86,17.86,0,0,0-12.33-4.5,36.24,36.24,0,0,0-9-5h0l-.22-.08h0a10.08,10.08,0,0,0-4.45-.56s-9.7-8-12.53-12.32-16.3-20.27-16.36-20.34v-.77L619.39,91a9.87,9.87,0,0,1-1.21.1c-.07-.23-.17-.5-.27-.81a46.13,46.13,0,0,0-2.86-6.57s0-2.93.85-3.67-.35-11.49-.35-11.49S606.81,48.12,599,63.37c0,0-14.8,9.87-2.38,21.37,0,0,5,2.4,5.66,4.3.46,1.23,2.14,4.68,3.27,7l.51,1-.14.12.18,1.92.08.74c-2.34,1.33-3.93,2.65-3.54,3.64a22.39,22.39,0,0,1,1.41,5.28s17.18,21.52,19.4,30.71c0,0,46.07,27.38,61.22,29.33L682,182.43a106.35,106.35,0,0,0-.6,11.15c.2,2.93-1.82,16.23-1.82,16.23s-2.63,19.56-4.85,22.3-1.82,14.47-1.82,14.47a99.89,99.89,0,0,1-3,16.62c-2.22,7.43-.61,16.63-.61,16.63s-7.67,17.6,10.71,5.67c0,0,9-.56,19.42-.92v1c0,1.34,0,2.79-.07,4.31-.14,10.08-.2,24,.26,34.48.81,18.58,6.47,55.35,6.47,55.35v18.51a24.58,24.58,0,0,0-.54,5.28,34.34,34.34,0,0,0,5,18.49l1.42,12.32s3.32,8.12,3.38,13a7.78,7.78,0,0,1-.14,1.17,7.47,7.47,0,0,0-.16,1.89c-.19,5.6,3.18,19,3.18,19s.2,13.49,2.22,14.28c1.73.67-2.31,7.77-3.51,9.81a1.69,1.69,0,0,1-.07-.38l-.25.4a9.51,9.51,0,0,0-.63,3.42,4.89,4.89,0,0,0,2.24,4.74c3.84,2.35,5.9,4.3,2.64,5.08a30.84,30.84,0,0,0-3.56.75,1.54,1.54,0,0,0-.17-.45,2.13,2.13,0,0,0-1.33,2.36,9.91,9.91,0,0,0,1.19,4.54c3.23,7.24,5.47,10,5.47,10l1.55-.17a8.15,8.15,0,0,1-.9,1.67,6.54,6.54,0,0,1-2.28,2,7,7,0,0,1-2.77,1,7.77,7.77,0,0,0-5.72,2.78c-2,2.61-3.28,6.16.7,9.28l14.45,5s24.86,3.23,23.54-2.35-2.12-10.46-2.12-10.46a22.17,22.17,0,0,0-2-9.89,15.27,15.27,0,0,0-.88-1.46l.88-.09s1.82-12.33,4.24-14.67c.56-.54.69-1,.56-1.28.25-.67-.39-1.06-1.2-1.29l-.18.49a12.27,12.27,0,0,0-2.41-.27s-.81-6.45,1.82-8.8a2.54,2.54,0,0,0,.51-1.92,10.55,10.55,0,0,0-.28-2.63l-.09.16c-1.32-5.86-5.8-15.17-5.8-15.17s-.2-5.86,1.42-8.21-.21-31.88-.21-31.88.61-14.27-1.21-20.92,2.22-14.48,2.22-14.48v-.52l-.23-2.25a.33.33,0,0,0,0,.14c-.41-3.78-1.18-10.63-1.75-13.79-.81-4.5.21-26,.21-26l3.63-9.2,6.47,15.85,6.87,21.12s3.4,4.46,3.48,9v.66a9.53,9.53,0,0,0-.08,1.41,12.51,12.51,0,0,0,2.09,7.53s1.82,10,4.65,12.51,2.83,7.43,2.83,7.43,3.43,14.48,5,17c1.36,2.14,1.43,8,1.42,9.83h0v.52s.48,5.18.46,9.52v1.44a16.05,16.05,0,0,1-.42,3.52l-.06.2a2.55,2.55,0,0,1,.07-.73,36.38,36.38,0,0,0-1,9c-.09,5.2.7,11.36,3.85,15,5.46,6.26,8.89,5.48,8.89,5.48s-2.62,7.82-5.86,9.39a1.33,1.33,0,0,0-.34.22,3.4,3.4,0,0,0-.08-.46,3.79,3.79,0,0,0-1,2.92c-.23,3.44,1.94,9,4,11.59a6.46,6.46,0,0,0,2.73,1.6c-.17.11-.34.22-.51.31a11.29,11.29,0,0,1-1.11.53,6,6,0,0,1-1.65.43,7.68,7.68,0,0,0-5.72,2.78c-2,2.6-3.28,6.15.7,9.27l14.45,5S823,541.74,821.67,536.17Z"/></clipPath></defs><title>Imagenes</title><rect class="cls-2" x="0.43" y="671.08" width="1049.58" height="7.67"/><path class="cls-3" d="M832,535.65c0,5.9-34.39,23.1-75.24,23.1s-72.68-17.2-72.68-23.1,33.11-4,74-4S832,529.74,832,535.65Z"/><g class="cls-4"><path d="M832,535.65c0,5.9-34.39,23.1-75.24,23.1s-72.68-17.2-72.68-23.1"/></g><path class="cls-5" d="M420.58,427.39c6.63.85,13.51,1.39,19.86-.67,1-.31,2.1-1,2-2a2.59,2.59,0,0,0-.45-1,61.05,61.05,0,0,1-6-11.43,1.09,1.09,0,0,0-.37-.52.88.88,0,0,0-.64,0c-2.93.77-5.46,2.66-8.37,3.47a11.91,11.91,0,0,1-4.56.34c-1.32-.15-3.12-1.24-4.32-1.1C418.41,418.85,420.07,422.93,420.58,427.39Z"/><path class="cls-5" d="M546,416.32c4.37-3,8.9-6.15,11.48-10.78a1.94,1.94,0,0,0,.31-.93,2.05,2.05,0,0,0-.37-.9,37.31,37.31,0,0,0-9.33-10.07,26.94,26.94,0,0,0-5.2,4.8c-1.1,1.16-4.14,3-4.17,4.77,0,1,1.16,2.16,1.7,3,.73,1.08,1.42,2.18,2.08,3.3C542.85,410.06,546.32,416.1,546,416.32Z"/><path class="cls-6" d="M446.57,440.78a4.54,4.54,0,0,1-.8,2.9,4,4,0,0,1-1.68,1c-9.27,3.32-20-.82-29.25,2.45-1.9.67-3.7,1.64-5.61,2.28a30.88,30.88,0,0,1-7,1.24c-3.27.31-6.56.51-9.84.6a23.73,23.73,0,0,1-7.42-.65,8.9,8.9,0,0,1-5.69-4.51,4.27,4.27,0,0,1-.28-3.21,3.2,3.2,0,0,1,.61-1,8.69,8.69,0,0,1,2.18-1.77l3.41-2.2a22.66,22.66,0,0,1,5.17-2.74c1.35-.44,2.78-.63,4.15-1,4.79-1.4,8.45-5.2,11.85-8.85l4.64-4.95a4.49,4.49,0,0,1,1.61-1.29,4.37,4.37,0,0,1,2-.19,26.77,26.77,0,0,1,12.65,4.24,16,16,0,0,0,3.12,1.84c2.72,1.06,6.21.26,8.72-1.08,1.19-.64.93-1,1.43-2.14s1.72-1.87,2.78-.83a3,3,0,0,1,.66,1.26c1,3.3.62,6.85.62,10.31a4.35,4.35,0,0,0,.2,1.6,8.65,8.65,0,0,0,.91,1.48c.07.12.13.25.19.38A10.21,10.21,0,0,1,446.57,440.78Z"/><path class="cls-7" d="M446.57,440.78a4.54,4.54,0,0,1-.8,2.9,4,4,0,0,1-1.68,1c-9.27,3.32-20-.82-29.25,2.45-1.9.67-3.7,1.64-5.61,2.28a30.88,30.88,0,0,1-7,1.24c-3.27.31-6.56.51-9.84.6a23.73,23.73,0,0,1-7.42-.65,8.9,8.9,0,0,1-5.69-4.51,4.27,4.27,0,0,1-.28-3.21,3.2,3.2,0,0,1,.61-1c.54,1.13.93,2.63,1.27,3.17a6.46,6.46,0,0,0,4.34,3.13,10.86,10.86,0,0,0,4-.51c8.4-2.08,17.33-2.11,25.4-5.26,2.77-1.09,5.41-2.54,8.32-3.2s6-.48,9-.73c4.74-.38,9.33-1.81,14-2.56A10.31,10.31,0,0,1,446.57,440.78Z"/><path class="cls-6" d="M567.2,415.71c-.44,3.52-2.67,6.55-5.12,9.12s-5.22,4.88-7.17,7.84c-2.4,3.67-3.48,8.22-6.6,11.32a18.43,18.43,0,0,1-4,2.85,28.22,28.22,0,0,1-5.15,2.37c-4.66,1.49-9.68,1.15-14.55.79a9.72,9.72,0,0,1-6.54-2.07,9.06,9.06,0,0,1-3-3,3,3,0,0,1-.29-2.18,5,5,0,0,1,1.39-2.12,32.09,32.09,0,0,1,3.52-3.17,21.31,21.31,0,0,0,4.58-4,13,13,0,0,0,1.77-4,36.1,36.1,0,0,0,1.29-7.65,23.8,23.8,0,0,1,.53-5.12c.74-2.64,2.7-5,2.48-7.73a1.88,1.88,0,0,1,.1-1.17,1.6,1.6,0,0,1,.92-.57,16.32,16.32,0,0,1,4.78-1.11,5.56,5.56,0,0,1,4.44,1.74c.68.82,1.13,2,2.13,2.32a3.54,3.54,0,0,0,1.52.06c2.46-.25,5.06-.56,7-2.15a8.77,8.77,0,0,0,2.9-6.37c0-.91-.41-1.86,1-2,1.06-.14,1.9,1,2.44,1.7,1.95,2.61,3.95,5.34,4.68,8.52a2.43,2.43,0,0,1,.89-.17,3.9,3.9,0,0,1,3.19,1.63A6.41,6.41,0,0,1,567.2,415.71Z"/><path class="cls-7" d="M567.2,415.71c-.44,3.52-2.67,6.55-5.12,9.12s-5.22,4.88-7.17,7.84c-2.4,3.67-3.48,8.22-6.6,11.32a18.43,18.43,0,0,1-4,2.85,28.22,28.22,0,0,1-5.15,2.37c-4.66,1.49-9.68,1.15-14.55.79a9.72,9.72,0,0,1-6.54-2.07,9.06,9.06,0,0,1-3-3,7.23,7.23,0,0,1,3-.72c2.16.12,3.74,2.16,5.81,2.79,3,.89,5.89-1.19,8.88-1.9,2-.46,4-.34,5.93-1a14.75,14.75,0,0,0,4.39-2.66,22.58,22.58,0,0,0,4.69-4.52,29.66,29.66,0,0,0,2.75-5.49,76.3,76.3,0,0,1,5.56-10.64,7.08,7.08,0,0,1,1.13-1.48,15.75,15.75,0,0,1,1.53-1.11c2-1.51,2.83-4,3.53-6.44a11.1,11.1,0,0,1,.79-2.15,3.9,3.9,0,0,1,3.19,1.63A6.39,6.39,0,0,1,567.2,415.71Z"/><path class="cls-8" d="M357.51,103.93a21.3,21.3,0,0,1,6,7c1.4,2.74,9.47,24,9,27.09,2.63-2.65,13-3.08,15.66-5.73,1.11-1.11,7.1-6.65,8-7.94s7.58-4,8.31-5.36c2.73-4.89-19.36-23.42-16.53-28.25a.9.9,0,0,0-.14-1.35c-1.81-1.85-4.21-3-6.39-4.37s-4.28-3.28-4.87-5.8A21.08,21.08,0,0,0,370.9,83q-6.09,5.2-11.95,10.63c-1.53,1.42-4.49,3.31-5.2,5.34S356.05,102.74,357.51,103.93Z"/><path class="cls-9" d="M393.27,96.06a65.08,65.08,0,0,0-9.46,7.74c-2.74,2.71-5.34,5.85-6,9.64-.28,1.49-.24,3-.47,4.51-1,6.55-6.66,11.35-9.16,17.48a29.61,29.61,0,0,0-1.59,5.85,68.1,68.1,0,0,0-1.15,11.48c-.06,3.73,3.6,6.3,4.94,9.78s1.7,7.06,2.38,10.63c1.28,6.74,3.63,13.24,6,19.7,4.93,13.62,20.91,51.27,25.84,64.9,15.11-3.79,55.33-12.5,68.71-20.49,4.46-2.66-30.95-32.67-26.18-34.74a1.78,1.78,0,0,0,1.48-2,1.9,1.9,0,0,0-.14-.48c-4.77-20.86-19.69-38-26.46-58.31-2.35-7.05-6.57-13.07-9.77-19.77-2.9-6.07-4.45-12.78-7.92-18.55a11.7,11.7,0,0,0-2.53-3.15A15,15,0,0,0,399,98.56C397,97.6,395.18,97,393.27,96.06Z"/><circle class="cls-8" cx="358.31" cy="77.91" r="23.65"/><path class="cls-7" d="M382.37,89a7.91,7.91,0,0,1,8.89-1.28c1.6.83,3,2.51,2.64,4.27l11.73.18a23.65,23.65,0,0,1,5.56.51,8.14,8.14,0,0,1,4.64,2.91c.14.19.3.42.54.45a.9.9,0,0,0,.54-.18,10.15,10.15,0,0,1,5.84-1c6.34.41,12.2,3.58,17.17,7.54a5.56,5.56,0,0,1,2,2.49c.41,1.33-.08,3,1,4,0,11,3.78,21.28,6.3,32,.45,1.91,2.28,3.6,3.55,5.1a20.64,20.64,0,0,1,3.79,5.66c2.14,5.56-.81,12.1,1.27,17.68.88,2.36,2.58,4.3,4,6.35a16.48,16.48,0,0,1,3.42,8.2c.09,1.34-.08,2.69,0,4a24,24,0,0,0,1,5.31q1.28,4.84,2.68,9.67c1.52,5.2,3.5,10.81,8.16,13.58-11.25,1.91-23.11,3.78-33.83-.13a17.36,17.36,0,0,1-4.22-2.11c-3.87-2.76-5.74-7.48-7.41-11.94-1.86-5-3.75-10.09-4.13-15.41a18,18,0,0,0-.71-5c-1.09-2.9-4-4.65-6.64-6.26a31.88,31.88,0,0,1-8-6.22,12.4,12.4,0,0,1-3.24-9.34c.2-1.65.85-3.24.91-4.9s-.68-3.56-2.27-4c-8.19-2.48-12.1-12.18-13.92-20.54a65.38,65.38,0,0,1-1.05-13.1l-.11-8.53a11.21,11.21,0,0,1-3.68-8.09,10,10,0,0,0-.05-2.68,7.4,7.4,0,0,0-1.88-2.85A25.33,25.33,0,0,1,382.37,89Z"/><path class="cls-7" d="M357.18,116.06c-.27,2.64.33,5.35-.26,7.94-.23,1-.63,2-.92,2.93a17.13,17.13,0,0,0,1.09,11.13,61.46,61.46,0,0,0,5.69,9.85,16.18,16.18,0,0,1,1.82,3.41,18.25,18.25,0,0,1,.7,3.89,118.11,118.11,0,0,0,2.78,15.72c1.12,4.48,13.84,42.78,16.8,46.33a3.77,3.77,0,0,0,2.28,1.55,4.23,4.23,0,0,0,1.94-.4l6-2.3a4.1,4.1,0,0,0,1.39-.76,3.65,3.65,0,0,0,.86-2.36c.43-4.88-12.32-43.45-13.94-48.06C378.51,151,372,137.59,368.8,123.18c-.89-4-1.36-10.16-4.29-13.35-1.21-1.32-.8-.76-2.25-.07a15.79,15.79,0,0,0-2.12,1.11A6.91,6.91,0,0,0,357.18,116.06Z"/><path class="cls-10" d="M375.39,142.47c1.61,8.51,3.27,17,4.92,25.51l23.48-6.15c.19-2.46-1.12-4.74-2-7-2.14-5.37-2.19-11.35-3.92-16.87-1.31-4.2-3.59-8.06-4.82-12.29-.71-2.46-1.07-5-1.77-7.49a56.18,56.18,0,0,0-2.76-7.15,44.8,44.8,0,0,0-5.12-9.49c-3,1.12-6.2,2.42-7.91,5.13a11,11,0,0,0-1.46,5c-.41,5.27,1.5,10.57.87,15.81A46.28,46.28,0,0,0,375.39,142.47Z"/><path class="cls-7" d="M404.18,255.67c1.32,5-.59,10.26-2.15,15.21a117.73,117.73,0,0,0-4.78,22.9,20.09,20.09,0,0,1-1.18,5.79c-.74,1.67-2,3.08-2.86,4.67-2.36,4.18-2.3,9.28-1.79,14.06.34,3.15.85,6.29,1.48,9.39.77,3.79,1.72,7.75.61,11.45,1.86-.41,3.12,2,3,3.89s-.73,4,.18,5.63c2.3.84,2.32,4,2.25,6.45a53.51,53.51,0,0,0,1.6,12.6q5.22,25.1,11.08,50.06c8.45,2.62,18.32,5.35,26.38,1.72,1.5-.67,3-1.74,3.34-3.36a6.1,6.1,0,0,0-.32-2.58l-3.82-13.9c-.93-3.36-1.86-6.83-1.37-10.28.37-2.57,1.49-5.34.23-7.61-.43-.78-1.11-1.39-1.61-2.13-2-2.93-.95-6.85-.79-10.4a8.63,8.63,0,0,0-.16-2.38,12.37,12.37,0,0,0-1.14-2.61,39.81,39.81,0,0,1-4.4-19.86,5,5,0,0,0-.35-2.59,7.72,7.72,0,0,1-.65-1.06,2.86,2.86,0,0,1,.21-1.91,17.16,17.16,0,0,1-3.08-3,4.31,4.31,0,0,0,1.38-5.94,4.5,4.5,0,0,0-.64-.8,2.26,2.26,0,0,0,1.76-2.65,2.3,2.3,0,0,0-.69-1.22c-.49-.34-1.14-.49-1.49-1-.54-.74-.1-1.77.34-2.56l2.33-4.21c1.74-3.13,2.13-7,4-10,2.68-4.37,4.43-9.24,6.16-14.06L444,274.81l4.53,3.93a14.41,14.41,0,0,1,3.72,4.24,18.55,18.55,0,0,1,1.21,5.08c1.66,10.08,8,18.82,10.35,28.75.52,2.21.87,4.53,2.14,6.42a14.31,14.31,0,0,1,1.22,1.84,9.85,9.85,0,0,1,.51,3.05,14.21,14.21,0,0,0,6,10.2c2.23,1.53,5,2.58,6.21,5a9,9,0,0,0,1,2.13c1.08,1.3,3.41,1.45,3.87,3.08.26.91-.22,2,.29,2.8a2.61,2.61,0,0,0,1.11.83l6.51,3.25c7.28,3.64,11,12,16.37,18.09a39.25,39.25,0,0,1,4.9,6.48c2.32,4.15,3.39,9.36,7.31,12a11.05,11.05,0,0,1,2.84,2.11c1.23,1.62.78,3.89.89,5.93s1.67,4.47,3.61,3.85a14.23,14.23,0,0,0,0,7.55,38.07,38.07,0,0,0,23.06-9.34c1.9-1.66,3.73-3.78,3.75-6.3a2.35,2.35,0,0,0-.28-1.25,3.64,3.64,0,0,0-1.47-1.11c-6.09-3.3-7.92-10.95-11-17.16-2.69-5.48-6.67-10.2-10-15.29-7.24-11-12.18-24.2-23.13-31.43-2.41-1.59-5.21-3-6.42-5.63-.67-1.47-.75-3.15-1.28-4.67s-1.8-3-3.42-3c.9-2.2.72-4.88.78-7.26a9.17,9.17,0,0,0-.36-3.13,15.73,15.73,0,0,0-1.61-3.1,29.69,29.69,0,0,1-4.12-16c.08-2.89.59-5.87-.28-8.63-.44-1.39-1.21-2.66-1.74-4a25,25,0,0,1-1.25-7.52l-.6-9.61a47.46,47.46,0,0,0-1.24-9.5c-2-7.46-4-38.71-10.85-42.23s-18.62,20.53-26.33,21a34,34,0,0,0-10,1.93c-5.13,1.92-9.43,5.5-13.62,9L413,249.1C410,251.57,407.49,253.93,404.18,255.67Z"/><path class="cls-7" d="M336.12,51.65c3.12-4.26,8.48-6.52,13.76-6.71s10.48,1.47,15.21,3.82a18.94,18.94,0,0,0,4.44,1.82c2.5.51,5.28-.17,7.54,1,3,1.59,3.58,5.64,3.32,9s-.89,7.09.9,10A24.08,24.08,0,0,1,383,73.19c.77,1.73.32,3.73-.14,5.56-1.17-1-1.83-2.51-2.87-3.67s-2.85-1.94-4.14-1.07-1.27,2.45-1.34,3.87-.43,3.12-1.77,3.58a2.86,2.86,0,0,1-3-1.17c-2.29-2.8-1.37-7.27-3.64-10.09-1.29-1.6-3.44-2.38-4.63-4.06-.94-1.32-1.18-3-2-4.42s-2.73-2.46-4-1.48a5.15,5.15,0,0,0-1.07,1.43,6.17,6.17,0,0,1-7.3,2.2A12,12,0,0,0,344,62.5a3.89,3.89,0,0,0-3.61,2,7.73,7.73,0,0,0-1,4.18c0,2,.36,4.13-.78,5.73a6.09,6.09,0,0,1-1.6,1.52c-1.67,1.07-4,1.79-5.54.57a4.12,4.12,0,0,1-1.24-3.88,30.93,30.93,0,0,1,1.18-4.1c.88-3.1-.27-6.59.69-9.51A30,30,0,0,1,336.12,51.65Z"/><path class="cls-10" d="M348.79,122.2a3.6,3.6,0,0,0,.22,2.17,3.45,3.45,0,0,0,1.18,1.13,24.33,24.33,0,0,0,11.14,3.61,3.36,3.36,0,0,1,1.54.4c.94.62,1,2,.65,3.1a8,8,0,0,0-.71,3.3c.29,2.09,2.77,3,4.86,3.31,2.93.37,6.14.18,8.46-1.65a13.07,13.07,0,0,0,3.49-5.23c5.74-13.19,7.75-27.77,13.56-40.92a8.86,8.86,0,0,0,.87-2.74A2.71,2.71,0,0,0,393,86.16c-1.08-.67-2.76-.29-3.49-1.34-.36-.53-.32-1.25-.64-1.81-.67-1.19-2.43-1-3.63-1.69-.94-.5-1.59-1.53-2.64-1.73a3.31,3.31,0,0,0-2.73,1.18c-3.41,3.18-5.2,7.69-7.1,12a141.22,141.22,0,0,1-10.16,18.84c.45-.7-2.16-6-3.18-6.23-1.79-.36-4.08,2.78-5,4A25,25,0,0,0,348.79,122.2Z"/><g class="cls-11"><path d="M385.12,82.25a4.77,4.77,0,0,0-3.71,1.86c-1.07,1.39-1.28,3.23-1.55,5A43.6,43.6,0,0,1,374,104.93"/></g><g class="cls-11"><path d="M390.22,86.24a5.68,5.68,0,0,0-4.85,2.91,15.92,15.92,0,0,0-1.22,4.94,27.29,27.29,0,0,1-4.85,10.39"/></g><path class="cls-12" d="M627.88,281.74V269.32a34.49,34.49,0,0,0-34.48-34.47H102.91a34.48,34.48,0,0,0-34.48,34.47v22.9Z"/><path class="cls-13" d="M239.36,220.29s-1.4,86.86,14,115.44,22,152.91,22,152.91,161.44,16.7,273.94-20,351.88-51.71,351.88-51.71L860.84,145s-199.29-12.78-312.66,41.29S239.36,220.29,239.36,220.29Z"/><g class="cls-11"><path d="M239.36,220.29s-1.4,86.86,14,115.44,22,152.91,22,152.91,161.44,16.7,273.94-20,351.88-51.71,351.88-51.71L860.84,145s-199.29-12.78-312.66,41.29S239.36,220.29,239.36,220.29Z"/></g><path class="cls-13" d="M275.09,252s-5,71.67,7.62,94.57S296,471.72,296,471.72s145.29,6.74,248.64-28.44,320.53-58,320.53-58L840.46,162.93s-179.7-1.85-284.58,47.67S275.09,252,275.09,252Z"/><g class="cls-11"><ellipse cx="544.28" cy="322.29" rx="37.72" ry="80.9" transform="translate(-35.66 69.75) rotate(-7.1)"/></g><g class="cls-4"><path d="M751.58,12.59S558,61.59,466.67,147.84s-283.5,127.09-283.5,127.09S208.49,358,231.91,380.5s67.84,138.8,67.84,138.8,158.77-33.66,254.57-103.14S873.39,258.93,873.39,258.93Z"/></g><path class="cls-13" d="M180.26,262.49s25.31,83.1,48.71,105.58,67.84,138.79,67.84,138.79,158.79-33.65,254.6-103.13,319.06-157.2,319.06-157.2L748.66.16s-193.6,49-284.9,135.25S180.26,262.49,180.26,262.49Z"/><g class="cls-11"><path d="M180.26,262.49s25.31,83.1,48.71,105.58,67.84,138.79,67.84,138.79,158.79-33.65,254.6-103.13,319.06-157.2,319.06-157.2L748.66.16s-193.6,49-284.9,135.25S180.26,262.49,180.26,262.49Z"/></g><path class="cls-13" d="M224,281.73s17.19,69.77,36.28,87.67,51,115,51,115S451.59,446.22,539.16,381,826.45,227.55,826.45,227.55L734.74,23.43S563.15,76.8,478.52,156.12,224,281.73,224,281.73Z"/><g class="cls-11"><ellipse cx="501.77" cy="266" rx="37.72" ry="80.9" transform="translate(-65.39 236.68) rotate(-24.97)"/></g><g class="cls-11"><path d="M641.12,293.93v345a29.84,29.84,0,0,1-29.83,29.83h-513a29.83,29.83,0,0,1-29.82-29.83V259.15c14.7,5.46,14.7,5.46,29.82,5h513A29.85,29.85,0,0,1,641.12,293.93Z"/></g><path class="cls-14" d="M641.12,298.32v345a29.85,29.85,0,0,1-29.84,29.83h-513a29.83,29.83,0,0,1-29.82-29.83V263.53c14.7,5.45,14.7,5.45,29.82,5h513A29.84,29.84,0,0,1,641.12,298.32Z"/><g class="cls-11"><path d="M639.66,425.87V536.2h-107a55.17,55.17,0,0,1,0-110.33Z"/></g><path class="cls-15" d="M641.12,422.93V533.28h-107a55.17,55.17,0,0,1,0-110.33Z"/><g class="cls-11"><circle cx="539.25" cy="481.04" r="21.51"/></g><circle class="cls-10" cx="540.71" cy="478.12" r="21.51"/><path class="cls-16" d="M826.85,422c.85,9.21-6.12,18.15-4.09,27.17.44,1.93,1.27,3.75,1.57,5.7.84,5.36-2.35,10.43-5.4,14.91l-26.2,38.44a24.11,24.11,0,0,1-3.74,4.62c-5,4.46-12.52,4-19.1,5.33a32.58,32.58,0,0,0-12.8,5.66.8.8,0,0,0-.12,1.12,11,11,0,0,0,9.52,4.47c.69.91,0,2.24-1,2.89-1.41,1-3.34,1.24-3.62,3.62a3.87,3.87,0,0,0,.48,2.4,7.4,7.4,0,0,0,4.58,3.19c9.07,2.77,18.87-2.1,25.66-8.73s11.66-15,18.32-21.75c3.69-3.73,7.88-6.93,11.68-10.55,7.58-7.22,13.47-16,19.16-24.79,1.71-2.65,3.43-5.37,4.15-8.44s.38-6.17,1.19-9.14c1.06-3.9,3.91-7,6.28-10.27,4.65-6.4,7.75-14.23,7.14-22.11s-5.5-15.67-12.94-18.35a11.48,11.48,0,0,0-7.25-.44c-3.05.94-5.3,3.46-7.38,5.87l-5,5.75A13.32,13.32,0,0,0,825,423a4.59,4.59,0,0,0,1,4.89"/><g class="cls-17"><path d="M826.85,422c.85,9.21-6.12,18.15-4.09,27.17.44,1.93,1.27,3.75,1.57,5.7.84,5.36-2.35,10.43-5.4,14.91l-26.2,38.44a24.11,24.11,0,0,1-3.74,4.62c-5,4.46-12.52,4-19.1,5.33a32.58,32.58,0,0,0-12.8,5.66.8.8,0,0,0-.12,1.12,11,11,0,0,0,9.52,4.47c.69.91,0,2.24-1,2.89-1.41,1-3.34,1.24-3.62,3.62a3.87,3.87,0,0,0,.48,2.4,7.4,7.4,0,0,0,4.58,3.19c9.07,2.77,18.87-2.1,25.66-8.73s11.66-15,18.32-21.75c3.69-3.73,7.88-6.93,11.68-10.55,7.58-7.22,13.47-16,19.16-24.79,1.71-2.65,3.43-5.37,4.15-8.44s.38-6.17,1.19-9.14c1.06-3.9,3.91-7,6.28-10.27,4.65-6.4,7.75-14.23,7.14-22.11s-5.5-15.67-12.94-18.35a11.48,11.48,0,0,0-7.25-.44c-3.05.94-5.3,3.46-7.38,5.87l-5,5.75A13.32,13.32,0,0,0,825,423a4.59,4.59,0,0,0,1,4.89"/></g><path class="cls-18" d="M846.68,659.08c-5.72,3.49-12.85,3.7-19.5,2.89-1.07-.13-2.34-.21-3,.62-1,1.2.18,3,1.4,3.93A28.9,28.9,0,0,0,839,672a89.54,89.54,0,0,0,13.1.87c12,.21,24,.41,35.81-1.31a5,5,0,0,0,2-.58,3.69,3.69,0,0,0,1.48-2.25c.81-3.08-.75-6.38-3.11-8.52s-5.39-3.33-8.35-4.48l-10.4-4c-2.44-1-6.35-3.47-9-3.27C855.52,648.8,850.81,656.66,846.68,659.08Z"/><g class="cls-17"><path d="M846.68,659.08c-5.72,3.49-12.85,3.7-19.5,2.89-1.07-.13-2.34-.21-3,.62-1,1.2.18,3,1.4,3.93A28.9,28.9,0,0,0,839,672a89.54,89.54,0,0,0,13.1.87c12,.21,24,.41,35.81-1.31a5,5,0,0,0,2-.58,3.69,3.69,0,0,0,1.48-2.25c.81-3.08-.75-6.38-3.11-8.52s-5.39-3.33-8.35-4.48l-10.4-4c-2.44-1-6.35-3.47-9-3.27C855.52,648.8,850.81,656.66,846.68,659.08Z"/></g><path class="cls-19" d="M854,521c-4.33,5.76-8.81,12.41-7.74,19.54.58,3.84,2.73,7.23,4.31,10.78,2.14,4.82,3.26,10,4.36,15.16,1.62,7.54,3.25,15.1,4.24,22.76,1.13,8.65-4.18,33.68-4.67,42.39-.12,2.1-.37,4.37-1.83,5.88-.57.6-1.33,1.08-1.59,1.86a3.13,3.13,0,0,0,.35,2.2c2.44,5.5,7.43,9.6,13,11.94s19,6.38,25.07,6.59a5,5,0,0,0,2.36-.31,4.63,4.63,0,0,0,1.82-2.09c4.35-8.32.17-37.9.23-47.29.06-7.83,1.91-15.61,1.57-23.43-.28-6.28-2-12.42-2.57-18.68-1-10.26.88-20.57,2.77-30.71,1.44-7.78,2.89-15.56,4.74-23.24,1.13-4.69,2.44-9.42,5-13.49,2-3.23,4.81-5.93,7.14-9a40.65,40.65,0,0,0,8-29.74c-.14-1-15,3.77-16.31,4.34a50.46,50.46,0,0,0-14.54,9.35c-3.44,3.28-6.15,7.66-9.16,11.33q-6.39,7.79-12.62,15.69Q860.79,511.88,854,521Z"/><g class="cls-17"><path d="M854,520.67c-4.33,5.76-8.81,12.42-7.74,19.54.58,3.85,2.73,7.24,4.31,10.79,2.14,4.81,3.26,10,4.36,15.15,1.62,7.55,3.25,15.11,4.24,22.76,1.13,8.66-4.18,33.68-4.67,42.39-.12,2.1-.37,4.38-1.83,5.89-.57.59-1.33,1.07-1.59,1.85a3.13,3.13,0,0,0,.35,2.2c2.44,5.51,7.43,9.6,13,12s19,4.49,25.07,4.69a5,5,0,0,0,2.36-.31,4.65,4.65,0,0,0,1.82-2.08c4.35-8.32.17-36,.23-45.4.06-7.84,1.91-15.61,1.57-23.44-.28-6.28-2-12.42-2.57-18.67-1-10.27.88-20.58,2.77-30.72,1.44-7.77,2.89-15.55,4.74-23.24,1.13-4.69,2.44-9.42,5-13.49,2-3.23,4.81-5.93,7.14-9a40.65,40.65,0,0,0,8-29.74c-.14-1-15,3.77-16.31,4.34a50.7,50.7,0,0,0-14.54,9.36c-3.44,3.27-6.15,7.65-9.16,11.32q-6.39,7.78-12.62,15.7Q860.79,511.52,854,520.67Z"/></g><circle class="cls-16" cx="805.79" cy="369.89" r="24.27"/><path class="cls-16" d="M827.65,368.87a31.41,31.41,0,0,0,20.15,14.06L846,389.58c-3.16,11.42-6.71,23.5-15.53,31.42,1-3.87-.28-8-2.46-11.36s-5.24-6-8.24-8.61l-14-12.1a4,4,0,0,1-1-1.18,3.5,3.5,0,0,1,0-2.66c1.78-5.54,6.86-9,11-12.74a39,39,0,0,0,5.53-6.44C824.09,361.93,825.82,365.93,827.65,368.87Z"/><path class="cls-7" d="M773.82,345.49l-.55-4.56c3.83,1,7.47-2.26,9.92-5.63s4.72-7.34,8.45-8.75c4.53-1.7,9.33,1,13.66,3.28a43.12,43.12,0,0,0,15.67,5.1,10.45,10.45,0,0,1,2.59.42c2.82,1,4.16,4.54,4.57,7.75s.3,6.62,1.69,9.48c1,2.17,2.86,3.78,4,5.92,3,5.74.1,13.59,3.23,19.22l-7.78-7.13c-.71-.65-1.71-1.33-2.5-.78-.62.44-.67,1.39-.92,2.15-.75,2.22-3.53,2.88-5.54,2s-3.48-2.79-5-4.53c-3.44-4.06-7.54-7.63-12.34-9.36a15.83,15.83,0,0,0-13,.86c-3.63,2.05-6.29,6.83-10.74,7-6.1.23-8.64-11.13-11.46-15.62a5.5,5.5,0,0,0,1.6-6.88C769.78,345.26,773.73,344.79,773.82,345.49Z"/><path class="cls-8" d="M473.63,203.6a46.51,46.51,0,0,0-5.39,5.66,11.29,11.29,0,0,0-2.48,7.27,3.64,3.64,0,0,0,.7,2.13,1.8,1.8,0,0,0,2,.61,2.82,2.82,0,0,0,1-.88,44.43,44.43,0,0,1,3.36-3.64c.43-.43,1-.88,1.58-.72a1.72,1.72,0,0,1,.68.45,4.6,4.6,0,0,1,1.41,2.2c.35,1.53-.54,3.06-1.55,4.26s-2.2,2.35-2.61,3.86a1.66,1.66,0,0,0,0,1.24,1.79,1.79,0,0,0,.78.66,11.19,11.19,0,0,0,9.44.62c2-.81,3.78-2.2,5.84-2.92a14.2,14.2,0,0,0,2.58-1,5.38,5.38,0,0,0,2.29-3.43,14.16,14.16,0,0,0,.15-4.21A48.6,48.6,0,0,0,490,199.93a2,2,0,0,0-.58-.84,1.8,1.8,0,0,0-1-.27c-2.56-.27-6.76-1.58-9.23-.63a6.45,6.45,0,0,0-2.18,1.94C476.52,200.64,473.63,202.93,473.63,203.6Z"/><path class="cls-7" d="M472.82,201.34c0-2.44-3-8.33,1.77-8.72,0-2.61-3.69-4.23-3-7,.22-.92,1-1.67,1.09-2.61.3-2.67-4.52-4.12-3.72-6.68.3-1,1.36-1.58,1.59-2.57.54-2.31-3.59-3.34-3.67-5.71,0-.8.45-1.55.41-2.35,0-1-.87-1.76-1.35-2.63-1.25-2.23-.64-5.68-2.92-6.83,1.51.13,2-2.11,1.38-3.48s-1.89-2.56-1.9-4.08a6.59,6.59,0,0,0,0-1.66c-.42-1.46-2.81-1.58-3.21-3a11.24,11.24,0,0,1-.05-1.64c-.16-1.13-1.32-1.85-2.41-2.17a9.62,9.62,0,0,1-3.22-1.15c-.7-.53-1.51-1.41-2.26-1-.28.17-.42.49-.63.73-.9,1.05-2.62.59-3.75-.18-3.34-2.27-5-6.34-5.71-10.31s-.69-8.07-1.58-12a27.65,27.65,0,0,0-1.08-3.6c-.38-1-1.6-2.57-1.68-3.58-.18-2.3,4.58-.73,6.39-.5a28,28,0,0,1,5.19,1,55.49,55.49,0,0,1,5.31,2.33c7.22,3.19,15.94,3.58,21.74,8.94,1.91,1.76,3.52,4.07,6,4.87a28.1,28.1,0,0,1,3.36.87c2.75,1.29,3.18,4.94,4.68,7.58a15.27,15.27,0,0,1,1.23,2.2,8.83,8.83,0,0,1,.4,2.8l.21,6.93c.34,11.61.68,23.25-.56,34.79-.4,3.81-1,7.73.13,11.39.3,1,.72,1.94,1,3a18.88,18.88,0,0,1,.38,3.6l.16,4.49a1.07,1.07,0,0,1-1.43,1.29c-6.25-.56-12.57-4.08-18.47-2"/><ellipse class="cls-3" cx="758.04" cy="535.65" rx="73.96" ry="10.69"/><g class="cls-20"><rect class="cls-21" x="584.18" y="546.37" width="238.79" height="2.3"/><rect class="cls-21" x="584.18" y="282.5" width="238.79" height="263.87"/><rect class="cls-21" x="584.18" y="57.71" width="238.79" height="224.78"/><rect class="cls-21" x="584.18" y="48.12" width="238.79" height="9.6"/></g><path class="cls-22" d="M726.76,545.41l-14-5c-3.86-3.12-2.63-6.67-.68-9.28a7.43,7.43,0,0,1,5.54-2.78,6.8,6.8,0,0,0,2.67-1,6.54,6.54,0,0,0,2.22-2A10.37,10.37,0,0,0,724.1,520s15.36-4.5,19.56,0a11.36,11.36,0,0,1,1.86,2.73,23,23,0,0,1,2,9.89s.78,4.88,2.05,10.46S726.76,545.41,726.76,545.41Z"/><path class="cls-22" d="M795.2,538.51l-14-5c-3.86-3.12-2.63-6.67-.68-9.27a7.36,7.36,0,0,1,5.53-2.78,5.27,5.27,0,0,0,1.6-.43,10.8,10.8,0,0,0,1.08-.53c3.91-2.15,3.81-7.43,3.81-7.43s15.35-4.5,19.56,0a11.57,11.57,0,0,1,1.47,2c2.63,4.55,2.34,10.62,2.34,10.62s.78,4.89,2,10.46S795.2,538.51,795.2,538.51Z"/><g class="cls-11"><path d="M743.67,520a11.36,11.36,0,0,1,1.86,2.73h0l-23,2.67a10.37,10.37,0,0,0,1.59-5.41S739.47,515.48,743.67,520Z"/></g><g class="cls-11"><path d="M813.59,515.09v4.31c-3.58,5.89-20.89,4.6-25.92,1.65a10.8,10.8,0,0,0,1.08-.53c3.91-2.15,3.81-7.43,3.81-7.43s15.35-4.5,19.56,0A11.57,11.57,0,0,1,813.59,515.09Z"/></g><path class="cls-23" d="M816.32,496.51a38.61,38.61,0,0,0-2.73,5.87v15.45c-3.92,6.45-24.25,4.3-27,.78s-5.62-12.68-2.53-14.27,5.67-9.39,5.67-9.39-3.33.78-8.61-5.48-3.71-20.14-2.73-23.46,0-14.47,0-14.47.2-7.83-1.36-10.37-4.89-17-4.89-17,0-4.89-2.74-7.43-4.5-12.52-4.5-12.52a12.74,12.74,0,0,1-1.95-8.41c.58-4.89-3.33-10.17-3.33-10.17L753,364.51l-6.26-15.84-3.52,9.19s-1,21.51-.19,26,2,16.43,2,16.43-3.91,7.82-2.15,14.47S744,435.7,744,435.7s1.76,29.52.19,31.87-1.37,8.22-1.37,8.22,8,17.2,5.48,19.55-1.76,8.8-1.76,8.8,5.47,0,3.13,2.35-4.11,14.67-4.11,14.67l-23.65,2.77s-2.16-2.73-5.29-10,.58-6.45,3.73-7.24,1.16-2.73-2.56-5.08S716.2,494,716.2,494s5.67-9.58,3.71-10.36-2.15-14.28-2.15-14.28-3.91-16-2.93-20.34-3.13-14.66-3.13-14.66L710.33,422a33.82,33.82,0,0,1-4.3-23.28v-19s-5.48-36.76-6.26-55.34c-.5-11.9-.36-28.14-.2-38.27.1-5.68.2-9.45.2-9.45l84.48-8.8s-.08,3.9,1.53,12.55c.87,4.64,2.22,10.65,4.34,18.16,6.06,21.51,2.35,37.54,2.35,37.54l-.79,27.19s7.43,18.18,5.87,24.44A51.32,51.32,0,0,0,796,399.12s16.62,39.7,14.86,51.24,5.47,29.73,5.47,29.73S818.28,493,816.32,496.51Z"/><g class="cls-17"><path d="M768,394.63l25.72-3.43S779.17,406.07,768,394.63Z"/></g><g class="cls-11"><path d="M790,366.07s.88,9.1-4.69,12.52C785.33,378.59,795.3,377,790,366.07Z"/></g><g class="cls-11"><path d="M788.44,337.13s-21.5,17.7-29.32,16.23S788.44,337.13,788.44,337.13Z"/></g><g class="cls-11"><path d="M736.14,402.93s-16.33,3.71-16.82,10.27S736.14,402.93,736.14,402.93Z"/></g><g class="cls-17"><path d="M739.73,484.49s-23.07,4.3-16.52,7.23S740.52,497,740.52,497,748,497.39,739.73,484.49Z"/></g><g class="cls-24"><path d="M718.55,496.38a4.54,4.54,0,0,1-2.11-3.34l-.24.41s-2.15,5.28,1.57,7.62c.42.27.83.54,1.2.8.69-.13,1.43-.23,2.14-.41C724.26,500.68,722.27,498.73,718.55,496.38Z"/><path d="M748.27,494.81c.64-.58.62-2.08.23-4a11.24,11.24,0,0,0-1.31,5.66A4.81,4.81,0,0,1,748.27,494.81Z"/><path d="M744.72,397.52a26.41,26.41,0,0,0-1.56,7.19,28,28,0,0,1,1.79-4.94Z"/><path d="M797.56,387.26a9.59,9.59,0,0,0,.21-2.14c-.29,1.46-.49,2.81-.64,4C797.26,388.51,797.4,387.93,797.56,387.26Z"/><path d="M744.17,467.05c.32-.48.5-2.1.58-4.35a14.57,14.57,0,0,0-1.13,5.49A4.8,4.8,0,0,1,744.17,467.05Z"/><path d="M749,503.93a75.7,75.7,0,0,0-2.69,12l-23.65,2.73s-2.16-2.73-5.29-10a15.68,15.68,0,0,1-.67-1.72c-1.42.65-2,2.12-.12,6.41,3.13,7.24,5.3,10,5.3,10l23.65-2.74s1.76-12.32,4.1-14.67C750.8,504.81,750.06,504.22,749,503.93Z"/><path d="M717.77,468.81s.19,13.49,2.15,14.27h0c1-2.23,1.65-4.35.77-4.7-2-.78-2.15-14.28-2.15-14.28s-3.91-16-2.93-20.34-3.13-14.66-3.13-14.66l-1.37-12.32a33.82,33.82,0,0,1-4.3-23.28v-19s-5.48-36.76-6.26-55.34c-.5-11.9-.36-28.14-.2-38.27,0-1.83.06-3.45.09-4.82l-.67.07s-.11,3.76-.2,9.45c-.16,10.13-.31,26.37.2,38.26.78,18.58,6.25,55.35,6.25,55.35v19a33.86,33.86,0,0,0,4.31,23.27l1.36,12.32s4.11,10.36,3.13,14.67S717.77,468.81,717.77,468.81Z"/><path d="M787.39,513.39a22.66,22.66,0,0,1-3.75-9.29c-2.41,2.18.36,10.64,3,14,2.73,3.52,23.07,5.67,27-.79v-3.72C808.31,518.82,790,516.72,787.39,513.39Z"/><path d="M817.11,491.29a38.66,38.66,0,0,0-2.74,5.87v2.77a41,41,0,0,1,2-3.92,12.18,12.18,0,0,0,.86-4.85Z"/><path d="M788.59,494.38a41,41,0,0,0,1.93-4.65s-3.33.78-8.61-5.48c-3.84-4.55-4.06-13.15-3.51-18.77-1,3.33-2.55,17.21,2.73,23.47C784.58,493,787.19,494.12,788.59,494.38Z"/><path d="M778.39,451a106.7,106.7,0,0,1,.39,11.59,13.91,13.91,0,0,1,.4-1.81c1-3.33,0-14.47,0-14.47s.2-7.83-1.37-10.37-4.84-17-4.84-17,0-4.89-2.74-7.43-4.5-12.52-4.5-12.52a12.81,12.81,0,0,1-2-8.41c.59-4.89-3.32-10.17-3.32-10.17l-6.65-21.12-6.26-15.84-3.53,9.2s0,1.16-.12,3l2.86-7.47L753,364l6.65,21.12s3.91,5.28,3.32,10.17a12.81,12.81,0,0,0,2,8.41s1.76,10,4.5,12.52,2.73,7.43,2.73,7.43,3.33,14.47,4.89,17S778.39,451,778.39,451Z"/></g><path class="cls-25" d="M794.81,91.21l-1.47,7.14.09,3.18.06,2.34-8.16.84-.91-1.69h0c-1.69-3.06-5.2-9.28-6.33-10.24-1.51-1.26-4.2-21.12-1-19.94A8.53,8.53,0,0,1,781.63,77S797.7,78.79,794.81,91.21Z"/><g class="cls-11"><path d="M793.49,103.87l-8.16.84-.91-1.69h0a7.18,7.18,0,0,1,9-1.48Z"/></g><path class="cls-10" d="M795.55,107.74l-10.76,2.49-.23-1.6-.61-4.31s4.26-5.68,10.42-1.42l.54,2.19Z"/><path class="cls-25" d="M621.25,92l-11.49,6.16-1-2.16c-1.09-2.29-2.72-5.74-3.17-7-.68-1.9-5.47-4.3-5.47-4.3-12-11.49,2.3-21.37,2.3-21.37,7.58-15.25,16,5.18,16,5.18s1.18,10.77.35,11.49-.83,3.67-.83,3.67a45.68,45.68,0,0,1,2.77,6.57C621.06,91.32,621.25,92,621.25,92Z"/><g class="cls-11"><path d="M621.25,92l-11.49,6.16-1-2.16c1.62-1.36,7.37-6,9.26-5.81a14.53,14.53,0,0,0,2.72.07C621.06,91.32,621.25,92,621.25,92Z"/></g><path class="cls-10" d="M622.42,95.46l-12.91,6.36-.26-2.77-.18-1.92s7.48-6.41,9.69-6.16a11.89,11.89,0,0,0,3.37,0l.15,2.32Z"/><path class="cls-25" d="M763.52,138.64s-56.28,6.35-45.76,2.93c7.32-2.39,10.23-7,10.84-12.2.5-4.33-.62-9-2.09-13a57.12,57.12,0,0,0-5-10.17s43-23.66,34.41-2.15a34.41,34.41,0,0,0-2.44,10.19,28.59,28.59,0,0,0,1.11,10.32A30.72,30.72,0,0,0,763.52,138.64Z"/><g class="cls-11"><path d="M755.89,104a34.41,34.41,0,0,0-2.44,10.19c-4.05,3.41-8.49,3.18-14.2,3.18-4.38,0-9.24,1.06-12.74-1a57.12,57.12,0,0,0-5-10.17S764.5,82.51,755.89,104Z"/></g><circle class="cls-25" cx="738.49" cy="95.62" r="23.27"/><g class="cls-11"><path d="M763.52,138.64s-56.28,6.35-45.76,2.93c7.32-2.39,10.23-7,10.84-12.2,2.8-3,8.43-5.23,12-6.39a16.83,16.83,0,0,1,10.2-.17,14.22,14.22,0,0,1,3.71,1.72A30.7,30.7,0,0,0,763.52,138.64Z"/></g><g class="cls-11"><path d="M795.55,107.74l-10.76,2.49-.23-1.6a9.51,9.51,0,0,1,10.35-3.54Z"/></g><g class="cls-11"><path d="M622.42,95.46l-12.91,6.36-.26-2.77a93.15,93.15,0,0,1,13-5.77Z"/></g><g class="cls-11"><path d="M785.78,280.45c-21.81,3.48-52.81,7.92-57.73,6.42-4.09-1.24-17.13-1.11-28.48-.72.1-5.68.2-9.45.2-9.45l84.48-8.8S784.17,271.8,785.78,280.45Z"/></g><path class="cls-26" d="M807.52,275.33s-71.77,12.32-79.47,10-47.25.19-47.25.19c-17.8,11.93-10.37-5.67-10.37-5.67s-1.56-9.19.59-16.62a102.12,102.12,0,0,0,3-16.64s-.39-11.74,1.76-14.48,4.7-22.29,4.7-22.29,2-13.3,1.76-16.23.58-11.15.58-11.15l2.55-13.69c-14.67-1.95-59.26-29.33-59.26-29.33-2.15-9.19-18.77-30.7-18.77-30.7a23.45,23.45,0,0,0-1.37-5.28c-1.17-3.13,16.43-9.39,16.43-9.39s13.1,16,15.84,20.34,12.12,12.32,12.12,12.32a9.42,9.42,0,0,1,4.3.56l.23.07h0a34.86,34.86,0,0,1,8.75,5,17,17,0,0,1,11.93,4.5s8-1.18,9.39.19,8.21,0,8.21,0,6.84-14.47,11.34-10.27,23.59,4,23.59,4c2.54-3.38,8.73-5.8,12.6-7a16.83,16.83,0,0,1,10.2-.17,13,13,0,0,1,4,2l11.61,11.34s3.32-4.31,2.93-5.28,3.91-1.76,3.91-1.76,5.67-1.76,7.82-2.35,4.12,1.74,4.3,2c-.07-.25-1.54-5-1-8.6s-2.35-7-2.35-7c6.84-16.82,22.29-2.74,22.29-2.74s1.76,9.19.2,12.71,1.56,11,1.17,12.91.79,5.28.79,9-2,10.75-3.13,13.88-10.56,10.17-10.56,10.17-.59,11.15-4.7,17.6-1.53,28.51-1.53,28.51,3.91,17.21,8.8,22.69S807.52,275.33,807.52,275.33Z"/><g class="cls-11"><path d="M702.9,146.65s-2.15-6.45-4.11-7a46.47,46.47,0,0,1-5.67-2.54l1.26-2.41s7.34,2,8.52,4.17S702.9,146.65,702.9,146.65Z"/></g><g class="cls-11"><path d="M663.59,132.38c-.39,2-17.8,3.71-17.8,3.71l8.8-8.82h0l.22.08h0A34.84,34.84,0,0,1,663.59,132.38Z"/></g><circle class="cls-27" cx="613.23" cy="105.54" r="1.56"/><circle class="cls-27" cx="615.23" cy="108.67" r="1.56"/><circle class="cls-27" cx="617.19" cy="111.56" r="1.56"/><circle class="cls-27" cx="619.24" cy="114.68" r="1.56"/><circle class="cls-27" cx="803.58" cy="114.51" r="1.27"/><circle class="cls-27" cx="803.78" cy="117.4" r="1.27"/><circle class="cls-27" cx="803.95" cy="120.28" r="1.27"/><g class="cls-11"><path d="M703,199.65c-.19-.23,43.9,55.44,78.12,23.27C781.12,222.93,727.05,230.26,703,199.65Z"/></g><g class="cls-11"><path d="M677.67,228.59s26.38.72,29.14,8.31v7.9a5,5,0,0,1-4.91,0c-2.66-1.44-18.61-9.54-24.23-5.64Z"/></g><path class="cls-28" d="M678.16,228.59s25.23.69,27.87,7.93V244a4.85,4.85,0,0,1-4.7,0c-2.54-1.36-17.79-9.09-23.17-5.37Z"/><g class="cls-11"><path d="M692.07,171.31a84.64,84.64,0,0,0,10.23,17.55,68.72,68.72,0,0,0,16,15.47S692.51,174.93,692.07,171.31Z"/></g><g class="cls-11"><path d="M683.44,140.66s4.4,19,15.74,25.45Z"/></g><g class="cls-11"><path d="M676.69,142.58c-.11-.35-3.91,15,14.62,23.53C691.31,166.11,683.44,163.44,676.69,142.58Z"/></g><g class="cls-11"><path d="M791.88,129.84c-.29,0,9.14,6,11.71,8.8C803.59,138.64,797.45,129.44,791.88,129.84Z"/></g><path class="cls-22" d="M732.2,116.71a3.65,3.65,0,0,0,3.69,3.64h.31c7.09.44,14.48.75,21-2a8.13,8.13,0,0,0,3.2-2.12c1.16-1.43,1.39-3.37,1.86-5.15.92-3.48,2.88-6.57,4.29-9.88a33.2,33.2,0,0,0,2.31-17.75,12.13,12.13,0,0,0-1.78-5.19c-1.88-2.69-5.31-3.78-7.8-5.92s-4.09-5.41-7-7c-2.62-1.46-5.83-1.28-8.78-.78a45.83,45.83,0,0,0-16.38,6.15c-1.69,1-3.54,2.23-5.48,1.86-1.7-.32-2.94-1.75-4-3.09A21.53,21.53,0,0,0,716,79.62a4.62,4.62,0,0,1-.05,1.53,4.69,4.69,0,0,1-1.09,1.61c-1.75,2-2.84,5.25-1.11,7.31.75.89,1.91,1.38,2.64,2.29,1.31,1.63.87,4,.84,6.08a3.09,3.09,0,0,0,.52,2.06,3,3,0,0,0,2.87.69,7.72,7.72,0,0,1,3.06-.29,5.1,5.1,0,0,1,2.66,2C729.54,107.11,730.82,111.69,732.2,116.71Z"/><g class="cls-29"><path d="M761.23,114.45a8.13,8.13,0,0,1-3.2,2.12c-6.56,2.73-13.94,2.42-21,2a4.87,4.87,0,0,1-2.19-.49c-1.08-.63-1.49-2-1.82-3.15-1.38-5-2.65-9.59-5.93-13.76a5.15,5.15,0,0,0-2.66-2,8.11,8.11,0,0,0-3.06.29,3,3,0,0,1-2.87-.68,3.09,3.09,0,0,1-.52-2.06c0-2.1.47-4.45-.84-6.08-.73-.91-1.89-1.4-2.64-2.3a4.55,4.55,0,0,1-.45-4.66c-1.25,2-1.78,4.51-.33,6.23.75.89,1.91,1.38,2.64,2.29,1.31,1.64.87,4,.84,6.08a3.08,3.08,0,0,0,.51,2.06,3,3,0,0,0,2.88.69,7.72,7.72,0,0,1,3.06-.29,5.1,5.1,0,0,1,2.66,2c3.27,4.17,4.55,8.75,5.93,13.77a5,5,0,0,0,1.73,3.17,4.88,4.88,0,0,0,2.2.48c7.09.44,14.48.76,21-2a8,8,0,0,0,3.2-2.12,6.3,6.3,0,0,0,1-1.88A.49.49,0,0,1,761.23,114.45Z"/><path d="M716,80.54a3.54,3.54,0,0,0,.71-1.18,4.37,4.37,0,0,0,0-1.53,21.5,21.5,0,0,1,1.09-8.42l-.13-.15A21.35,21.35,0,0,0,716,79.4,7.23,7.23,0,0,1,716,80.54Z"/></g><g class="cls-11"><path d="M728.05,130.81s29.07,3.86,31.68-.51"/></g><g class="cls-11"><path d="M784.56,118.78s16.16,0,19.71,6.08"/></g><path class="cls-18" d="M875,658.93a25.69,25.69,0,0,1-17.45,6.52c-1.64,0-3.91.31-3.92,1.95a2.72,2.72,0,0,0,.48,1.34,16,16,0,0,0,9,7.07c3.5,1.06,7.24.88,10.89.69l10.65-.55c2-.11,4-.21,6-.46s4.18-.66,6.27-1a82,82,0,0,1,15.51-.72c1.38.05,3,0,3.82-1s.4-2.91.09-4.41c-.64-3.09,0-6.33-.59-9.43-1-5.44-5.71-9.61-10.87-11.58-4.8-1.82-13.3-3.91-17.84-.87C882.22,649.67,879.29,655,875,658.93Z"/><path class="cls-19" d="M885.55,476.67c.94,4.47,5.27,7.89,5.39,12.45.11,3.66-2.5,6.73-4.38,9.86a64.72,64.72,0,0,0-4.47,10.12A155.48,155.48,0,0,1,869,535.2c-2.5,4-5.3,8.27-4.73,12.92a19.1,19.1,0,0,0,2.27,6.18l7.5,14.9a43.54,43.54,0,0,1,3.83,9.41c.65,2.83.71,5.76,1.09,8.64,1.18,9.14,5.47,18.34,2.93,27.2-.22.76-1,1.68-1.61,1.15,2.48,4.63,4.47,9.29,4.28,14.54-.1,2.75-.94,5.62.07,8.18.43,1.07,1.18,2.07,1.17,3.22a20.53,20.53,0,0,1-.43,2.21c-.21,2.11,1.73,3.87,3.74,4.54s4.2.62,6.23,1.23c3.9,1.17,6.69,4.53,10,6.86a21.26,21.26,0,0,0,11.52,3.75,3,3,0,0,0,1.7-.34,2.79,2.79,0,0,0,.94-2.06,11.47,11.47,0,0,0-4.12-9.94,4.42,4.42,0,0,1-1.53-1.6,3.75,3.75,0,0,1-.14-1.79,135.68,135.68,0,0,0-.44-24.6,36.67,36.67,0,0,1-.39-7.83c.21-2.18.87-4.34.63-6.51s-1.35-4.15-2-6.24c-1.16-3.72-.84-7.72-1-11.61-.2-6.76-1.75-13.4-3.29-20-.61-2.59-1.28-5.3-3.11-7.22-1.56-1.63-4.08-3.19-3.49-5.36A6.15,6.15,0,0,1,902,552.9a8.6,8.6,0,0,0,1.78-6.52,3,3,0,0,0,3.37-1.58c12.18-5.75,22-17.25,26.38-30a9.44,9.44,0,0,1,1.18-2.68c1.13-1.58,3.09-2.26,4.83-3.13,5.46-2.75,9.23-7.9,12.69-12.94,2-2.92,4-5.94,4.9-9.38a31.48,31.48,0,0,0,.67-6.77l.31-11.75a6.6,6.6,0,0,0-.22-2.3,5.8,5.8,0,0,0-1.27-1.86,22.62,22.62,0,0,0-12.46-6.72c-3.2-.57-6.47-.46-9.71-.73-6.28-.52-12.48-2.47-18.76-2-9.87.73-18.66,7.57-23.31,16.31C890.77,473.93,889.05,476.61,885.55,476.67Z"/><path class="cls-10" d="M830.75,400.27a13.35,13.35,0,0,1-.72,5.35c-.77,1.64-2.7,2.92-4.39,2.25.51-1.15-.84-2.46-2.1-2.32a3.92,3.92,0,0,0-2.77,2.38,8.78,8.78,0,0,0-.8,5.43c.4,2.3,1.73,4.51,1.38,6.82-.28,1.92-1.69,3.83-.94,5.61a8.94,8.94,0,0,0,1.81,2.17,6.13,6.13,0,0,1-.65,8.4l18.92.38c-.69,3.16.73,6.39,2.35,9.2a58,58,0,0,0,43.24,28.23,3.76,3.76,0,0,0-1.36,5.14,3.84,3.84,0,0,0,.45.61c1.54,1.53,4.15,1.34,6.08.35s3.44-2.63,5.2-3.9a16,16,0,0,1,10.69-2.88c2.37.23,4.67,1,7.05,1.12,7,.37,13-4.67,19.74-6.73,4.91-1.51,10.48-1.51,14.6-4.58,1.78-1.32,3.24-3.49,2.72-5.63a9.51,9.51,0,0,0-2-3.31c-2.37-3.07-3.77-6.76-5.47-10.25a61.35,61.35,0,0,0-13.67-18.32,123,123,0,0,0-13.56-10.28,23.12,23.12,0,0,0-3.66-2.21c-1.66-.73-3.5-1.08-5-2-2.22-1.4-3.5-3.87-5.21-5.86-3.75-4.38-9.51-6.39-14.13-9.83-3.1-2.31-5.84-5.35-9.54-6.46-1.8-.55-3.71-.59-5.51-1.13-4.09-1.24-7.07-4.87-11.08-6.34-3.17-1.16-6.67-.86-10-1.27a23.36,23.36,0,0,1-10.45-4,12.51,12.51,0,0,0-3.33-1.94c-5.07-1.54-5.48,7.9-6,11.17C832,390.52,830.75,395.35,830.75,400.27Z"/><path class="cls-16" d="M835.69,431.93c.85,9.22-6.11,18.15-4.08,27.18.43,1.92,1.26,3.75,1.56,5.7.85,5.35-2.35,10.42-5.4,14.9l-26.2,38.45a24.49,24.49,0,0,1-3.74,4.62c-5,4.45-12.52,4-19.1,5.32a32.94,32.94,0,0,0-12.8,5.66.83.83,0,0,0-.16,1.15,11,11,0,0,0,9.51,4.47c.69.9,0,2.24-.95,2.89-1.4,1-3.34,1.23-3.62,3.62a3.94,3.94,0,0,0,.48,2.4,7.45,7.45,0,0,0,4.58,3.18c9.07,2.78,18.87-2.1,25.66-8.73s11.66-15,18.32-21.74c3.69-3.74,7.88-6.93,11.68-10.55,7.58-7.23,13.48-16,19.16-24.79,1.71-2.65,3.44-5.37,4.15-8.44s.38-6.18,1.19-9.15c1.06-3.89,3.91-7,6.28-10.26,4.65-6.4,7.76-14.23,7.14-22.12s-5.5-15.67-12.94-18.35a11.62,11.62,0,0,0-7.25-.44c-3,.94-5.3,3.46-7.38,5.88l-5,5.74a13.22,13.22,0,0,0-2.81,4.41,4.6,4.6,0,0,0,1,4.9"/><path class="cls-10" d="M849,394.11c-3.44.2-7.23.54-9.66,3a13.58,13.58,0,0,0-2.44,3.82c-2.36,4.81-4.66,9.84-4.83,15.2-.14,4.28,1.1,8.47,1.75,12.7.54,3.52-.83,7.11-1.09,10.67,4.27-1.31,9.91-3.09,13.78-5.3,2.64-1.51,5.19-3.23,8.07-4.19,4.11-1.37,11,1,14.91,2.9.21-2.74-1.85-7.52-1.63-10.27a11.21,11.21,0,0,1,.61-3.4,19.76,19.76,0,0,1,2.07-3.29,13.47,13.47,0,0,0-1.21-15.77c-3.47-3.9-8.9-5.36-14.08-6a60.94,60.94,0,0,0-9.83-.34"/></svg>