<svg id="Capa_1" data-name="Capa 1" xmlns="http://www.w3.org/2000/svg" viewBox="0 0 878 670"><defs><style>.cls-1{fill:#f2f2f2;}.cls-2{fill:#78b46d;}.cls-3{fill:#36595e;}.cls-4{fill:#00729a;}.cls-5{fill:#ffb9b9;}.cls-6{fill:#2f2e41;}.cls-7{fill:#629998;}.cls-8{opacity:0.1;isolation:isolate;}.cls-9{fill:#1d3d3d;}.cls-10{fill:#429488;}</style></defs><title>Imagenes</title><path class="cls-1" d="M867.68,334.37c24,138,9.38,273.76-101.11,320s-244.37-22-299-152.44,53.24-199.71,101.11-320C665.87-62.41,793-94.24,867.68,334.37Z"/><circle class="cls-2" cx="776.06" cy="560.79" r="6.54"/><rect class="cls-3" x="807.08" y="594.85" width="2" height="74.41"/><circle class="cls-3" cx="808.08" cy="594.85" r="10.52"/><path class="cls-3" d="M808.08,640.71s-1.5-32.33-32.32-28.57"/><rect class="cls-1" x="39.3" y="90.82" width="302" height="2"/><rect class="cls-1" x="39.3" y="183.82" width="302" height="2"/><rect class="cls-1" x="39.3" y="257.82" width="302" height="2"/><rect class="cls-3" x="59.8" y="348.32" width="265" height="2"/><path class="cls-3" d="M44.3,365.82a17,17,0,1,1,17-17A17,17,0,0,1,44.3,365.82Zm0-32a15,15,0,1,0,15,15A15,15,0,0,0,44.3,333.82Z"/><rect class="cls-3" x="123.86" y="258.82" width="2" height="90"/><rect class="cls-3" x="190.86" y="184.82" width="2" height="164"/><rect class="cls-3" x="258.86" y="91.82" width="2" height="257"/><circle class="cls-4" cx="124.83" cy="348.82" r="14.59" transform="translate(-33.76 14) rotate(-5.65)"/><circle class="cls-4" cx="192.3" cy="348.82" r="14.59"/><circle class="cls-4" cx="259.77" cy="348.82" r="14.59"/><path class="cls-3" d="M341.3,365.82a17,17,0,1,1,17-17A17,17,0,0,1,341.3,365.82Zm0-32a15,15,0,1,0,15,15A15,15,0,0,0,341.3,333.82Z"/><circle class="cls-3" cx="125.3" cy="258.82" r="36"/><circle class="cls-3" cx="192.3" cy="184.82" r="36"/><circle class="cls-3" cx="260.3" cy="91.82" r="36"/><circle class="cls-4" cx="260.3" cy="91.82" r="14"/><circle class="cls-4" cx="192.3" cy="184.82" r="14"/><circle class="cls-4" cx="125.3" cy="258.82" r="14"/><circle class="cls-1" cx="15.3" cy="91.82" r="13"/><circle class="cls-1" cx="15.3" cy="183.82" r="13"/><circle class="cls-1" cx="15.3" cy="258.82" r="13"/><rect class="cls-3" x="15.3" y="-0.18" width="70" height="6.55"/><rect class="cls-3" x="15.3" y="14.55" width="70" height="6.55"/><rect class="cls-3" x="15.3" y="29.28" width="70" height="6.55"/><path class="cls-5" d="M639.86,99.85s18.91,24.22,16.54,41.35,39-23.63,39-23.63S681.21,88,688.89,73.86,639.86,99.85,639.86,99.85Z"/><path class="cls-6" d="M706,590.16s24.82,27.18,20.68,33.08-76.8,28.36-85.07,27.18-12.4-7.09-9.45-8.86S654,629.74,654,629.74l16-18.31s11.81-6.5,11.81-10S706,590.16,706,590.16Z"/><path class="cls-5" d="M664.08,620.29s-9.45,15.36-11.22,16,8.86,21.86,8.86,21.86l24.81-7.68,13.59-11.23-3-15.35Z"/><path class="cls-7" d="M638.68,327.29l-11.81,52.57s-40.76,91.57-12.41,107.52l62,118.73,33.08-14.77L654,469.65l25.4-140Z"/><g class="cls-8"><path d="M638.68,327.29l-11.81,52.57s-40.76,91.57-12.41,107.52l62,118.73,33.08-14.77L654,469.65l25.4-140Z"/></g><path class="cls-9" d="M642.82,335.56h-6a334.76,334.76,0,0,0,3,54.34c4.14,30.13,14.77,99.25,14.77,99.25s-1.18,13,2.36,17.13,4.14-1.18,4.73,8.27,6.2,75.17,6.2,75.17,3.84,13.44-.29,16.39-12.41,18.91-6.5,21.27,46.67,5.32,48.44,3.54,0-112.83,0-112.83-1.18-22.44-2.36-23.63-6.5-17.13-4.73-20.67.59-14.18.59-16-5.32,0-.59-7.68S707.8,381,707.8,381s25.4-39,17.72-49Z"/><circle class="cls-5" cx="656.4" cy="69.72" r="38.99"/><path class="cls-10" d="M695.39,111.08s-23.63,5.9-33.08,20.08L654,132.93v8.27s-15.36,49-11.81,70.3,0,62.62-5.91,73.84-7.68,13.59-4.73,18.32,7.09,20.67,4.14,27.76,0,14.18,27.17,15.95,65.57,1.77,65.57-7.68-2.36-36,0-43.12,3.55-11.82,2.37-18.32,2.36-79.15,2.36-79.15S733.79,126.44,695.39,111.08Z"/><path class="cls-5" d="M639.86,293.61l-32.49,48.44s-34.26,31.31-21.86,45.49,44.9-41.35,44.9-41.35L665.85,306Z"/><path class="cls-6" d="M660.54,639.19s-1.18-7.68-5.32-7.68-31.9,18.91-31.9,18.91-38.11,16.4-22,17.4,100.59,3.27,101.18.32,1.77-32.08-2.36-32-37.22,6.59-37.22,6.59Z"/><path class="cls-9" d="M659.18,49.58a9.74,9.74,0,0,1-4.46,1c-1.59.09-3.5,0-4.34-1.36a6.16,6.16,0,0,1-.54-2.84,9.35,9.35,0,0,0-10.51-8l-.42.06A13.52,13.52,0,0,0,640.65,44a11.85,11.85,0,0,1-10.42-1.38l-.6,7.95c-2.12,1-4.83,1.23-6.68-.22s-2-4.85.09-5.92c-2.58-.54-5.74-1.7-5.93-4.33-.17-2.4,2.38-4.16,2.85-6.52.38-1.92-.67-4,.07-5.83,1-2.38,4.55-3,5.26-5.47.36-1.27-.16-2.62,0-3.92.32-3.43,4.63-4.85,8.06-4.65s7.18,1.1,10.1-.72c1.41-.88,2.4-2.29,3.64-3.41a10.82,10.82,0,0,1,12.57-1.09c1.38.86,2.58,2,4.12,2.57,3.15,1.07,6.44-.95,9.74-1.42a8.09,8.09,0,0,1,6.77,2,5.52,5.52,0,0,1,1,6.68c1.94-.32,4-.64,5.81.08s3.21,2.91,2.37,4.68a6,6,0,0,0-.74,1.5c-.17,1,.82,1.91,1.82,2.21s2.09.24,3.07.59c4,1.49,3.08,8,6.27,10.86a24.37,24.37,0,0,0,3.45,2.12,8.39,8.39,0,0,1,3,10.15c-.63,1.42-1.7,2.77-1.58,4.31.19,2.17,2.51,3.36,4.14,4.8a9.62,9.62,0,0,1,2.24,11c-1.5,3.13-4.75,5.5-5.07,9-.15,1.5.3,3,.28,4.5a9.34,9.34,0,0,1-4,7,20.8,20.8,0,0,1-7.67,3.18c-1.29.31-2.82.79-3.13,2.08-.37,1.53,1.33,2.92,1.15,4.48a2.58,2.58,0,0,1-1,1.68c-2.3,1.8-6,.26-7.36-2.3s-1.23-5.67-1-8.59L684,81c.25-3.3.23-7.22-2.46-9.15-3-2.13-7.31-.4-10.67-1.84s-4.77-5.9-4.63-9.71,1.24-7.62.61-11.38c-.78-4.67-4.92-7.8-9.11-4.78C661.45,43.65,662.08,47.87,659.18,49.58Z"/><g class="cls-8"><path d="M691.85,139.43s-23.63,9.45-23.63,29.54,1.18,46.67-3,55.53-7.68,11.81-5.31,18.9,6.5,5.91,0,11.23-5.91-3.55-6.5,5.31,5.91,10,0,14.18-21.27,20.68-14.77,26,23.63,22.45,29.54,15.95,8.86-23,17.13-21.86,9.45,1.78,8.27-4.13-6.5-5.91.59-7.68,10,2.36,7.68-3.54-4.14-8.27.59-14.77,7.09-8.27,6.5-14.77,13-65,13-65S726.11,134.71,691.85,139.43Z"/></g><g class="cls-8"><path d="M685.35,138.25s-23.63,9.45-23.63,29.54,1.18,46.67-3,55.53-7.68,11.81-5.32,18.9,6.5,5.91,0,11.22-5.91-3.54-6.5,5.32,5.91,10,0,14.18-21.27,20.67-14.77,26,23.63,22.45,29.54,15.95,8.86-23,17.13-21.86,9.45,1.78,8.27-4.13-6.5-5.91.59-7.68,10,2.36,7.68-3.55-4.13-8.27.59-14.76,7.09-8.27,6.5-14.77,13-65,13-65S719.61,133.52,685.35,138.25Z"/></g><path class="cls-10" d="M688.3,136.48s-23.63,9.45-23.63,29.53,1.18,46.67-2.95,55.53-7.68,11.82-5.32,18.91,6.5,5.9,0,11.22-5.9-3.54-6.5,5.32,5.91,10,0,14.18-21.26,20.67-14.76,26,23.63,22.45,29.53,15.95,8.86-23,17.13-21.86,9.46,1.77,8.27-4.13-6.49-5.91.6-7.68,10,2.36,7.68-3.55-4.14-8.27.59-14.77,7.08-8.27,6.49-14.77,13-65,13-65S722.57,131.75,688.3,136.48Z"/><rect class="cls-3" x="278.3" y="667.82" width="540" height="2"/><rect class="cls-3" x="299.3" y="477.82" width="70" height="6.55"/><rect class="cls-3" x="299.3" y="492.55" width="70" height="6.55"/><rect class="cls-3" x="299.3" y="507.28" width="70" height="6.55"/><path class="cls-3" d="M409.08,477.36v95.71L326.29,620.8a95.47,95.47,0,1,0,82.79-143.44Z"/><circle class="cls-4" cx="408.83" cy="572.82" r="36.3"/></svg>