<?xml version="1.0" encoding="utf-8"?>
<!-- Generator: Adobe Illustrator 24.0.0, SVG Export Plug-In . SVG Version: 6.00 Build 0)  -->
<svg version="1.1" id="Capa_1" xmlns="http://www.w3.org/2000/svg" xmlns:xlink="http://www.w3.org/1999/xlink" x="0px" y="0px"
	 viewBox="0 0 420.6 479.8" style="enable-background:new 0 0 420.6 479.8;" xml:space="preserve">
<style type="text/css">
	.st0{fill:#7BB470;}
</style>
<title>profesor</title>
<path class="st0" d="M94.6,299.6H45.8c-3.6-28.9-5.1-56.4-10.6-83.1c-19-92.6,46.4-198,133.5-213.1
	c136.2-23.6,242.5,82.3,212.6,210.7c-6.2,26.7-7.1,54.5-10.9,85.2h-43.8c51,37.8,78.3,81.5,89.6,134.5c9,42.3,6.7,45.8-37.4,45.8
	c-116,0-232.1-0.4-348.1,0.4c-24.2,0.2-34-4.7-29.9-30.3C10.6,388.7,37.4,338.1,94.6,299.6z M122.8,99.1
	c-8.7,35.3-21.2,65.6-22.2,96.3c-0.8,22.4,8,49.2,22.3,67.1c25.9,32.4,92.9,37.7,138,17.2c48.3-21.9,75.1-65,70.2-110.1
	c-2-18.5-10.5-25.7-30.3-25.8C240.6,143.5,183.2,131.5,122.8,99.1L122.8,99.1z M141.9,455.9c42.1,0,82.5,0.4,122.9-0.5
	c5-0.1,13.2-6.3,14.1-10.7c6.6-31.6,11.8-63.5,18.3-100.3c-60.9,32.5-117.1,30.9-175.4,0.4C128.8,383.3,134.9,417.2,141.9,455.9
	L141.9,455.9z M291.3,310.5c-54.3-7.8-108.4-7.1-169-0.7C178.4,355.8,241.1,355.7,291.3,310.5z"/>
</svg>
