<?xml version="1.0" encoding="utf-8"?>
<!-- Generator: Adobe Illustrator 24.0.0, SVG Export Plug-In . SVG Version: 6.00 Build 0)  -->
<svg version="1.1" id="Capa_1" xmlns="http://www.w3.org/2000/svg" xmlns:xlink="http://www.w3.org/1999/xlink" x="0px" y="0px"
	 viewBox="0 0 939.1 379.7" style="enable-background:new 0 0 939.1 379.7;" xml:space="preserve">
<style type="text/css">
	.st0{fill:none;stroke:#387EBB;stroke-miterlimit:10;}
	.st1{fill:#0673A0;stroke:#FFFFFF;stroke-width:14;stroke-miterlimit:10;}
	.st2{fill:#32978A;stroke:#FFFFFF;stroke-width:14;stroke-miterlimit:10;}
	.st3{fill:#75B668;stroke:#FFFFFF;stroke-width:14;stroke-miterlimit:10;}
	.st4{fill:none;}
	.st5{fill:#FFFFFF;}
	.st6{font-family:'AvenirNext-DemiBold';}
	.st7{font-size:18px;}
	.st8{font-family:'AvenirNext-Regular';}
	.st9{font-size:17px;}
	.st10{font-size:14px;}
	.st11{fill:#CCCACA;}
	.st12{fill:#7D7C7E;}
	.st13{fill:#5B585A;}
	.st14{fill:#FFFFFF;stroke:#5B595A;stroke-width:5;stroke-miterlimit:10;}
	.st15{fill:none;stroke:#1D749C;stroke-miterlimit:10;}
</style>
<g>
	<polygon class="st0" points="280.8,48.9 97,48.9 5.1,208.1 97,367.3 280.8,367.3 372.7,208.1 	"/>
	<polygon class="st0" points="559,48.4 378.5,48.4 288.3,208.1 378.5,367.8 559,367.8 649.2,208.1 	"/>
	<polygon class="st0" points="843.3,48.9 659.5,48.9 567.6,208.1 659.5,367.3 843.3,367.3 935.1,208.1 	"/>
	<polygon class="st1" points="274.3,60.2 103.5,60.2 18.1,208.1 103.5,356 274.3,356 359.7,208.1 	"/>
	<polygon class="st2" points="554.2,60.2 383.4,60.2 298,208.1 383.4,356 554.2,356 639.5,208.1 	"/>
	<polygon class="st3" points="836.7,67.3 666,67.3 580.6,215.2 666,363.1 836.7,363.1 922.1,215.2 	"/>
	<rect x="670.8" y="90.4" class="st4" width="161.1" height="23.8"/>
	<text transform="matrix(1 0 0 1 719.5232 104.0328)" class="st5 st6 st7">COSTO</text>
	<rect x="78.4" y="126.5" class="st4" width="210.1" height="33.7"/>
	<text transform="matrix(1 0 0 1 142.7942 139.3992)" class="st5 st8 st9">250 horas.</text>
	<rect x="360" y="138.2" class="st4" width="217.5" height="53"/>
	<text transform="matrix(1 0 0 1 371.6159 148.8393)" class="st5 st8 st10">Sala D, Facultad de Ingeniería, </text>
	<text transform="matrix(1 0 0 1 375.0159 165.6393)" class="st5 st8 st10">UNAM (Edificio P planta baja, </text>
	<text transform="matrix(1 0 0 1 411.3159 182.4393)" class="st5 st8 st10">laboratorio P003). </text>
	<rect x="638.1" y="154.2" class="st4" width="226.5" height="100.6"/>
	<text transform="matrix(1 0 0 1 649.1143 164.8391)" class="st5 st8 st10">Participantes externos:  $36,000 </text>
	<text transform="matrix(1 0 0 1 659.4143 198.4391)" class="st5 st8 st10">Profesores y egresados de la </text>
	<text transform="matrix(1 0 0 1 646.4143 215.2391)" class="st5 st8 st10">UNAM  $18,000,  incluye 50% de </text>
	<text transform="matrix(1 0 0 1 717.6143 232.0391)" class="st5 st8 st10">descuento </text>
	<g>
		<circle class="st11" cx="107.5" cy="65.9" r="39.8"/>
		<g id="F1sIgx.tif_3_">
			<g>
				<path class="st11" d="M159.6,60.3c-3.5,4.2-7,8.4-10.5,12.6c-1.2,1.4-2.4,1.3-3.6-0.1c-3.2-3.8-6.4-7.5-9.5-11.4
					c-0.5-0.6-0.7-1.6-0.6-2.4c0.2-1.1,1.3-1.2,2.3-1.2c1.7,0,3.5,0,5.4,0c-0.6-3.3-1.7-6.1-3.2-8.8c-6-10.9-15.2-17.5-27.4-19.2
					c-19-2.7-37.1,9.9-40.9,29.1c-4,20.3,9.7,39.6,30.2,43c14.5,2.4,29.3-4.5,37.2-17.3c0.7-1.2,1.5-2.1,2.9-2.3
					c1.7-0.3,3.1,0.2,4.1,1.6c1,1.5,1.1,3.1,0.1,4.5c-2.5,3.4-4.9,7-7.9,9.9c-9.4,8.9-20.8,12.8-33.8,12.1
					c-20.3-1.2-37.5-16.8-40.8-37.1c-3.9-23.8,12-46.5,35.6-50.8c1.9-0.3,3.8-0.6,5.7-0.9c1.8,0,3.6,0,5.4,0
					c0.4,0.1,0.7,0.2,1.1,0.3c3,0.6,6.2,0.8,9.1,1.7c16.3,5.3,26.5,16.3,30.7,32.9c0.3,1.3,0.8,1.6,2,1.6c1.1-0.1,2.3,0.1,3.4,0
					c1.4-0.1,2.4,0.3,3.1,1.5C159.6,59.7,159.6,60,159.6,60.3z"/>
				<path class="st11" d="M103.5,47.4c0-3.8,0-7.6,0-11.4c0-2.9,1.9-4.7,4.5-4.4c2.2,0.2,3.6,2,3.6,4.7c0,7.3,0,14.6,0,21.8
					c0,1.3,0.2,2.2,1.2,3.2c0.7,0.6,1.3,1.6,1.4,2.6c0.2,1.3,1,1.8,2,2.4c4,2.3,8,4.6,12.1,6.9c2.4,1.4,3.2,3.7,1.9,5.8
					c-1.2,2.1-3.6,2.5-6,1.1c-4.2-2.4-8.3-4.8-12.5-7.1c-0.6-0.3-1.5-0.5-2.2-0.3c-3.1,0.8-6.4-0.4-8-3.1c-1.6-2.8-1.2-6.1,1-8.6
					c0.5-0.6,0.9-1.5,0.9-2.3C103.5,54.9,103.5,51.1,103.5,47.4z M110.6,65.9c0-1.7-1.3-3-3-3s-3.1,1.3-3.1,3s1.4,3.2,3.1,3.2
					C109.2,68.9,110.6,67.5,110.6,65.9z"/>
			</g>
		</g>
	</g>
	<g>
		<circle class="st11" cx="673.3" cy="62.5" r="37.3"/>
		<g id="_x31_LsZKm.tif_3_">
			<g>
				<path class="st11" d="M671.2,17.4c1.4,0,2.8,0,4.2,0c0.2,0,0.5,0.1,0.7,0.1c4.3,0.2,8.5,1.1,12.5,2.6
					c10.5,3.9,18.4,10.8,23.7,20.6c2.6,4.7,4.2,9.8,4.9,15.2c0.1,1.2,0.3,2.5,0.4,3.7c0,1.4,0,2.8,0,4.2c0,0.3-0.1,0.5-0.1,0.8
					c-0.3,2.4-0.5,4.8-1,7.1c-2.4,10.4-7.9,18.9-16.4,25.3c-10.5,7.9-22.4,10.6-35.3,8.1c-10.9-2.1-19.8-7.8-26.6-16.6
					c-6.6-8.7-9.5-18.5-8.9-29.4c0.2-4.3,1.1-8.6,2.6-12.6c3.9-10.5,10.9-18.4,20.7-23.7c4.7-2.6,9.8-4.2,15.2-4.9
					C668.8,17.7,670,17.6,671.2,17.4z M710.7,61.6c-0.1-20.7-16.8-37.4-37.5-37.4c-20.8,0-37.4,16.8-37.4,37.4
					c0,20.8,16.8,37.5,37.5,37.4C694.1,99.1,710.7,82.3,710.7,61.6z"/>
				<path class="st11" d="M668.7,31.4h7.8c0.3,0,0.5,0.2,0.5,0.5v5.4c0,0.3,0.2,0.5,0.5,0.5c5.1,0.8,9.3,3.1,12.2,7.4
					c1.4,2.1,2.1,4.5,2.2,7c0,0.3-0.2,0.6-0.5,0.6H683c-0.2,0-0.5-0.2-0.5-0.4c-0.6-2.5-1.9-4.5-4.5-5.3c-0.3-0.1-0.7,0.2-0.7,0.5
					v8.7c0,0.2,0.2,0.5,0.4,0.5c2.1,0.5,4.2,0.9,6.2,1.5c3.1,1,5.7,2.6,7.4,5.5c1.3,2.2,1.8,4.6,1.5,7.1c-0.7,7-5.2,11-11.4,13.4
					c-0.7,0.3-1.4,0.4-2.1,0.6c-0.5,0.1-1.1,0.2-1.7,0.3c-0.3,0-0.5,0.3-0.5,0.5v5.5c0,0.3-0.2,0.5-0.5,0.5h-8
					c-0.3,0-0.5-0.2-0.5-0.5v-5.6c0-0.2-0.2-0.5-0.4-0.5c-8.3-1.8-14.3-8.3-14.8-16c0-0.3,0.2-0.6,0.5-0.6l0,0c2.8,0,5.6,0,8.4,0
					c0.4,0,0.6,0.1,0.7,0.6c0.4,1.9,1,3.6,2.4,5c0.7,0.7,1.5,1.1,2.4,1.5c0.3,0.1,0.7-0.1,0.7-0.5v-9.6c0-0.2-0.2-0.5-0.4-0.5
					c-1.4-0.3-2.8-0.6-4.1-1c-2.1-0.6-4.1-1.5-5.9-2.9c-2.9-2.4-4.1-5.6-4.1-9.3c0.1-5.2,2.8-8.8,7.1-11.4c2.2-1.3,4.5-2.2,7.1-2.5
					c0.1,0,0.4-0.4,0.4-0.6c0-1.7,0-3.4,0-5.1v-0.3C668.1,31.6,668.4,31.4,668.7,31.4z M677.9,75.8c0.7-0.1,1.3-0.3,1.9-0.5
					c7.2-2.7,7-6.7-0.5-8.4c-0.5-0.1-0.9-0.2-1.4-0.2c-0.3,0-0.6,0.2-0.6,0.5v8.1C677.3,75.6,677.6,75.9,677.9,75.8z M668.1,47.8
					c0-0.3-0.3-0.6-0.6-0.5c-1.3,0.3-2.5,0.9-3.4,2.1c-1,1.3-1.1,3-0.1,4.3c0.9,1.2,2.2,1.6,3.6,1.7c0.3,0,0.6-0.2,0.6-0.5
					L668.1,47.8L668.1,47.8z"/>
			</g>
		</g>
	</g>
	<rect x="105.9" y="90.4" class="st4" width="161.1" height="23.8"/>
	<text transform="matrix(1 0 0 1 137.6616 104.0328)" class="st5 st6 st7">DURACIÓN</text>
	<g>
		<circle class="st5" cx="99.4" cy="58" r="39.8"/>
		<g id="F1sIgx.tif_1_">
			<g>
				<path class="st12" d="M151.5,52.3c-3.5,4.2-7,8.4-10.5,12.6c-1.2,1.4-2.4,1.3-3.6-0.1c-3.2-3.8-6.4-7.5-9.5-11.4
					c-0.5-0.6-0.7-1.6-0.6-2.4c0.2-1.1,1.3-1.2,2.3-1.2c1.7,0,3.5,0,5.4,0c-0.6-3.3-1.7-6.1-3.2-8.8c-6-10.9-15.2-17.5-27.4-19.2
					c-19-2.7-37.1,9.9-40.9,29.1c-4,20.3,9.7,39.6,30.2,43c14.5,2.4,29.3-4.5,37.2-17.3c0.7-1.2,1.5-2.1,2.9-2.3
					c1.7-0.3,3.1,0.2,4.1,1.6c1,1.5,1.1,3.1,0.1,4.5c-2.5,3.4-4.9,7-7.9,9.9c-9.4,8.9-20.8,12.8-33.8,12.1
					c-20.4-1.4-37.6-17-40.9-37.2c-3.9-23.8,12-46.5,35.6-50.8c1.9-0.3,3.8-0.6,5.7-0.9c1.8,0,3.6,0,5.4,0c0.4,0.1,0.7,0.2,1.1,0.3
					c3,0.6,6.2,0.8,9.1,1.7c16.3,5.3,26.5,16.3,30.7,32.9c0.3,1.3,0.8,1.6,2,1.6c1.1-0.1,2.3,0.1,3.4,0c1.4-0.1,2.4,0.3,3.1,1.5
					C151.5,51.7,151.5,52,151.5,52.3z"/>
				<path class="st12" d="M95.3,39.5c0-3.8,0-7.6,0-11.4c0-2.9,1.9-4.7,4.5-4.4c2.2,0.2,3.6,2,3.6,4.7c0,7.3,0,14.6,0,21.8
					c0,1.3,0.2,2.2,1.2,3.2c0.7,0.6,1.3,1.6,1.4,2.6c0.2,1.3,1,1.8,2,2.4c4,2.3,8,4.6,12.1,6.9c2.4,1.4,3.2,3.7,1.9,5.8
					c-1.2,2.1-3.6,2.5-6,1.1c-4.2-2.4-8.3-4.8-12.5-7.1c-0.6-0.3-1.5-0.5-2.2-0.3c-3.1,0.8-6.4-0.4-8-3.1c-1.6-2.8-1.2-6.1,1-8.6
					c0.5-0.6,0.9-1.5,0.9-2.3C95.4,46.9,95.3,43.2,95.3,39.5z M102.4,57.9c0-1.7-1.3-3-3-3s-3.1,1.3-3.1,3s1.4,3.2,3.1,3.2
					C101.1,61,102.4,59.6,102.4,57.9z"/>
			</g>
		</g>
	</g>
	<g>
		<circle class="st5" cx="668.3" cy="57.9" r="37.3"/>
		<g id="_x31_LsZKm.tif_2_">
			<g>
				<path class="st13" d="M666.2,12.9c1.4,0,2.8,0,4.2,0c0.2,0,0.5,0.1,0.7,0.1c4.3,0.2,8.5,1.1,12.5,2.6
					c10.5,3.9,18.4,10.8,23.7,20.6c2.6,4.7,4.2,9.8,4.9,15.2c0.1,1.2,0.3,2.5,0.4,3.7c0,1.4,0,2.8,0,4.2c0,0.3-0.1,0.5-0.1,0.8
					c-0.3,2.4-0.5,4.8-1,7.1c-2.4,10.4-7.9,18.9-16.4,25.3c-10.5,7.9-22.4,10.6-35.3,8.1c-10.9-2.1-19.8-7.8-26.6-16.6
					c-6.6-8.7-9.5-18.5-8.9-29.4c0.2-4.3,1.1-8.6,2.6-12.6c3.9-10.5,10.9-18.4,20.7-23.7c4.7-2.6,9.8-4.2,15.2-4.9
					C663.8,13.2,665,13,666.2,12.9z M705.7,57.1c-0.1-20.7-16.8-37.4-37.5-37.4c-20.8,0-37.4,16.8-37.4,37.4
					c0,20.8,16.8,37.5,37.5,37.4C689.1,94.6,705.7,77.8,705.7,57.1z"/>
				<path class="st13" d="M663.6,26.9h7.8c0.3,0,0.5,0.2,0.5,0.5v5.4c0,0.3,0.2,0.5,0.5,0.5c5.1,0.8,9.3,3.1,12.2,7.4
					c1.4,2.1,2.1,4.5,2.2,7c0,0.3-0.2,0.6-0.5,0.6h-8.4c-0.2,0-0.5-0.2-0.5-0.4c-0.6-2.5-1.9-4.5-4.5-5.3c-0.3-0.1-0.7,0.2-0.7,0.5
					v8.7c0,0.2,0.2,0.5,0.4,0.5c2.1,0.5,4.2,0.9,6.2,1.5c3.1,1,5.7,2.6,7.4,5.5c1.3,2.2,1.8,4.6,1.5,7.1c-0.7,7-5.2,11-11.4,13.4
					c-0.7,0.3-1.4,0.4-2.1,0.6c-0.5,0.1-1.1,0.2-1.7,0.3c-0.3,0-0.5,0.3-0.5,0.5v5.5c0,0.3-0.2,0.5-0.5,0.5h-8
					c-0.3,0-0.5-0.2-0.5-0.5v-5.6c0-0.2-0.2-0.5-0.4-0.5c-8.3-1.8-14.3-8.3-14.8-16c0-0.3,0.2-0.6,0.5-0.6l0,0c2.8,0,5.6,0,8.4,0
					c0.4,0,0.6,0.1,0.7,0.6c0.4,1.9,1,3.6,2.4,5c0.7,0.7,1.5,1.1,2.4,1.5c0.3,0.1,0.7-0.1,0.7-0.5V61c0-0.2-0.2-0.5-0.4-0.5
					c-1.4-0.3-2.8-0.6-4.1-1c-2.1-0.6-4.1-1.5-5.9-2.9c-2.9-2.4-4.1-5.6-4.1-9.3c0.1-5.2,2.8-8.8,7.1-11.4c2.2-1.3,4.5-2.2,7.1-2.5
					c0.1,0,0.4-0.4,0.4-0.6c0-1.7,0-3.4,0-5.1v-0.3C663.1,27.1,663.4,26.9,663.6,26.9z M672.9,71.3c0.7-0.1,1.3-0.3,1.9-0.5
					c7.2-2.7,7-6.7-0.5-8.4c-0.5-0.1-0.9-0.2-1.4-0.2c-0.3,0-0.6,0.2-0.6,0.5v8.1C672.3,71.1,672.6,71.4,672.9,71.3z M663.1,43.3
					c0-0.3-0.3-0.6-0.6-0.5c-1.3,0.3-2.5,0.9-3.4,2.1c-1,1.3-1.1,3-0.1,4.3c0.9,1.2,2.2,1.6,3.6,1.7c0.3,0,0.6-0.2,0.6-0.5
					L663.1,43.3L663.1,43.3z"/>
			</g>
		</g>
	</g>
	<rect x="388.9" y="90.4" class="st4" width="161.1" height="23.8"/>
	<text transform="matrix(1 0 0 1 446.4077 104.0328)" class="st5 st6 st7">SEDE</text>
	<rect x="102.9" y="161.4" class="st4" width="161.1" height="23.8"/>
	<text transform="matrix(1 0 0 1 118.092 175.0181)" class="st5 st6 st7">Fecha de inicio:</text>
	<rect x="91" y="231" class="st4" width="161.1" height="23.8"/>
	<text transform="matrix(1 0 0 1 120.7186 244.6034)" class="st5 st6 st7">Fecha de fin</text>
	<rect x="78.4" y="191.2" class="st4" width="210.1" height="33.7"/>
	<text transform="matrix(1 0 0 1 120.8049 204.1232)" class="st5 st8 st9">14/agosto/2020 </text>
	<rect x="77.4" y="267" class="st4" width="210.1" height="33.7"/>
	<text transform="matrix(1 0 0 1 119.8049 279.9266)" class="st5 st8 st9">14/agosto/2020 </text>
	<rect x="388.7" y="215.2" class="st4" width="161.1" height="23.8"/>
	<text transform="matrix(1 0 0 1 394.6908 228.8647)" class="st5 st6 st7">Horario de clases: </text>
	<rect x="360" y="240.5" class="st4" width="217.5" height="53"/>
	<text transform="matrix(1 0 0 1 369.3698 251.1508)" class="st5 st8 st10">Viernes    16:00 hrs a  21:00 hrs </text>
	<text transform="matrix(1 0 0 1 367.1698 284.7508)" class="st5 st8 st10">Sábados  09:00 hrs a  14:00 hrs.</text>
	<g>
		<g>
			<g>
				<path class="st11" d="M394.6,6.8c-16.3,0-29.6,13.3-29.6,29.6c0,4.9,1.2,9.8,3.6,14.1L393,94.9c0.3,0.6,0.9,1,1.6,1
					s1.3-0.4,1.6-1l24.5-44.3c2.3-4.3,3.6-9.2,3.6-14.1C424.3,20.1,411,6.8,394.6,6.8z M394.6,51.3c-8.2,0-14.8-6.7-14.8-14.8
					s6.7-14.8,14.8-14.8s14.8,6.7,14.8,14.8S402.8,51.3,394.6,51.3z"/>
			</g>
		</g>
		<g>
			<path class="st14" d="M388.8,4.4c-16.3,0-29.6,13.3-29.6,29.6c0,4.9,1.2,9.8,3.6,14.1l24.4,44.4c0.3,0.6,0.9,1,1.6,1
				s1.3-0.4,1.6-1l24.5-44.3c2.3-4.3,3.6-9.2,3.6-14.1C418.5,17.7,405.2,4.4,388.8,4.4z M388.8,48.9c-8.2,0-14.8-6.7-14.8-14.8
				s6.7-14.8,14.8-14.8s14.8,6.7,14.8,14.8S397,48.9,388.8,48.9z"/>
		</g>
	</g>
</g>
<line class="st15" x1="659.5" y1="367.3" x2="843.3" y2="367.3"/>
</svg>
