<svg id="Capa_1" data-name="Capa 1" xmlns="http://www.w3.org/2000/svg" viewBox="0 0 487.27 340.15"><defs><style>.cls-1{fill:#484747;}.cls-2{fill:#d9d8d8;}.cls-3{fill:#858686;}.cls-4{fill:#b1b0b0;}.cls-5{fill:#c6c5c4;}.cls-6{fill:#ecebeb;}.cls-7{fill:#bbbc38;}.cls-8{fill:#fff;}.cls-9{fill:#e19933;}.cls-10{fill:#6e6f2b;}.cls-11{fill:#c84262;}.cls-12{fill:#3c95ce;}.cls-13{fill:#77b4b3;}.cls-14{fill:#d27ba0;}.cls-15{fill:#0a2955;}</style></defs><title>Sin título-1</title><ellipse class="cls-1" cx="409.82" cy="268.63" rx="77.46" ry="17.49"/><ellipse class="cls-2" cx="410.78" cy="202.34" rx="40.53" ry="8.83"/><ellipse class="cls-3" cx="410.78" cy="247.12" rx="40.53" ry="9.21"/><ellipse class="cls-3" cx="410.78" cy="224.83" rx="40.53" ry="9.11"/><path class="cls-4" d="M370,202.71s.2,3.66,12.93,6.13c5.87,1.13,14.79,1.73,26.94,2,17.34.36,28.29-1.59,34.55-3.88,4.48-1.63,6.63-3.61,6.63-4.24v17.91s-.54,8.5-40.52,8.14S370,220.08,370,220.08Z" transform="translate(0.23 -0.03)"/><path class="cls-5" d="M405.7,201.92l-28.2-4.57s11-3.32,17.37-3.11l10.83,5.87Z" transform="translate(0.23 -0.03)"/><path class="cls-5" d="M411.93,204.1l.92-.77,30.85,4a69.86,69.86,0,0,1-16.54,3Z" transform="translate(0.23 -0.03)"/><path class="cls-4" d="M370,247.31s1.82,3.62,11.94,6.28c6.08,1.59,15.81,2.77,28.59,2.77,20.47,0,30.53-2.92,35.34-4.83,3.64-1.45,5.18-2.81,5.18-4.22v18.28s-.54,8.67-40.52,8.3S370,265,370,265Z" transform="translate(0.23 -0.03)"/><path class="cls-4" d="M370,225.1s4.66,9.07,40.53,8.87c17-.1,26.56-2,32.25-3.6,6.09-1.74,8.27-4.08,8.27-5.27V243s-.54,8.5-40.52,8.14S370,242.47,370,242.47Z" transform="translate(0.23 -0.03)"/><path class="cls-6" d="M406.81,203.78,381,208.43v62.76s-5.76-1.47-7.6-2.69V205.72Z" transform="translate(0.23 -0.03)"/><ellipse class="cls-1" cx="77.46" cy="268.63" rx="77.46" ry="17.49"/><ellipse class="cls-2" cx="78.42" cy="202.34" rx="40.53" ry="8.83"/><ellipse class="cls-3" cx="78.42" cy="247.12" rx="40.53" ry="9.21"/><ellipse class="cls-3" cx="78.42" cy="224.83" rx="40.53" ry="9.11"/><path class="cls-4" d="M37.67,202.71s.2,3.66,12.93,6.13c5.87,1.13,14.78,1.73,26.94,2,17.33.36,28.29-1.59,34.55-3.88,4.47-1.63,6.63-3.61,6.63-4.24v17.91s-.54,8.5-40.53,8.14-40.52-8.68-40.52-8.68Z" transform="translate(0.23 -0.03)"/><path class="cls-5" d="M73.34,201.92l-28.2-4.57s11-3.32,17.37-3.11l10.83,5.87Z" transform="translate(0.23 -0.03)"/><path class="cls-5" d="M79.57,204.1l.92-.77,30.85,4a70,70,0,0,1-16.54,3Z" transform="translate(0.23 -0.03)"/><path class="cls-4" d="M37.67,247.31s1.82,3.62,11.94,6.28c6.08,1.59,15.81,2.77,28.58,2.77,20.47,0,30.54-2.92,35.35-4.83,3.64-1.45,5.18-2.81,5.18-4.22v18.28s-.54,8.67-40.53,8.3S37.67,265,37.67,265Z" transform="translate(0.23 -0.03)"/><path class="cls-4" d="M37.67,225.1s4.66,9.07,40.52,8.87c17-.1,26.57-2,32.26-3.6,6.09-1.74,8.27-4.08,8.27-5.27V243s-.54,8.5-40.53,8.14-40.52-8.69-40.52-8.69Z" transform="translate(0.23 -0.03)"/><path class="cls-6" d="M74.45,203.78l-25.84,4.65v62.76s-5.75-1.47-7.59-2.69V205.72Z" transform="translate(0.23 -0.03)"/><path class="cls-7" d="M409.9,197.64a.76.76,0,0,1-.75-.75V117a.75.75,0,0,1,1.5,0v79.92A.75.75,0,0,1,409.9,197.64Z" transform="translate(0.23 -0.03)"/><circle class="cls-8" cx="409.73" cy="94.16" r="23.18"/><path class="cls-7" d="M409.51,118.12a23.93,23.93,0,1,1,23.93-23.93A24,24,0,0,1,409.51,118.12Zm0-46.36a22.43,22.43,0,1,0,22.43,22.43A22.46,22.46,0,0,0,409.51,71.76Z" transform="translate(0.23 -0.03)"/><ellipse class="cls-1" cx="221.74" cy="315.49" rx="109.18" ry="24.66"/><ellipse class="cls-2" cx="223.11" cy="222.05" rx="57.13" ry="12.45"/><ellipse class="cls-3" cx="223.11" cy="285.17" rx="57.13" ry="12.98"/><ellipse class="cls-3" cx="223.11" cy="253.74" rx="57.13" ry="12.85"/><path class="cls-4" d="M165.75,222.56s.29,5.16,18.23,8.63c8.28,1.6,20.84,2.45,38,2.81,24.43.51,39.87-2.24,48.69-5.46,6.31-2.3,9.36-5.09,9.36-6V247.8s-.77,12-57.13,11.48S165.75,247,165.75,247Z" transform="translate(0.23 -0.03)"/><path class="cls-5" d="M216,221.45,176.28,215s15.54-4.67,24.49-4.39L216,218.89Z" transform="translate(0.23 -0.03)"/><path class="cls-5" d="M224.82,224.52l1.29-1.09,43.49,5.68a98,98,0,0,1-23.32,4.3Z" transform="translate(0.23 -0.03)"/><path class="cls-4" d="M165.75,285.43s2.57,5.09,16.84,8.84c8.56,2.25,22.28,3.91,40.29,3.91,28.85,0,43.05-4.11,49.82-6.81,5.13-2,7.31-4,7.31-5.94v25.76s-.77,12.23-57.13,11.7-57.13-12.48-57.13-12.48Z" transform="translate(0.23 -0.03)"/><path class="cls-4" d="M165.75,254.12s6.58,12.79,57.13,12.5c23.94-.14,37.44-2.77,45.47-5.07,8.58-2.45,11.66-5.75,11.66-7.43v25.25s-.77,12-57.13,11.48-57.13-12.24-57.13-12.24Z" transform="translate(0.23 -0.03)"/><path class="cls-6" d="M217.6,224.07l-36.42,6.55v88.46s-8.11-2.07-10.7-3.78V226.8Z" transform="translate(0.23 -0.03)"/><path class="cls-9" d="M269.6,216.77a.74.74,0,0,1-.75-.75v-38.1l21.23-20.06h56.5a.75.75,0,0,1,0,1.5h-55.9l-20.33,19.21V216A.75.75,0,0,1,269.6,216.77Z" transform="translate(0.23 -0.03)"/><path class="cls-10" d="M256.19,212.93a.75.75,0,0,1-.75-.75V146.81l25-29.43a.76.76,0,0,1,1.06-.09.75.75,0,0,1,.09,1.06l-24.61,29v64.82A.74.74,0,0,1,256.19,212.93Z" transform="translate(0.23 -0.03)"/><path class="cls-11" d="M243,211.16a.75.75,0,0,1-.75-.75v-123l40.39-47.34h33.66a.75.75,0,0,1,0,1.5h-33L243.72,87.94V210.41A.74.74,0,0,1,243,211.16Z" transform="translate(0.23 -0.03)"/><path class="cls-7" d="M228.48,211.16a.75.75,0,0,1-.75-.75V48.84a.75.75,0,0,1,1.5,0V210.41A.74.74,0,0,1,228.48,211.16Z" transform="translate(0.23 -0.03)"/><path class="cls-12" d="M216.74,210.38a.75.75,0,0,1-.75-.75V153.7a.75.75,0,0,1,1.5,0v55.93A.76.76,0,0,1,216.74,210.38Z" transform="translate(0.23 -0.03)"/><path class="cls-13" d="M202.15,210.38a.76.76,0,0,1-.75-.75V86.1L176.54,64.21a.75.75,0,1,1,1-1.13L202.9,85.42V209.63A.75.75,0,0,1,202.15,210.38Z" transform="translate(0.23 -0.03)"/><path class="cls-14" d="M190,212.93a.74.74,0,0,1-.75-.75V151.92l-45.9-39.46a.75.75,0,0,1,1-1.14l46.42,39.91v61A.75.75,0,0,1,190,212.93Z" transform="translate(0.23 -0.03)"/><path class="cls-9" d="M79.34,194.31a.76.76,0,0,1-.75-.75V69.07a.75.75,0,0,1,1.5,0V193.56A.75.75,0,0,1,79.34,194.31Z" transform="translate(0.23 -0.03)"/><path class="cls-13" d="M65.29,194.29a.76.76,0,0,1-.75-.75V133.13L41.39,112.45a.75.75,0,0,1-.06-1.06.75.75,0,0,1,1.06-.06L66,132.45v61.09A.75.75,0,0,1,65.29,194.29Z" transform="translate(0.23 -0.03)"/><circle class="cls-8" cx="26.82" cy="106.38" r="16.24"/><path class="cls-13" d="M26.59,123.4a17,17,0,1,1,17-17A17,17,0,0,1,26.59,123.4Zm0-32.48a15.49,15.49,0,1,0,15.5,15.49A15.51,15.51,0,0,0,26.59,90.92Z" transform="translate(0.23 -0.03)"/><circle class="cls-8" cx="79.8" cy="46.79" r="22.25"/><path class="cls-9" d="M79.57,69.82a23,23,0,1,1,23-23A23,23,0,0,1,79.57,69.82Zm0-44.5a21.5,21.5,0,1,0,21.5,21.5A21.52,21.52,0,0,0,79.57,25.32Z" transform="translate(0.23 -0.03)"/><circle class="cls-8" cx="122.61" cy="101.24" r="24.3"/><path class="cls-14" d="M122.39,126.32a25.05,25.05,0,1,1,25-25A25.08,25.08,0,0,1,122.39,126.32Zm0-48.6a23.55,23.55,0,1,0,23.54,23.55A23.58,23.58,0,0,0,122.39,77.72Z" transform="translate(0.23 -0.03)"/><circle class="cls-8" cx="163.48" cy="57.13" r="15.23"/><path class="cls-13" d="M163.26,73.13a16,16,0,1,1,16-16A16,16,0,0,1,163.26,73.13Zm0-30.45a14.48,14.48,0,1,0,14.47,14.48A14.5,14.5,0,0,0,163.26,42.68Z" transform="translate(0.23 -0.03)"/><circle class="cls-8" cx="228.93" cy="24.54" r="23.79"/><path class="cls-7" d="M228.7,49.1a24.54,24.54,0,1,1,24.54-24.53A24.55,24.55,0,0,1,228.7,49.1Zm0-47.57a23,23,0,1,0,23,23A23.06,23.06,0,0,0,228.7,1.53Z" transform="translate(0.23 -0.03)"/><circle class="cls-8" cx="337.08" cy="38.35" r="20.59"/><path class="cls-11" d="M336.86,59.72A21.34,21.34,0,1,1,358.2,38.38,21.37,21.37,0,0,1,336.86,59.72Zm0-41.18A19.84,19.84,0,1,0,356.7,38.38,19.86,19.86,0,0,0,336.86,18.54Z" transform="translate(0.23 -0.03)"/><circle class="cls-8" cx="295.65" cy="100.24" r="22.76"/><path class="cls-10" d="M295.42,123.79a23.52,23.52,0,1,1,23.52-23.52A23.54,23.54,0,0,1,295.42,123.79Zm0-45.53a22,22,0,1,0,22,22A22,22,0,0,0,295.42,78.26Z" transform="translate(0.23 -0.03)"/><circle class="cls-8" cx="365.47" cy="158.58" r="18.67"/><path class="cls-9" d="M365.25,178a19.42,19.42,0,1,1,19.42-19.42A19.44,19.44,0,0,1,365.25,178Zm0-37.34a17.92,17.92,0,1,0,17.92,17.92A17.94,17.94,0,0,0,365.25,140.69Z" transform="translate(0.23 -0.03)"/><circle class="cls-8" cx="129.78" cy="162.32" r="18.22"/><path class="cls-15" d="M129.56,181.32a19,19,0,1,1,19-19A19,19,0,0,1,129.56,181.32Zm0-36.44A17.47,17.47,0,1,0,147,162.35,17.49,17.49,0,0,0,129.56,144.88Z" transform="translate(0.23 -0.03)"/><path class="cls-15" d="M178.76,215.5a.75.75,0,0,1-.75-.75V185.33l-31.45-16.78a.75.75,0,1,1,.71-1.32l32.24,17.2v30.32A.74.74,0,0,1,178.76,215.5Z" transform="translate(0.23 -0.03)"/><g id="FBR00F.tif"><path d="M33.53,106.36v8.06a2.47,2.47,0,0,1-.84,1.85,2.69,2.69,0,0,1-1.89.72H23.12A2.71,2.71,0,0,1,21,116a2.49,2.49,0,0,1-.58-1.63V99.77c0-.53,0-1.07,0-1.6a2.39,2.39,0,0,1,.84-1.72,2.61,2.61,0,0,1,1.84-.71h6.22c.58,0,1.17,0,1.74,0a2.56,2.56,0,0,1,1.69.75A2.51,2.51,0,0,1,33.51,98c0,.11,0,.21,0,.32v8ZM22.19,97.69v16h9.55v-16Zm4.66,18.42a.87.87,0,0,0,.89-.87.88.88,0,0,0-.89-.86.89.89,0,0,0-.89.88A.87.87,0,0,0,26.85,116.11Z" transform="translate(0.23 -0.03)"/></g><g id="pUxQLC.tif"><path d="M94.93,46.16H87.12l-.59-5.8h6.62a.5.5,0,0,1,.56.38,15.5,15.5,0,0,1,1.22,5C94.94,45.89,94.93,46,94.93,46.16Z" transform="translate(0.23 -0.03)"/><path d="M73,40.38l-.58,5.77H64.54a17.53,17.53,0,0,1,.28-2.09c.29-1.14.67-2.26,1-3.39a.37.37,0,0,1,.39-.31H73Z" transform="translate(0.23 -0.03)"/><path d="M86.54,53.16l.58-5.77H95a17.09,17.09,0,0,1-.28,2.08c-.29,1.16-.68,2.29-1,3.43a.36.36,0,0,1-.41.28H86.67Z" transform="translate(0.23 -0.03)"/><path d="M64.58,47.39H72.4L73,53.18H66.34a.46.46,0,0,1-.52-.34,15.56,15.56,0,0,1-1.24-5.11Z" transform="translate(0.23 -0.03)"/><path d="M92.91,39.17H88.75c-.75,0-1.5,0-2.25,0-.25,0-.34-.08-.4-.32a16.23,16.23,0,0,0-2-4.84c-.5-.78-1.13-1.48-1.66-2.17,1-.09,4.21,1.23,5.93,2.44A15.34,15.34,0,0,1,92.91,39.17Z" transform="translate(0.23 -0.03)"/><path d="M66.6,54.38h4.12c.73,0,1.46,0,2.19,0,.34,0,.46.11.54.42a15.87,15.87,0,0,0,2,4.87c.49.73,1.08,1.39,1.59,2-.93.1-4.19-1.21-5.93-2.43A15.59,15.59,0,0,1,66.6,54.38Z" transform="translate(0.23 -0.03)"/><path d="M82.3,61.71a8.7,8.7,0,0,0,2.48-3.36c.5-1.17.88-2.4,1.3-3.61.08-.25.17-.37.47-.37,2,0,4,0,6,0l.29,0C91.84,57.39,85.75,61.63,82.3,61.71Z" transform="translate(0.23 -0.03)"/><path d="M77.18,31.84a13.42,13.42,0,0,0-3.72,6.89c-.09.34-.22.45-.57.44H67l-.29,0C67.78,36.08,73.92,31.81,77.18,31.84Z" transform="translate(0.23 -0.03)"/><path d="M74.31,40.38h4.83v5.77H73.69A29.78,29.78,0,0,1,74.31,40.38Z" transform="translate(0.23 -0.03)"/><path d="M80.39,40.36H84.9c.11,0,.31.09.33.17a29.92,29.92,0,0,1,.6,5.61H80.39Z" transform="translate(0.23 -0.03)"/><path d="M85.92,47.4l-.62,5.75H80.39V47.4Z" transform="translate(0.23 -0.03)"/><path d="M79.14,53.18H77.69c-1,0-2,0-3.07,0-.12,0-.31-.09-.33-.17a29.91,29.91,0,0,1-.61-5.6h5.46Z" transform="translate(0.23 -0.03)"/><path d="M80.38,32.15a12,12,0,0,1,1.1.62,6.33,6.33,0,0,1,1.7,2,16.74,16.74,0,0,1,1.73,4.39H80.38Z" transform="translate(0.23 -0.03)"/><path d="M80.38,61.33V54.41h4.53c-.07.24-.12.48-.19.71a13.64,13.64,0,0,1-2.26,4.7,4.36,4.36,0,0,1-1.61,1.34Z" transform="translate(0.23 -0.03)"/><path d="M79.15,32.23v6.91h-4.5a.57.57,0,0,1,0-.13,14,14,0,0,1,2.45-5.33,4,4,0,0,1,1.8-1.38A1.51,1.51,0,0,1,79.15,32.23Z" transform="translate(0.23 -0.03)"/><path d="M79.14,61.39a11.43,11.43,0,0,1-1.07-.59,6.35,6.35,0,0,1-1.79-2.1,16.7,16.7,0,0,1-1.62-4.08,1.3,1.3,0,0,1,0-.22h4.51Z" transform="translate(0.23 -0.03)"/></g><g id="QJswvx.tif"><path d="M129.66,155.21h8.25c.52,0,1,0,1.56,0a1.41,1.41,0,0,1,1.27,1.27c0,.6,0,1.21,0,1.82v10.37a1.48,1.48,0,0,1-1.16,1.48,2.56,2.56,0,0,1-.39,0H120.13a1.49,1.49,0,0,1-1.5-1.08,1.68,1.68,0,0,1-.06-.45v-12a1.44,1.44,0,0,1,.56-1.2,1.41,1.41,0,0,1,.92-.32h9.61ZM138,169l-6-6-.14.12c-.33.29-.66.6-1,.89a1.66,1.66,0,0,1-1.41.39,1.63,1.63,0,0,1-.83-.41l-1.14-1-6.08,6Zm-16.29-12.65.18.16,3.37,3,4.19,3.68a.52.52,0,0,0,.7,0l2.72-2.43,2.36-2.11c.8-.72,1.6-1.44,2.41-2.15l.09-.1Zm4.94,5.88c-.22-.19-.43-.37-.63-.56l-4.63-4L120,156.47c-.08-.08-.15-.07-.19,0a.63.63,0,0,0-.07.26c0,1.12,0,2.23,0,3.35v8.58a.32.32,0,0,0,.11.28Zm6.26,0,6.64,6.68h0c0-.1,0-.21,0-.31v-9.25c0-.88,0-1.75,0-2.63a.66.66,0,0,0-.09-.27c0-.06-.08-.07-.13,0l-.34.3-4.59,4.1Z" transform="translate(0.23 -0.03)"/></g><g id="PcayV8.tif"><path d="M122.8,113.05H108a.69.69,0,0,1-.78-.79V89.11a.69.69,0,0,1,.77-.78h29.58a.7.7,0,0,1,.78.79v14.54c0,.86,0,1.72,0,2.58,0,2,0,4,0,6a.77.77,0,0,1-.84.85c-2.38,0-4.75,0-7.13,0H122.8Zm-14.21-1.35h28.48V94.1H108.59ZM127.65,90v2.07h2.63V90Zm6,0H131v2h2.64Zm3.38,2.06V90h-2.64v2.07Z" transform="translate(0.23 -0.03)"/><path d="M112.9,102.44l.55-2.75H115s.09.08.1.14c.14.6.26,1.21.39,1.81a8,8,0,0,0,.21.81l.52-2.76h1.59l-1.15,4.93h-1.75l-.64-3h0c-.09.4-.18.8-.26,1.2-.12.56-.23,1.12-.36,1.68a.17.17,0,0,1-.12.1c-.54,0-1.08,0-1.65,0l-1.15-4.93h1.65l.56,2.74Z" transform="translate(0.23 -0.03)"/><path d="M134.21,108.75l-1.66,1.49-3.3-3.67-1.43,1.28-2.37-7.17,6.89,3.11-1.43,1.28Z" transform="translate(0.23 -0.03)"/><path d="M119.17,99.7h1.29c.12,0,.27,0,.35,0s.07.22.09.33c.16.78.31,1.56.47,2.33a.12.12,0,0,0,0,.07L122,99.7h1.43a.15.15,0,0,1,.17.14l.54,2.58a.78.78,0,0,0,0,.07l.25-1.3a.45.45,0,0,1,0,.1l.81,2.45a.27.27,0,0,1,0,.15c-.05.25-.11.49-.17.74h-1.65c-.13,0-.12-.1-.13-.16-.11-.53-.22-1.06-.34-1.59s-.17-.82-.29-1.24c0,.18-.08.35-.11.53-.17.77-.34,1.55-.5,2.32,0,.07,0,.13-.12.13h-1.65Z" transform="translate(0.23 -0.03)"/><path d="M132.88,102.49l.53-2.79H135l-1.15,4.92h-1.74l0,0,.86-.77-1-.44a.25.25,0,0,1-.17-.2c-.1-.51-.21-1-.35-1.52l-.29,1.35-.83-.37-1.82-.83a.28.28,0,0,1-.14-.16c-.15-.62-.3-1.25-.44-1.87,0,0,0,0,0-.07h1.64l.56,2.76h0c.07-.32.13-.64.19-.95.12-.57.24-1.14.34-1.7,0-.1.06-.12.15-.12q.65,0,1.29,0c.12,0,.17,0,.19.15l.54,2.58A.17.17,0,0,1,132.88,102.49Z" transform="translate(0.23 -0.03)"/><path d="M126.56,99.69l-.23,1-.29-.13-.48-.22a.14.14,0,0,1,0-.08c0-.18.07-.36.1-.55Z" transform="translate(0.23 -0.03)"/></g><g id="AvizSq.tif"><path d="M175,59.83l-4.37,3.24a3.36,3.36,0,0,1-.54.39,1.15,1.15,0,0,1-.68.17c-.17-.06-.29-.34-.31-.53,0-.49,0-1,0-1.49h-7.48c-.66,0-.81-.13-.81-.66v-2.6c0-.56.14-.68.84-.68H169c0-.5,0-1,0-1.45,0-.2.13-.5.31-.57a1,1,0,0,1,.71.2c1.53,1.1,3,2.23,4.54,3.35a3.4,3.4,0,0,1,.34.32Z" transform="translate(0.23 -0.03)"/></g><g id="AvizSq.tif-2" data-name="AvizSq.tif"><path d="M152.56,54.28,156.94,51a4,4,0,0,1,.53-.39c.21-.09.52-.23.69-.17a.67.67,0,0,1,.3.53c0,.49,0,1,0,1.49H166c.65,0,.8.13.8.66v2.61c0,.55-.14.67-.83.67h-7.45a13.91,13.91,0,0,1,0,1.45c0,.2-.13.5-.3.57a1,1,0,0,1-.72-.2c-1.52-1.1-3-2.23-4.53-3.35-.13-.09-.23-.21-.35-.31Z" transform="translate(0.23 -0.03)"/></g><g id="iN7bDQ.tif"><path d="M229.66,29.84c4.2,0,8.39,0,12.58,0,1.43,0,1.93.51,1.94,1.94,0,1.27,0,2.54,0,3.8s-.6,1.9-1.94,1.9H217.07c-1.34,0-1.92-.57-1.93-1.9s0-2.59,0-3.88.53-1.86,1.86-1.86C221.22,29.83,225.44,29.84,229.66,29.84Zm11.62,4,0-.35c-.3-.23-.57-.61-.9-.68-.53-.11-.86.26-.88.8a.71.71,0,0,0,.8.82C240.66,34.41,241,34.07,241.28,33.86Z" transform="translate(0.23 -0.03)"/><path d="M229.67,19.05H216.94c-1.23,0-1.78-.54-1.8-1.77s0-2.74,0-4.1a1.58,1.58,0,0,1,1.78-1.75h25.46a1.56,1.56,0,0,1,1.79,1.72c0,1.39,0,2.79,0,4.18,0,1.18-.58,1.72-1.77,1.72Zm11.62-3.61v-.35c-.3-.23-.59-.61-.93-.66a.74.74,0,0,0-.84.85c0,.51.34.87.83.79S241,15.66,241.29,15.44Z" transform="translate(0.23 -0.03)"/><path d="M229.61,28.26H217c-1.32,0-1.88-.54-1.89-1.85s0-2.63,0-3.95.57-1.82,1.84-1.82h25.38c1.23,0,1.8.55,1.82,1.77s0,2.68,0,4-.58,1.83-1.84,1.83Zm9.79-4,0,.33a3.52,3.52,0,0,0,.9.72c.42.16.88-.33.89-.81s-.32-.88-.79-.83S239.73,24,239.4,24.22Z" transform="translate(0.23 -0.03)"/><path class="cls-8" d="M241.28,33.86c-.32.21-.62.55-1,.59a.71.71,0,0,1-.8-.82c0-.54.35-.91.88-.8.33.07.6.45.9.68Z" transform="translate(0.23 -0.03)"/><path class="cls-8" d="M241.29,15.44c-.31.22-.6.57-.94.63s-.81-.28-.83-.79a.74.74,0,0,1,.84-.85c.34.05.63.43.93.66Z" transform="translate(0.23 -0.03)"/><path class="cls-8" d="M239.4,24.22c.33-.21.64-.56,1-.59s.79.31.79.83-.47,1-.89.81a3.52,3.52,0,0,1-.9-.72Z" transform="translate(0.23 -0.03)"/></g><g id="vdIRNZ.tif"><path d="M326.5,49.34V32.75c0-.1,0-.2,0-.29V30.2c0-.46.13-.66.58-.75a4.39,4.39,0,0,1,.89-.06c.4,0,.79,0,1.21,0,0-.45,0-.86,0-1.27a1.72,1.72,0,0,1,.47-1.09,2.13,2.13,0,0,1,1-.58h.64a.26.26,0,0,0,.09.05,1.72,1.72,0,0,1,1.35,1.56c0,.43,0,.86,0,1.31h2.84V28.29a1.84,1.84,0,0,1,.48-1.26,2.32,2.32,0,0,1,1-.58h.64a3.76,3.76,0,0,1,.68.29,1.8,1.8,0,0,1,.83,1.63v1h2.57V28.32a1.64,1.64,0,0,1,.51-1.3,7.59,7.59,0,0,1,1-.57h.7l.08.05a1.76,1.76,0,0,1,1.36,1.64c0,.41,0,.81,0,1.25.47,0,.9,0,1.32,0a.91.91,0,0,1,.92.58v5.39c0,.11,0,.23,0,.34V49a2.9,2.9,0,0,1-.06.66,1.63,1.63,0,0,1-1.24,1.16H327.84a1.66,1.66,0,0,1-1.2-1C326.58,49.69,326.55,49.51,326.5,49.34ZM327.89,36v13.1c0,.4,0,.44.44.44h17.52c.4,0,.45-.06.45-.44V36Zm4-6.57c0-.44,0-.85,0-1.26a.86.86,0,0,0-.79-.77.88.88,0,0,0-1,.68,12.12,12.12,0,0,0,0,1.35Zm6.45,0c0-.42,0-.83,0-1.24a.88.88,0,0,0-.81-.78.86.86,0,0,0-.94.69,11.79,11.79,0,0,0,0,1.33Zm6.2,0c0-.31,0-.61,0-.91a2.29,2.29,0,0,0,0-.37.89.89,0,0,0-.88-.74.87.87,0,0,0-.88.73c0,.43,0,.85,0,1.29Z" transform="translate(0.23 -0.03)"/><path d="M336.65,40.45c-.46.31-.86.6-1.28.87a4.93,4.93,0,0,1-.83.41.7.7,0,0,1-.82-.21.68.68,0,0,1-.17-.78.8.8,0,0,1,.26-.32,6.72,6.72,0,0,1,.75-.4,5.65,5.65,0,0,0,2.33-2c.08-.12.17-.23.26-.34a.74.74,0,0,1,1.3.19,1.46,1.46,0,0,1,.11.55v8.21a2.2,2.2,0,0,1-.12.67.84.84,0,0,1-.88.6.9.9,0,0,1-.86-.73,2.65,2.65,0,0,1-.05-.56V40.45Z" transform="translate(0.23 -0.03)"/></g><g id="zbaUBg.tif"><path d="M289.58,85.83h.51a3.86,3.86,0,0,1,.48,1.16c.08.83,0,1.68,0,2.5h2.19c0-.89,0-1.74,0-2.59a1.07,1.07,0,0,1,.52-1.07h.52a1.19,1.19,0,0,1,.52,1.14c0,.84,0,1.68,0,2.52h2.19c0-.9,0-1.75,0-2.59a3.43,3.43,0,0,1,.49-1.07h.51a1.08,1.08,0,0,1,.53,1.07c0,.86,0,1.73,0,2.6h2.19c0-.86,0-1.69,0-2.52a1.23,1.23,0,0,1,.51-1.15h.51a1,1,0,0,1,.54,1.06c0,.87,0,1.74,0,2.65h3c1.05,0,1.33.27,1.33,1.32v3c.94,0,1.79,0,2.64,0a1.06,1.06,0,0,1,1.07.53v.51a1.34,1.34,0,0,1-1.23.52c-.8,0-1.61,0-2.44,0v2.18c.9,0,1.75,0,2.6,0a1.08,1.08,0,0,1,1.07.52v.52a1.18,1.18,0,0,1-1.15.52c-.84,0-1.68,0-2.52,0v2.19c.86,0,1.69,0,2.52,0a1.22,1.22,0,0,1,1.15.52v.51a1.11,1.11,0,0,1-1.07.53c-.87,0-1.73,0-2.61,0v2.19c.84,0,1.65,0,2.46,0a1.35,1.35,0,0,1,1.22.51v.51a1,1,0,0,1-1.06.54c-.87,0-1.74,0-2.65,0v3c0,1.06-.27,1.32-1.33,1.33h-3c0,.94,0,1.79,0,2.64a1.07,1.07,0,0,1-.54,1.07h-.51a4.26,4.26,0,0,1-.48-1.16c-.07-.84,0-1.69,0-2.51h-2.19c0,.9,0,1.75,0,2.6a1.09,1.09,0,0,1-.53,1.07H297a1.18,1.18,0,0,1-.52-1.15c0-.84,0-1.69,0-2.53h-2.19c0,.87,0,1.7,0,2.53a1.23,1.23,0,0,1-.52,1.15h-.52a1.08,1.08,0,0,1-.52-1.07c0-.87,0-1.74,0-2.61H290.6c0,.84,0,1.65,0,2.46a1.34,1.34,0,0,1-.52,1.22h-.51a1,1,0,0,1-.53-1.06c0-.87,0-1.73,0-2.56a.83.83,0,0,0-.2-.08H286.1c-1.18,0-1.41-.24-1.41-1.42v-3c-1,0-1.81,0-2.66,0a1,1,0,0,1-1-.54v-.51a4.13,4.13,0,0,1,1.16-.48c.83-.07,1.68,0,2.5,0v-2.19c-.89,0-1.74,0-2.59,0a1.06,1.06,0,0,1-1.07-.53v-.51a1.17,1.17,0,0,1,1.15-.52c.84,0,1.68,0,2.52,0V99.18c-.89,0-1.75,0-2.59,0a1.11,1.11,0,0,1-1.08-.52v-.52a1.05,1.05,0,0,1,1.07-.52c.86,0,1.73,0,2.6,0V95.45c-.86,0-1.69,0-2.51,0a3.86,3.86,0,0,1-1.16-.48v-.51A1,1,0,0,1,282,93.9c.86,0,1.73,0,2.56,0a.76.76,0,0,0,.07-.21c0-.92,0-1.83,0-2.75,0-1.17.23-1.41,1.41-1.41h2.95c0-1,0-1.81,0-2.66A1,1,0,0,1,289.58,85.83Zm-1.22,7.39h.92c.85,0,1.71,0,2.56,0a.69.69,0,0,0,.73-.79.67.67,0,0,0-.73-.72h-4.29a.64.64,0,0,0-.7.68c0,1.45,0,2.9,0,4.35,0,.55.37.74.87.68s.64-.43.64-.87C288.37,95.46,288.36,94.4,288.36,93.22Zm14.12,0V94c0,.9,0,1.8,0,2.69a.7.7,0,0,0,.79.74.66.66,0,0,0,.72-.72c0-1.43,0-2.87,0-4.3a.63.63,0,0,0-.67-.7c-1.47,0-2.95,0-4.42,0-.44,0-.64.31-.63.73,0,.57.36.78.88.78Zm-14.12,14.11v-.83c0-.88,0-1.75,0-2.63a.76.76,0,1,0-1.51,0v4.17a.69.69,0,0,0,.73.79q2.15,0,4.29,0a.67.67,0,0,0,.71-.74.69.69,0,0,0-.68-.77,6.6,6.6,0,0,0-.77,0C290.23,107.32,289.34,107.33,288.36,107.33Zm14.12,0c-.34,0-.59,0-.84,0-.87,0-1.75,0-2.63,0a.7.7,0,0,0-.74.78.67.67,0,0,0,.72.73q2.14,0,4.29,0a.65.65,0,0,0,.72-.72c0-1.43,0-2.87,0-4.3,0-.54-.39-.78-.92-.68s-.58.44-.59.85Z" transform="translate(0.23 -0.03)"/></g><path d="M361.46,161l.48-.82c.82-1.42,1.65-2.83,2.46-4.25.32-.57.61-1.16.92-1.73a1.45,1.45,0,0,1,1.51-.75,1.3,1.3,0,0,1,.83.47l2.5,2.54a3.83,3.83,0,0,1,.28.29c.1.12.18.09.28,0q1.89-1.94,3.79-3.85a3.79,3.79,0,0,1,.68-.59,1.33,1.33,0,0,1,2,.77,1.3,1.3,0,0,1-.21,1.13,10,10,0,0,1-.81.9l-3.66,3.62c-.32.32-.61.67-.95,1A1.29,1.29,0,0,1,370,160a3.19,3.19,0,0,1-.5-.39l-2.5-2.46-.14-.13-.28.49L363,163.84c-.21.36-.41.72-.64,1.07a1.24,1.24,0,0,1-2.13-.06,13.35,13.35,0,0,1-.72-1.59c-.44-1.08-.86-2.17-1.29-3.26l-.06-.13c-.13.11-.25.21-.36.32L356,162a7,7,0,0,1-.56.53,1.38,1.38,0,0,1-1.62.06,1.35,1.35,0,0,1-.51-1.54,1.68,1.68,0,0,1,.39-.6c.8-.8,1.62-1.58,2.42-2.38.4-.4.8-.83,1.2-1.24a2.4,2.4,0,0,1,.82-.63,1.26,1.26,0,0,1,1.39.33,3.52,3.52,0,0,1,.64,1.19c.41,1.06.81,2.12,1.21,3.18C361.41,160.92,361.43,161,361.46,161Z" transform="translate(0.23 -0.03)"/><g id="KC3z6l.tif"><path d="M424,88.67c-.24.88-.48,1.76-.71,2.65q-1.35,5.15-2.68,10.3a1,1,0,0,1-1.1.84H403.82a1,1,0,0,1-1.11-.86l-4.26-16.42c0-.07-.05-.15-.08-.24h-1.65c-.63,0-1.27,0-1.9,0a1.09,1.09,0,0,1-1.17-.65v-.47a1.29,1.29,0,0,1,.65-.65h4.92a1.13,1.13,0,0,1,.76.92c.09.4.2.8.3,1.2l.6,2.26h.4q10.75,0,21.51,0a1.13,1.13,0,0,1,1.17.65Zm-22.62.66.67,2.58h5.35V89.33Zm14.58,2.61h5.2a.27.27,0,0,0,.18-.13c.22-.82.43-1.64.64-2.46h-6Zm-1.79-2.6h-5v2.57h5Zm0,4.38h-5v2.57h5Zm-5,4.37v2.59h5V98.09Zm-6.67-4.38c.2.79.41,1.56.59,2.33.06.24.17.29.39.29,1.2,0,2.41,0,3.61,0l.29,0V93.71Zm13.44,2.61h4c.17,0,.21-.08.25-.22.16-.64.33-1.27.49-1.91,0-.16.07-.31.11-.47h-4.87Zm-8.56,4.38V98.09h-3.74c.22.85.43,1.68.65,2.5,0,0,.12.11.18.11Zm8.56-2.6v2.6h.34c.79,0,1.58,0,2.36,0,.3,0,.41-.09.47-.37.17-.74.38-1.48.57-2.24Z" transform="translate(0.23 -0.03)"/><path d="M417,109.57l-.57-.15a3.2,3.2,0,1,1,4-4,3.19,3.19,0,0,1-1,3.39,4.16,4.16,0,0,1-1.64.75Zm.36-4.63a1.43,1.43,0,0,0-1.43,1.42,1.46,1.46,0,0,0,1.43,1.44,1.43,1.43,0,1,0,0-2.86Z" transform="translate(0.23 -0.03)"/><path d="M405.55,109.57a7.58,7.58,0,0,1-.81-.25,3.2,3.2,0,1,1,1.71.19l-.13.06Zm.39-4.63a1.43,1.43,0,1,0,1.44,1.42A1.44,1.44,0,0,0,405.94,104.94Z" transform="translate(0.23 -0.03)"/><path class="cls-8" d="M394.3,83.17a1.29,1.29,0,0,0-.65.65v-.65Z" transform="translate(0.23 -0.03)"/></g><circle class="cls-8" cx="217.26" cy="137.62" r="17.09"/><path class="cls-12" d="M217,155.5a17.85,17.85,0,1,1,17.85-17.85A17.86,17.86,0,0,1,217,155.5Zm0-34.19a16.35,16.35,0,1,0,16.35,16.34A16.36,16.36,0,0,0,217,121.31Z" transform="translate(0.23 -0.03)"/><g id="F1sIgx.tif"><path d="M230,135.69c-.86,1-1.71,2.06-2.57,3.08a.52.52,0,0,1-.89,0c-.78-.93-1.56-1.85-2.32-2.79a.84.84,0,0,1-.14-.58c0-.27.32-.3.56-.29H226a7,7,0,0,0-.78-2.16,8.74,8.74,0,0,0-6.71-4.7,8.91,8.91,0,0,0-2.62,17.62,9,9,0,0,0,9.09-4.24,1,1,0,0,1,.72-.57.94.94,0,0,1,1,.38.89.89,0,0,1,0,1.1,18.94,18.94,0,0,1-1.94,2.41,10.66,10.66,0,0,1-8.26,2.95,10.85,10.85,0,0,1-1.27-21.49c.46-.09.92-.16,1.39-.23H218a2.13,2.13,0,0,0,.27.07,18,18,0,0,1,2.21.43,10.71,10.71,0,0,1,7.51,8c.08.31.19.4.49.38s.56,0,.84,0a.73.73,0,0,1,.76.38Z" transform="translate(0.23 -0.03)"/><path d="M216.3,132.54c0-.93,0-1.86,0-2.78a1,1,0,0,1,1.09-1.09,1,1,0,0,1,.89,1.15c0,1.78,0,3.56,0,5.34a.94.94,0,0,0,.3.77,1.2,1.2,0,0,1,.35.63.76.76,0,0,0,.47.58l3,1.69a1,1,0,0,1,.48,1.41,1,1,0,0,1-1.47.28c-1-.58-2-1.17-3-1.74a.84.84,0,0,0-.54-.07,1.76,1.76,0,0,1-2-.77,1.73,1.73,0,0,1,.25-2.09,1,1,0,0,0,.23-.57C216.31,134.37,216.3,133.45,216.3,132.54Zm1.73,4.52a.74.74,0,0,0-.73-.75.75.75,0,0,0-.76.73.78.78,0,0,0,.76.78A.77.77,0,0,0,218,137.06Z" transform="translate(0.23 -0.03)"/></g><circle class="cls-8" cx="410.13" cy="200.75" r="3.89"/><path class="cls-7" d="M409.9,205.43a4.65,4.65,0,1,1,4.65-4.65A4.65,4.65,0,0,1,409.9,205.43Zm0-7.79a3.15,3.15,0,1,0,3.15,3.14A3.15,3.15,0,0,0,409.9,197.64Z" transform="translate(0.23 -0.03)"/><circle class="cls-8" cx="269.82" cy="217" r="3.89"/><path class="cls-9" d="M269.6,221.67a4.65,4.65,0,1,1,4.64-4.65A4.65,4.65,0,0,1,269.6,221.67Zm0-7.79a3.15,3.15,0,1,0,3.14,3.14A3.15,3.15,0,0,0,269.6,213.88Z" transform="translate(0.23 -0.03)"/><circle class="cls-8" cx="256.42" cy="214.72" r="3.89"/><path class="cls-10" d="M256.19,219.39a4.64,4.64,0,1,1,4.65-4.64A4.64,4.64,0,0,1,256.19,219.39Zm0-7.78a3.14,3.14,0,1,0,3.15,3.14A3.15,3.15,0,0,0,256.19,211.61Z" transform="translate(0.23 -0.03)"/><circle class="cls-8" cx="243.2" cy="213.1" r="3.89"/><path class="cls-11" d="M243,217.77a4.64,4.64,0,1,1,4.64-4.64A4.64,4.64,0,0,1,243,217.77Zm0-7.78a3.14,3.14,0,1,0,3.14,3.14A3.15,3.15,0,0,0,243,210Z" transform="translate(0.23 -0.03)"/><circle class="cls-8" cx="228.13" cy="212.15" r="3.89"/><path class="cls-7" d="M227.91,216.83a4.65,4.65,0,1,1,4.64-4.65A4.66,4.66,0,0,1,227.91,216.83Zm0-7.79a3.15,3.15,0,1,0,3.14,3.14A3.15,3.15,0,0,0,227.91,209Z" transform="translate(0.23 -0.03)"/><circle class="cls-8" cx="216.26" cy="213.1" r="3.89"/><path class="cls-12" d="M216,217.77a4.64,4.64,0,1,1,4.65-4.64A4.64,4.64,0,0,1,216,217.77Zm0-7.78a3.14,3.14,0,1,0,3.15,3.14A3.15,3.15,0,0,0,216,210Z" transform="translate(0.23 -0.03)"/><circle class="cls-8" cx="202.38" cy="213.1" r="3.89"/><path class="cls-13" d="M202.15,217.77a4.64,4.64,0,1,1,4.65-4.64A4.64,4.64,0,0,1,202.15,217.77Zm0-7.78a3.14,3.14,0,1,0,3.15,3.14A3.15,3.15,0,0,0,202.15,210Z" transform="translate(0.23 -0.03)"/><circle class="cls-8" cx="190.69" cy="214.72" r="3.89"/><path class="cls-14" d="M190.46,219.39a4.64,4.64,0,1,1,4.64-4.64A4.65,4.65,0,0,1,190.46,219.39Zm0-7.78a3.14,3.14,0,1,0,3.14,3.14A3.15,3.15,0,0,0,190.46,211.61Z" transform="translate(0.23 -0.03)"/><circle class="cls-8" cx="79.36" cy="194.2" r="3.89"/><path class="cls-9" d="M79.14,198.87a4.65,4.65,0,1,1,4.64-4.64A4.65,4.65,0,0,1,79.14,198.87Zm0-7.79a3.15,3.15,0,1,0,3.14,3.15A3.15,3.15,0,0,0,79.14,191.08Z" transform="translate(0.23 -0.03)"/><circle class="cls-8" cx="178.99" cy="218.61" r="3.89"/><path class="cls-15" d="M178.76,223.29a4.65,4.65,0,1,1,4.65-4.65A4.65,4.65,0,0,1,178.76,223.29Zm0-7.79a3.15,3.15,0,1,0,3.15,3.14A3.15,3.15,0,0,0,178.76,215.5Z" transform="translate(0.23 -0.03)"/><circle class="cls-8" cx="65.52" cy="194.2" r="3.89"/><path class="cls-13" d="M65.29,198.87a4.65,4.65,0,1,1,4.65-4.64A4.64,4.64,0,0,1,65.29,198.87Zm0-7.79a3.15,3.15,0,1,0,3.15,3.15A3.15,3.15,0,0,0,65.29,191.08Z" transform="translate(0.23 -0.03)"/></svg>