<svg id="Capa_1" data-name="Capa 1" xmlns="http://www.w3.org/2000/svg" xmlns:xlink="http://www.w3.org/1999/xlink" viewBox="0 0 993 790"><defs><style>.cls-1{fill:#f2f2f2;}.cls-2{fill:#3c544a;}.cls-13,.cls-3{opacity:0.1;}.cls-3{isolation:isolate;}.cls-4{fill:none;stroke:#3f3d56;stroke-miterlimit:10;stroke-width:2px;}.cls-5{fill:#3f3d56;}.cls-6{opacity:0.14;}.cls-7{fill:#78b46d;}.cls-8{fill:url(#Degradado_sin_nombre_2);}.cls-9{fill:#1d3d3d;}.cls-10{fill:#fbbebe;}.cls-11{fill:#429488;}.cls-12{fill:#2d3f39;}.cls-14{opacity:0.35;}</style><linearGradient id="Degradado_sin_nombre_2" x1="803.47" y1="-7514.53" x2="803.47" y2="-7186.06" gradientTransform="matrix(1, -0.04, -0.04, -1, -245.12, -6718.66)" gradientUnits="userSpaceOnUse"><stop offset="0" stop-color="gray" stop-opacity="0.25"/><stop offset="0.54" stop-color="gray" stop-opacity="0.12"/><stop offset="1" stop-color="gray" stop-opacity="0.1"/></linearGradient></defs><title>Imagenes</title><path class="cls-1" d="M494.92,204.23c45.59-8,98.57-6.61,155.7,0C639,138.49,638.5,74.12,650.62,11.3H494.92A543.76,543.76,0,0,0,494.92,204.23Z"/><rect class="cls-2" x="541.4" y="0.29" width="54.16" height="17.77"/><path class="cls-3" d="M373.72,585.16c45.59-8,98.57-6.61,155.7,0-11.59-65.73-12.12-130.11,0-192.93H373.72A543.76,543.76,0,0,0,373.72,585.16Z"/><path class="cls-1" d="M366.72,576.16c45.59-8,98.57-6.61,155.7,0-11.59-65.73-12.12-130.11,0-192.93H366.72A543.76,543.76,0,0,0,366.72,576.16Z"/><rect class="cls-2" x="413.18" y="372.21" width="54.16" height="17.77"/><path class="cls-4" d="M232.92,261.23S293.31,90.42,427.85,88.9"/><path class="cls-5" d="M439.92,89.23c-5.73,2-12.85,5.41-17.31,9.12l3.66-9.43-3.22-9.59C427.33,83.24,434.29,87,439.92,89.23Z"/><path class="cls-4" d="M237.92,326.23S232.46,463.67,311,482.38"/><path class="cls-5" d="M322.92,484.22c-5.95,1.16-13.48,3.57-18.41,6.62l4.93-8.83-1.86-9.94C311.28,476.54,317.65,481.22,322.92,484.22Z"/><path class="cls-4" d="M253.92,281.23S678.54,210.45,751.41,298"/><path class="cls-5" d="M757.92,308.23c-4.9-3.58-11.79-7.46-17.37-9l9.82-2.4,6-8.13C755.64,294.46,756.54,302.33,757.92,308.23Z"/><g class="cls-6"><ellipse class="cls-7" cx="498.92" cy="748.71" rx="494.5" ry="33"/></g><path class="cls-3" d="M933.18,502.74c-40.39,22.6-80.61,57.11-120.74,98.3-32.52-58.27-72.74-108.53-121.81-149.61l120.74-98.29A544,544,0,0,1,933.18,502.74Z"/><path class="cls-1" d="M935.18,494.74c-40.39,22.6-80.61,57.11-120.74,98.3-32.52-58.27-72.74-108.53-121.81-149.61l120.74-98.29A544,544,0,0,1,935.18,494.74Z"/><rect class="cls-2" x="727.93" y="381.06" width="54.16" height="17.77" transform="translate(-76.69 564.22) rotate(-39.15)"/><rect class="cls-7" x="748.53" y="435" width="96" height="13" transform="translate(-99.92 602.01) rotate(-39.15)"/><path class="cls-8" d="M943.07,736a9.84,9.84,0,0,0-2.17-2.42c-4.37-4.12-6.4-10.19-7.48-16.12s-1.39-12-3.12-17.82a59.85,59.85,0,0,0-3.52-8.67c-1-2.13-2.26-6.33-4.09-7.82a2.82,2.82,0,0,0-1.26-.62,14.78,14.78,0,0,0-3.62-4.81c-2.86-2.59-6.35-4.65-8.26-8a18.39,18.39,0,0,0-1.93-3.3c-1.29-1.42-3.33-2-4.52-3.5-1.55-1.94-1.2-4.71-1-7.19s0-5.43-2.14-6.72c-1.28-.79-2.93-.72-4.26-1.41-2-1-2.79-3.53-2.75-5.78s.74-4.44.92-6.68c.56-7.16-4.16-14.28-2.34-21.22.69-2.63,2.27-4.92,3.44-7.36a17.86,17.86,0,0,0,1-2.54,35.73,35.73,0,0,0,9.74,2.34c-5.51-12.35-4.11-26.72-6.68-40l.33-.46a20.85,20.85,0,0,0,4.22-11.85c0-5-2.31-9.57-3.35-14.4-.89-4.12-.85-8.41-2-12.46a37.46,37.46,0,0,0-3.16-7.22q-1.87-3.47-3.93-6.82-1.92-6.36-3.85-12.72c-1.8-6-3.65-12-7.15-17.14-1.28-1.89-1.67-5.7-3.64-6.85a8.76,8.76,0,0,0-5.2-.9c-2.78-1.56-5.22-3.81-5.57-6.89a6.39,6.39,0,0,1,.2-2h.34c4.4-.41,6.63-4.29,8.92-7.68,3.7-5.51,2.29-13,0-19.21a13,13,0,0,0-3-5.29c-3.21-3-8.29-2.33-12.43-3.78a38.46,38.46,0,0,0-4.11-1.55c-2.75-.65-5.63.25-8.15,1.52s-4.87,2.91-7.51,3.92-5.9,1.79-6.55,4.5a4.9,4.9,0,0,0,.22,2.73,10.18,10.18,0,0,0,3.09,4.45,17.8,17.8,0,0,0,8.26,23.8,18.39,18.39,0,0,0,2.61,1c.76,1.21,1.47,2.45,2.12,3.73,1.16,2.24,2.14,4.88,1.74,7.28a20.27,20.27,0,0,0-2,2.44c-2.87,4-4.5,8.7-6,13.37a140.1,140.1,0,0,0-4.83,18.28c-2.44,5.18-5.42,10.14-7.19,15.59a35.75,35.75,0,0,1-9.38-1.25l-8.44-1.92c-2.94-.66-6-1.39-8.3-3.32-1.22-1-2.17-2.33-3.41-3.33s-3.73-2.15-5.09-1.33a3.52,3.52,0,0,0-.69.53c-1.24-2.51-4.28,3.89-5.72,1.52-2.06-3.41-9.29.54-13.19-.1a9.2,9.2,0,0,0-6.79,1.57c-2.28,1.63-3.71,5-2,7.28a12.51,12.51,0,0,0,1.39,1.43,28.39,28.39,0,0,1,3.09,4.28c3.08,4.43,10.17.52,15.55,1.54-.12.34,3.77-8.09,3.65-7.74-.71,2.07-2.22,4.59-1.84,6.75l37.54,12.85a23,23,0,0,0,7.56,1.66,13.27,13.27,0,0,0,3-.39v2c.1,13.19-2,26.3-2.39,39.48-.07,2.4,0,5,1.52,6.88,1.7,2.06,4.72,2.46,7.35,2,.62-.11,1.24-.24,1.86-.41a69.19,69.19,0,0,1,1.92,10.1l2.49,17.76a27,27,0,0,1,.39,5.54c-.29,4.18-2.5,7.94-4.1,11.81s-2.55,8.49-.45,12.11c.66,1.12,1.57,2.08,2.16,3.24a13.08,13.08,0,0,1,1,5.67q.23,8.1.44,16.18a1.8,1.8,0,0,0-1.26.26c-2.08,1.61-1.85,9.33-2,11.72-.16,4,0,8.08-.22,12.12a72.32,72.32,0,0,1-2.68,16.13,10.34,10.34,0,0,1-2.29,4.61,10,10,0,0,1-4.07,2.11,46.82,46.82,0,0,1-15.41,2.09c-2.11-.06-4.31-.27-6.27.54s-3.54,3-2.83,5c.61,1.68,2.46,2.48,4.13,3.11a65.62,65.62,0,0,1,11,5,32.35,32.35,0,0,0,4.25,2.42,22.44,22.44,0,0,0,4.38,1.08l17.73,3c3.63.63,8,1,10.31-2,1.25-1.62,1.43-3.82,1.37-5.87-.1-4-.9-8.08-.38-12.07a36.09,36.09,0,0,1,1.86-6.94L873.5,711c1.78-5.28,3.58-10.59,4.27-16.1.25-2,.23-4.27-1.3-5.53a3.54,3.54,0,0,0-1.32-.68c-.06-4.82-.69-9.65-.42-14.47.07-1.21.19-2.4.29-3.61a17.68,17.68,0,0,1,2.47,2.92c1.71,2.67,2.34,6.22,5,8,2.22,1.51,5.51,1.44,7.07,3.64a10.7,10.7,0,0,1,1.12,2.71,19.09,19.09,0,0,0,4,6.35,31.65,31.65,0,0,0,2.47,6.35l4.4,9.3a103.28,103.28,0,0,0,5,9.77,27.71,27.71,0,0,1,3.35,6.46c1.41,5-.89,10.37-4.53,14s-8.44,5.73-13.17,7.68a3.4,3.4,0,0,0-1.34.8,2.56,2.56,0,0,0-.61,1.74c0,2.31,1.9,4.28,4.08,5a15.75,15.75,0,0,0,6.83.25c12.78-1.55,25.52-4.68,36.82-10.88a13.46,13.46,0,0,0,4.39-3.39A5.17,5.17,0,0,0,943.07,736Z"/><path class="cls-9" d="M889.06,511.79q3.2,4.89,6,10.06a36.94,36.94,0,0,1,3.16,7.16c1.16,4,1.13,8.27,2,12.35,1,4.8,3.34,9.38,3.34,14.29a20.59,20.59,0,0,1-4.22,11.76,56.32,56.32,0,0,1-8.82,9.11A187.62,187.62,0,0,1,878,515.31c-.1-2.91-.12-5.9.94-8.61.65-1.69,3.77-6.35,5.78-4.52.73.67.92,3.68,1.37,4.69A34.89,34.89,0,0,0,889.06,511.79Z"/><path class="cls-3" d="M889.06,511.79q3.2,4.89,6,10.06a36.94,36.94,0,0,1,3.16,7.16c1.16,4,1.13,8.27,2,12.35,1,4.8,3.34,9.38,3.34,14.29a20.59,20.59,0,0,1-4.22,11.76,56.32,56.32,0,0,1-8.82,9.11A187.62,187.62,0,0,1,878,515.31c-.1-2.91-.12-5.9.94-8.61.65-1.69,3.77-6.35,5.78-4.52.73.67.92,3.68,1.37,4.69A34.89,34.89,0,0,0,889.06,511.79Z"/><path class="cls-10" d="M781.71,522.71c-3.91-.64-8.25-.33-11.29,2.21a9.25,9.25,0,0,0-3.24,6.16c-.26,2.78,1.35,6.06,4.13,6.28a15,15,0,0,0,2-.13,28.8,28.8,0,0,1,5.24.43,21.44,21.44,0,0,0,18.23-7.36c2.39-2.95-.76-4.29-3.58-4.89C789.34,524.59,785.57,523.35,781.71,522.71Z"/><path class="cls-11" d="M848.59,613l2.48,17.61a27.41,27.41,0,0,1,.38,5.5c-.29,4.16-2.5,7.89-4.09,11.72s-2.56,8.43-.45,12c.65,1.11,1.56,2.06,2.15,3.21a13.17,13.17,0,0,1,1,5.65l.68,25a158.72,158.72,0,0,0,23.18-.12,1.29,1.29,0,0,0,.84-.28,1.37,1.37,0,0,0,.29-.9c.34-5.85-.68-11.71-.35-17.56.12-2.14.42-4.28.46-6.42.12-8.71-4.18-17.24-2.88-25.85a56.44,56.44,0,0,1,1.6-6.43c4.11-15,3.24-30.76,2.33-46.24a1.21,1.21,0,0,0-.2-.72,1.12,1.12,0,0,0-.54-.28,28.48,28.48,0,0,0-25.78,4.9c-1.09.88-3.84,1.72-4.56,2.78-1,1.46.31,2.91.89,4.47A57.44,57.44,0,0,1,848.59,613Z"/><path class="cls-3" d="M848.59,613l2.48,17.61a27.41,27.41,0,0,1,.38,5.5c-.29,4.16-2.5,7.89-4.09,11.72s-2.56,8.43-.45,12c.65,1.11,1.56,2.06,2.15,3.21a13.17,13.17,0,0,1,1,5.65l.68,25a158.72,158.72,0,0,0,23.18-.12,1.29,1.29,0,0,0,.84-.28,1.37,1.37,0,0,0,.29-.9c.34-5.85-.68-11.71-.35-17.56.12-2.14.42-4.28.46-6.42.12-8.71-4.18-17.24-2.88-25.85a56.44,56.44,0,0,1,1.6-6.43c4.11-15,3.24-30.76,2.33-46.24a1.21,1.21,0,0,0-.2-.72,1.12,1.12,0,0,0-.54-.28,28.48,28.48,0,0,0-25.78,4.9c-1.09.88-3.84,1.72-4.56,2.78-1,1.46.31,2.91.89,4.47A57.44,57.44,0,0,1,848.59,613Z"/><path class="cls-11" d="M894.92,607.72c-1.17,2.43-2.74,4.7-3.44,7.31-1.82,6.89,2.89,14,2.33,21.06-.18,2.21-.87,4.4-.92,6.63s.77,4.7,2.75,5.73c1.33.69,3,.62,4.25,1.4,2.11,1.28,2.35,4.22,2.14,6.67s-.56,5.21,1,7.14c1.19,1.49,3.23,2.06,4.51,3.46a18,18,0,0,1,1.93,3.28c1.91,3.33,5.4,5.38,8.26,7.94s5.28,6.46,4,10.09c-.94,2.67-3.58,4.3-6.12,5.56A65.58,65.58,0,0,1,901,699.13a3.5,3.5,0,0,1-1.67.09,3.54,3.54,0,0,1-1.46-1c-2.95-2.88-6-5.91-7.36-9.81a10.21,10.21,0,0,0-1.12-2.68c-1.56-2.18-4.85-2.11-7.07-3.61-2.6-1.77-3.23-5.29-4.93-7.94s-4.19-4.22-6-6.56c-3.06-3.88-3.81-9.06-6-13.49a62.76,62.76,0,0,1-2.86-5.6,30.27,30.27,0,0,1-1.37-7.24c-1.41-11.67-5-23.44-2.74-35,.5-2.55,1.27-5,1.59-7.62.55-4.54-.32-9.17.35-13.7a3.7,3.7,0,0,1,1.51-2.9,3.91,3.91,0,0,1,1.72-.36,117.31,117.31,0,0,1,17.78.4c3,.3,6.36.91,8.16,3.35,1.53,2.1,1.45,4.92,1.94,7.47.61,3.13,2.2,4.85,3.87,7.31S896.19,605.17,894.92,607.72Z"/><path class="cls-9" d="M871.92,689c1.58,0,3.33-.1,4.55.9,1.52,1.24,1.54,3.54,1.3,5.48-.7,5.48-2.49,10.75-4.28,16L868.17,727a36.75,36.75,0,0,0-1.86,6.89c-.52,4,.28,8,.38,12,0,2-.13,4.22-1.38,5.82-2.26,2.91-6.67,2.57-10.3,2l-17.71-3a20.48,20.48,0,0,1-4.38-1.08,27.25,27.25,0,0,1-4.25-2.39,66.43,66.43,0,0,0-11-5c-1.66-.63-3.52-1.42-4.12-3.09-.71-2,.87-4.19,2.83-5s4.15-.6,6.27-.53a46.46,46.46,0,0,0,15.4-2.09,9.73,9.73,0,0,0,4.06-2.09,10.1,10.1,0,0,0,2.29-4.57,71.1,71.1,0,0,0,2.68-16c.21-4,.07-8,.23-12,.1-2.38-.13-10,2-11.63,1.59-1.22,8.13,2.14,10.28,2.64A50,50,0,0,0,871.92,689Z"/><path class="cls-9" d="M930.23,700.1c1.73,5.74,2,11.79,3.12,17.68s3.1,11.9,7.47,16a9.75,9.75,0,0,1,2.17,2.4,5.07,5.07,0,0,1-.75,5.23,13.37,13.37,0,0,1-4.39,3.36c-11.29,6.16-24,9.27-36.81,10.81a15.39,15.39,0,0,1-6.82-.24c-2.18-.74-4.11-2.7-4.07-5a2.5,2.5,0,0,1,.6-1.72,3.37,3.37,0,0,1,1.35-.8c4.72-1.93,9.51-4,13.16-7.62s5.94-9,4.53-13.86a27.37,27.37,0,0,0-3.35-6.41,108.34,108.34,0,0,1-5-9.7L897,701c-1.29-2.7-2.59-5.48-2.81-8.46a40.65,40.65,0,0,0,16.22-2.6,25.71,25.71,0,0,0,6.67-4c1.7-1.42,3.25-4.07,5.54-2.21,1.84,1.48,3,5.64,4.08,7.76A57.9,57.9,0,0,1,930.23,700.1Z"/><path class="cls-10" d="M865.75,470.91c.44,3.83,4.16,6.37,7.71,7.88L851,486c1.45-2.79.28-6.17-1.16-9a49.8,49.8,0,0,0-4-6.41c-.22-.32-.47-.71-.31-1.06a1.15,1.15,0,0,1,.63-.49c4.62-2.06,9.38-4.19,14.43-4.94,1.46-.21,4.22-.79,5.31.68S865.54,469.15,865.75,470.91Z"/><path class="cls-3" d="M865.75,470.91c.44,3.83,4.16,6.37,7.71,7.88L851,486c1.45-2.79.28-6.17-1.16-9a49.8,49.8,0,0,0-4-6.41c-.22-.32-.47-.71-.31-1.06a1.15,1.15,0,0,1,.63-.49c4.62-2.06,9.38-4.19,14.43-4.94,1.46-.21,4.22-.79,5.31.68S865.54,469.15,865.75,470.91Z"/><circle class="cls-10" cx="852.69" cy="456.4" r="17.62"/><path class="cls-9" d="M837.46,601.41c1.71,2,4.72,2.44,7.35,2,6.15-1,11.18-5.53,17.2-7.17,7.38-2,15.19.58,22.16,3.72s13.9,6.95,21.52,7.55c-6.89-15.36-3-33.85-9.54-49.35-1.61-3.78-3.86-7.44-4.22-11.54-.45-5.09,2.09-10,2.48-15,.36-4.52-1-9-2.3-13.29q-2.42-7.92-4.82-15.85c-1.8-5.91-3.65-11.91-7.14-17-1.29-1.87-1.68-5.65-3.64-6.79-4.28-2.47-10.77.65-15.41.82s-8.87,3.47-11.58,7.19c-2.87,4-4.5,8.64-6,13.28a125,125,0,0,0-5.33,21.23c-.15,1.08-.28,2.16-.38,3.25-1,10.27.46,20.6.54,30.91v.07c.1,13.09-2,26.1-2.39,39.18C835.92,597,835.92,599.58,837.46,601.41Z"/><path class="cls-3" d="M838.34,555.33c3.45-.87,6.57-3.1,9.25-5.54a39.1,39.1,0,0,0,6.14-6.95A50.57,50.57,0,0,0,859,531.67a129.56,129.56,0,0,0,7-32.27c.26-3,.34-6.21-1.45-8.59a7.26,7.26,0,0,0-8.75-2.13c-2.36,1.16-3.89,3.49-5.31,5.71-2.81,4.43-5.64,8.9-7.45,13.82-.8,2.18-1.39,4.43-2.17,6.62a62.3,62.3,0,0,1-2.74,6.33c-.15,1.08-.28,2.16-.38,3.25C836.84,534.68,838.26,545,838.34,555.33Z"/><path class="cls-9" d="M864.52,488.91c1.79,2.38,1.71,5.63,1.46,8.6a129.83,129.83,0,0,1-7,32.28A49.82,49.82,0,0,1,853.69,541a39.41,39.41,0,0,1-6.14,6.95c-3.4,3.11-7.54,5.87-12.15,5.92a23.35,23.35,0,0,1-7.56-1.66l-37.51-12.75c-.38-2.14,1.13-4.63,1.84-6.69l2-5.94c.57-1.64,1.23-3.4,2.72-4.29s3.85.34,5.09,1.31,2.18,2.3,3.4,3.31c2.31,1.92,5.36,2.63,8.3,3.29l8.43,1.9a35.33,35.33,0,0,0,9.38,1.24c2.35-7.16,6.82-13.5,9.35-20.61.78-2.19,1.37-4.44,2.18-6.6,1.8-4.93,4.64-9.41,7.45-13.82,1.41-2.23,2.94-4.56,5.31-5.72A7.24,7.24,0,0,1,864.52,488.91Z"/><path class="cls-12" d="M858.31,460.38a9.13,9.13,0,0,0-1.06-3.3,2.77,2.77,0,0,0-3-1.32c-1.76.54-2.35,3.28-4.19,3.36-1.24.06-2.13-1.2-2.52-2.39s-.6-2.52-1.53-3.35a5.56,5.56,0,0,0-2.18-1c-4.27-1.36-8.68-3.86-10.1-8.11a4.7,4.7,0,0,1-.23-2.7c.65-2.69,4-3.49,6.55-4.47s5-2.64,7.5-3.89,5.4-2.16,8.15-1.51a41.59,41.59,0,0,1,4.11,1.54c4.14,1.43,9.21.76,12.42,3.75a12.94,12.94,0,0,1,3,5.25c2.24,6.21,3.66,13.59-.05,19.06-2.29,3.37-4.51,7.22-8.91,7.62C861.15,469.36,859.12,464.7,858.31,460.38Z"/><g class="cls-13"><path d="M850.49,454.61c-.39-1.18-.6-2.51-1.52-3.35a5.56,5.56,0,0,0-2.18-1c-4.28-1.36-8.68-3.86-10.11-8.11a4.79,4.79,0,0,1-.22-2.7,3.45,3.45,0,0,1,.53-1.19c-1.63.7-3,1.64-3.45,3.31a4.7,4.7,0,0,0,.23,2.7c1.42,4.25,5.83,6.75,10.1,8.11a5.56,5.56,0,0,1,2.18,1c.93.84,1.13,2.17,1.53,3.35s1.28,2.45,2.52,2.39,1.84-1.19,2.63-2.15C851.64,456.85,850.85,455.71,850.49,454.61Z"/><path d="M869.21,466.78c-5.14.46-7.17-4.2-8-8.52a8.57,8.57,0,0,0-1-3.29,2.78,2.78,0,0,0-3-1.33c-1,.29-1.56,1.24-2.21,2a3,3,0,0,1,2.26,1.39,9.13,9.13,0,0,1,1.06,3.3c.81,4.32,2.84,9,8,8.52a8.26,8.26,0,0,0,5.28-2.73A7.74,7.74,0,0,1,869.21,466.78Z"/></g><path class="cls-1" d="M258.31,383.07c-45.58-8-98.57-6.61-155.7,0,11.59-65.72,12.13-130.11,0-192.93h155.7A543.76,543.76,0,0,1,258.31,383.07Z"/><rect class="cls-2" x="157.7" y="179.14" width="54.16" height="17.77"/><rect class="cls-7" x="392.42" y="433.71" width="96" height="13"/><rect class="cls-7" x="392.42" y="460.71" width="96" height="13"/><rect class="cls-7" x="520.42" y="43.72" width="96" height="13"/><rect class="cls-7" x="520.42" y="70.72" width="96" height="13"/><rect class="cls-7" x="136.42" y="225.71" width="96" height="13"/><path class="cls-7" d="M132,721.6l19.14-11.25a45.92,45.92,0,0,0-9.79-11.71l-36.11,11.22,28.3-16.64a46,46,0,0,0-68.1,40.35c0,25.41,20.59,26.29,46,26.29s46-.88,46-26.29a46,46,0,0,0-3.95-18.66Z"/><path class="cls-3" d="M136.85,746.29a36.37,36.37,0,0,0-6.78-5.33c-3.48-2.31-7.07-4.66-11.17-5.45-3.6-.68-7.31-.1-11-.31a25.64,25.64,0,0,1-16.81-7.7c-2.61-2.71-4.67-6-7.81-8.09-3.39-2.23-7.69-2.71-11.71-2.15a30.74,30.74,0,0,0-3.46.71,45.66,45.66,0,0,0-2.72,15.6c0,25.41,20.59,26.29,46,26.29,12.33,0,23.52-.21,31.78-3.33L141.82,754A35.82,35.82,0,0,0,136.85,746.29Z"/><path class="cls-7" d="M602.16,684.91,576.77,670a61,61,0,0,1,13-15.54l47.89,14.89L600.13,647.3a61,61,0,0,1,90.31,53.52c0,33.69-27.31,34.84-61,34.84s-61-1.15-61-34.84A60.55,60.55,0,0,1,573.65,676Z"/><path class="cls-3" d="M595.69,717.66a48,48,0,0,1,9-7.07c4.61-3.05,9.38-6.18,14.81-7.22,4.77-.91,9.69-.14,14.54-.42a34.11,34.11,0,0,0,22.3-10.21c3.46-3.59,6.19-8,10.36-10.73,4.49-3,10.19-3.58,15.52-2.85a40.33,40.33,0,0,1,4.6.94,61.05,61.05,0,0,1,3.6,20.7c0,33.69-27.31,34.85-61,34.85-16.35,0-31.19-.27-42.15-4.4l1.83-3.42A47.26,47.26,0,0,1,595.69,717.66Z"/><g class="cls-14"><rect class="cls-7" x="79.54" y="779.9" width="846.02" height="2"/></g></svg>