<?xml version="1.0" encoding="utf-8"?>
<!-- Generator: Adobe Illustrator 24.0.0, SVG Export Plug-In . SVG Version: 6.00 Build 0)  -->
<svg version="1.1" id="Capa_1" xmlns="http://www.w3.org/2000/svg" xmlns:xlink="http://www.w3.org/1999/xlink" x="0px" y="0px"
	 viewBox="0 0 937.9 378.4" style="enable-background:new 0 0 937.9 378.4;" xml:space="preserve">
<style type="text/css">
	.st0{fill:none;stroke:#377DBA;stroke-miterlimit:10;}
	.st1{fill:#00729E;stroke:#FFFFFF;stroke-width:14;stroke-miterlimit:10;}
	.st2{fill:#32968A;stroke:#FFFFFF;stroke-width:14;stroke-miterlimit:10;}
	.st3{fill:#74B668;stroke:#FFFFFF;stroke-width:14;stroke-miterlimit:10;}
	.st4{fill:none;}
	.st5{fill:#FFFFFF;}
	.st6{font-family:'AvenirNext-DemiBold';}
	.st7{font-size:18px;}
	.st8{font-family:'AvenirNext-Regular';}
	.st9{font-size:17px;}
	.st10{font-size:14px;}
	.st11{fill:#CCCAC9;}
	.st12{fill:#7D7C7D;}
	.st13{fill:#5A5759;}
	.st14{fill:#FFFFFF;stroke:#5B5859;stroke-width:5;stroke-miterlimit:10;}
</style>
<polygon class="st0" points="275.7,45.9 91.9,45.9 0,205.1 91.9,364.3 275.7,364.3 367.6,205.1 "/>
<polygon class="st0" points="553.9,45.4 373.4,45.4 283.2,205.1 373.4,364.8 553.9,364.8 644.1,205.1 "/>
<polygon class="st0" points="838.2,45.9 654.4,45.9 562.5,205.1 654.4,364.3 838.2,364.3 930,205.1 "/>
<polygon class="st1" points="269.2,57.2 98.4,57.2 13,205.1 98.4,353 269.2,353 354.6,205.1 "/>
<polygon class="st2" points="549.1,57.2 378.3,57.2 292.9,205.1 378.3,353 549.1,353 634.4,205.1 "/>
<polygon class="st3" points="831.6,64.3 660.9,64.3 575.5,212.2 660.9,360.1 831.6,360.1 917,212.2 "/>
<rect x="665.7" y="87.4" class="st4" width="161.1" height="23.8"/>
<text transform="matrix(1 0 0 1 714.4346 100.9937)" class="st5 st6 st7">COSTO</text>
<rect x="73.3" y="123.5" class="st4" width="210.1" height="33.7"/>
<text transform="matrix(1 0 0 1 137.7056 136.3601)" class="st5 st8 st9">250 horas.</text>
<rect x="354.9" y="135.2" class="st4" width="217.5" height="53"/>
<text transform="matrix(1 0 0 1 366.5273 145.8002)"><tspan x="0" y="0" class="st5 st8 st10">Sala D, Facultad de Ingeniería, </tspan><tspan x="3.4" y="16.8" class="st5 st8 st10">UNAM (Edificio P planta baja, </tspan><tspan x="39.7" y="33.6" class="st5 st8 st10">laboratorio P003). </tspan></text>
<rect x="633" y="151.2" class="st4" width="226.5" height="100.6"/>
<text transform="matrix(1 0 0 1 644.0257 161.8)"><tspan x="0" y="0" class="st5 st8 st10">Participantes externos:  $36,000 </tspan><tspan x="10.3" y="33.6" class="st5 st8 st10">Profesores y egresados de la </tspan><tspan x="-2.7" y="50.4" class="st5 st8 st10">UNAM  $18,000,  incluye 50% de </tspan><tspan x="68.5" y="67.2" class="st5 st8 st10">descuento </tspan></text>
<g>
	<circle class="st11" cx="102.4" cy="62.9" r="39.8"/>
	<g id="F1sIgx.tif_2_">
		<g>
			<path class="st11" d="M154.5,57.3c-3.5,4.2-7,8.4-10.5,12.6c-1.2,1.4-2.4,1.3-3.6-0.1c-3.2-3.8-6.4-7.5-9.5-11.4
				c-0.5-0.6-0.7-1.6-0.6-2.4c0.2-1.1,1.3-1.2,2.3-1.2c1.7,0,3.5,0,5.4,0c-0.6-3.3-1.7-6.1-3.2-8.8c-6-10.9-15.2-17.5-27.4-19.2
				c-19-2.7-37.1,9.9-40.9,29.1c-4,20.3,9.7,39.6,30.2,43c14.5,2.4,29.3-4.5,37.2-17.3c0.7-1.2,1.5-2.1,2.9-2.3
				c1.7-0.3,3.1,0.2,4.1,1.6c1,1.5,1.1,3.1,0.1,4.5c-2.5,3.4-4.9,7-7.9,9.9c-9.4,8.9-20.8,12.8-33.8,12.1
				c-20.3-1.2-37.5-16.8-40.8-37.1c-3.9-23.8,12-46.5,35.6-50.8c1.9-0.3,3.8-0.6,5.7-0.9c1.8,0,3.6,0,5.4,0c0.4,0.1,0.7,0.2,1.1,0.3
				c3,0.6,6.2,0.8,9.1,1.7c16.3,5.3,26.5,16.3,30.7,32.9c0.3,1.3,0.8,1.6,2,1.6c1.1-0.1,2.3,0.1,3.4,0c1.4-0.1,2.4,0.3,3.1,1.5
				C154.5,56.7,154.5,57,154.5,57.3z"/>
			<path class="st11" d="M98.4,44.4c0-3.8,0-7.6,0-11.4c0-2.9,1.9-4.7,4.5-4.4c2.2,0.2,3.6,2,3.6,4.7c0,7.3,0,14.6,0,21.8
				c0,1.3,0.2,2.2,1.2,3.2c0.7,0.6,1.3,1.6,1.4,2.6c0.2,1.3,1,1.8,2,2.4c4,2.3,8,4.6,12.1,6.9c2.4,1.4,3.2,3.7,1.9,5.8
				c-1.2,2.1-3.6,2.5-6,1.1c-4.2-2.4-8.3-4.8-12.5-7.1c-0.6-0.3-1.5-0.5-2.2-0.3c-3.1,0.8-6.4-0.4-8-3.1c-1.6-2.8-1.2-6.1,1-8.6
				c0.5-0.6,0.9-1.5,0.9-2.3C98.4,51.9,98.4,48.1,98.4,44.4z M105.5,62.9c0-1.7-1.3-3-3-3c-1.7,0-3.1,1.3-3.1,3
				c0,1.7,1.4,3.2,3.1,3.2C104.1,65.9,105.5,64.5,105.5,62.9z"/>
		</g>
	</g>
</g>
<g>
	<circle class="st11" cx="668.2" cy="59.5" r="37.3"/>
	<g id="_x31_LsZKm.tif_1_">
		<g>
			<path class="st11" d="M666.1,14.4c1.4,0,2.8,0,4.2,0c0.2,0,0.5,0.1,0.7,0.1c4.3,0.2,8.5,1.1,12.5,2.6
				c10.5,3.9,18.4,10.8,23.7,20.6c2.6,4.7,4.2,9.8,4.9,15.2c0.1,1.2,0.3,2.5,0.4,3.7c0,1.4,0,2.8,0,4.2c0,0.3-0.1,0.5-0.1,0.8
				c-0.3,2.4-0.5,4.8-1,7.1c-2.4,10.4-7.9,18.9-16.4,25.3c-10.5,7.9-22.4,10.6-35.3,8.1c-10.9-2.1-19.8-7.8-26.6-16.6
				c-6.6-8.7-9.5-18.5-8.9-29.4c0.2-4.3,1.1-8.6,2.6-12.6c3.9-10.5,10.9-18.4,20.7-23.7c4.7-2.6,9.8-4.2,15.2-4.9
				C663.7,14.7,664.9,14.6,666.1,14.4z M705.6,58.6c-0.1-20.7-16.8-37.4-37.5-37.4c-20.8,0-37.4,16.8-37.4,37.4
				c0,20.8,16.8,37.5,37.5,37.4C689,96.1,705.6,79.3,705.6,58.6z"/>
			<path class="st11" d="M663.6,28.4h7.8c0.3,0,0.5,0.2,0.5,0.5v5.4c0,0.3,0.2,0.5,0.5,0.5c5.1,0.8,9.3,3.1,12.2,7.4
				c1.4,2.1,2.1,4.5,2.2,7c0,0.3-0.2,0.6-0.5,0.6h-8.4c-0.2,0-0.5-0.2-0.5-0.4c-0.6-2.5-1.9-4.5-4.5-5.3c-0.3-0.1-0.7,0.2-0.7,0.5
				v8.7c0,0.2,0.2,0.5,0.4,0.5c2.1,0.5,4.2,0.9,6.2,1.5c3.1,1,5.7,2.6,7.4,5.5c1.3,2.2,1.8,4.6,1.5,7.1c-0.7,7-5.2,11-11.4,13.4
				c-0.7,0.3-1.4,0.4-2.1,0.6c-0.5,0.1-1.1,0.2-1.7,0.3c-0.3,0-0.5,0.3-0.5,0.5v5.5c0,0.3-0.2,0.5-0.5,0.5h-8
				c-0.3,0-0.5-0.2-0.5-0.5v-5.6c0-0.2-0.2-0.5-0.4-0.5c-8.3-1.8-14.3-8.3-14.8-16c0-0.3,0.2-0.6,0.5-0.6l0,0c2.8,0,5.6,0,8.4,0
				c0.4,0,0.6,0.1,0.7,0.6c0.4,1.9,1,3.6,2.4,5c0.7,0.7,1.5,1.1,2.4,1.5c0.3,0.1,0.7-0.1,0.7-0.5v-9.6c0-0.2-0.2-0.5-0.4-0.5
				c-1.4-0.3-2.8-0.6-4.1-1c-2.1-0.6-4.1-1.5-5.9-2.9c-2.9-2.4-4.1-5.6-4.1-9.3c0.1-5.2,2.8-8.8,7.1-11.4c2.2-1.3,4.5-2.2,7.1-2.5
				c0.1,0,0.4-0.4,0.4-0.6c0-1.7,0-3.4,0-5.1v-0.3C663,28.6,663.3,28.4,663.6,28.4z M672.8,72.8c0.7-0.1,1.3-0.3,1.9-0.5
				c7.2-2.7,7-6.7-0.5-8.4c-0.5-0.1-0.9-0.2-1.4-0.2c-0.3,0-0.6,0.2-0.6,0.5v8.1C672.2,72.6,672.5,72.9,672.8,72.8z M663,44.8
				c0-0.3-0.3-0.6-0.6-0.5c-1.3,0.3-2.5,0.9-3.4,2.1c-1,1.3-1.1,3-0.1,4.3c0.9,1.2,2.2,1.6,3.6,1.7c0.3,0,0.6-0.2,0.6-0.5V44.8z"/>
		</g>
	</g>
</g>
<rect x="100.8" y="87.4" class="st4" width="161.1" height="23.8"/>
<text transform="matrix(1 0 0 1 132.573 100.9937)" class="st5 st6 st7">DURACIÓN</text>
<g>
	<circle class="st5" cx="94.3" cy="55" r="39.8"/>
	<g id="F1sIgx.tif">
		<g>
			<path class="st12" d="M146.4,49.3c-3.5,4.2-7,8.4-10.5,12.6c-1.2,1.4-2.4,1.3-3.6-0.1c-3.2-3.8-6.4-7.5-9.5-11.4
				c-0.5-0.6-0.7-1.6-0.6-2.4c0.2-1.1,1.3-1.2,2.3-1.2c1.7,0,3.5,0,5.4,0c-0.6-3.3-1.7-6.1-3.2-8.8c-6-10.9-15.2-17.5-27.4-19.2
				c-19-2.7-37.1,9.9-40.9,29.1c-4,20.3,9.7,39.6,30.2,43c14.5,2.4,29.3-4.5,37.2-17.3c0.7-1.2,1.5-2.1,2.9-2.3
				c1.7-0.3,3.1,0.2,4.1,1.6c1,1.5,1.1,3.1,0.1,4.5c-2.5,3.4-4.9,7-7.9,9.9c-9.4,8.9-20.8,12.8-33.8,12.1
				C70.8,98,53.6,82.4,50.3,62.2c-3.9-23.8,12-46.5,35.6-50.8c1.9-0.3,3.8-0.6,5.7-0.9c1.8,0,3.6,0,5.4,0c0.4,0.1,0.7,0.2,1.1,0.3
				c3,0.6,6.2,0.8,9.1,1.7c16.3,5.3,26.5,16.3,30.7,32.9c0.3,1.3,0.8,1.6,2,1.6c1.1-0.1,2.3,0.1,3.4,0c1.4-0.1,2.4,0.3,3.1,1.5
				C146.4,48.7,146.4,49,146.4,49.3z"/>
			<path class="st12" d="M90.2,36.5c0-3.8,0-7.6,0-11.4c0-2.9,1.9-4.7,4.5-4.4c2.2,0.2,3.6,2,3.6,4.7c0,7.3,0,14.6,0,21.8
				c0,1.3,0.2,2.2,1.2,3.2c0.7,0.6,1.3,1.6,1.4,2.6c0.2,1.3,1,1.8,2,2.4c4,2.3,8,4.6,12.1,6.9c2.4,1.4,3.2,3.7,1.9,5.8
				c-1.2,2.1-3.6,2.5-6,1.1c-4.2-2.4-8.3-4.8-12.5-7.1c-0.6-0.3-1.5-0.5-2.2-0.3c-3.1,0.8-6.4-0.4-8-3.1c-1.6-2.8-1.2-6.1,1-8.6
				c0.5-0.6,0.9-1.5,0.9-2.3C90.3,43.9,90.2,40.2,90.2,36.5z M97.3,54.9c0-1.7-1.3-3-3-3c-1.7,0-3.1,1.3-3.1,3
				c0,1.7,1.4,3.2,3.1,3.2C96,58,97.3,56.6,97.3,54.9z"/>
		</g>
	</g>
</g>
<g>
	<circle class="st5" cx="663.2" cy="54.9" r="37.3"/>
	<g id="_x31_LsZKm.tif">
		<g>
			<path class="st13" d="M661.1,9.9c1.4,0,2.8,0,4.2,0c0.2,0,0.5,0.1,0.7,0.1c4.3,0.2,8.5,1.1,12.5,2.6
				c10.5,3.9,18.4,10.8,23.7,20.6c2.6,4.7,4.2,9.8,4.9,15.2c0.1,1.2,0.3,2.5,0.4,3.7c0,1.4,0,2.8,0,4.2c0,0.3-0.1,0.5-0.1,0.8
				c-0.3,2.4-0.5,4.8-1,7.1c-2.4,10.4-7.9,18.9-16.4,25.3c-10.5,7.9-22.4,10.6-35.3,8.1c-10.9-2.1-19.8-7.8-26.6-16.6
				c-6.6-8.7-9.5-18.5-8.9-29.4c0.2-4.3,1.1-8.6,2.6-12.6c3.9-10.5,10.9-18.4,20.7-23.7c4.7-2.6,9.8-4.2,15.2-4.9
				C658.7,10.2,659.9,10,661.1,9.9z M700.6,54.1c-0.1-20.7-16.8-37.4-37.5-37.4c-20.8,0-37.4,16.8-37.4,37.4
				c0,20.8,16.8,37.5,37.5,37.4C684,91.6,700.6,74.8,700.6,54.1z"/>
			<path class="st13" d="M658.5,23.9h7.8c0.3,0,0.5,0.2,0.5,0.5v5.4c0,0.3,0.2,0.5,0.5,0.5c5.1,0.8,9.3,3.1,12.2,7.4
				c1.4,2.1,2.1,4.5,2.2,7c0,0.3-0.2,0.6-0.5,0.6h-8.4c-0.2,0-0.5-0.2-0.5-0.4c-0.6-2.5-1.9-4.5-4.5-5.3c-0.3-0.1-0.7,0.2-0.7,0.5
				v8.7c0,0.2,0.2,0.5,0.4,0.5c2.1,0.5,4.2,0.9,6.2,1.5c3.1,1,5.7,2.6,7.4,5.5c1.3,2.2,1.8,4.6,1.5,7.1c-0.7,7-5.2,11-11.4,13.4
				c-0.7,0.3-1.4,0.4-2.1,0.6c-0.5,0.1-1.1,0.2-1.7,0.3c-0.3,0-0.5,0.3-0.5,0.5v5.5c0,0.3-0.2,0.5-0.5,0.5h-8
				c-0.3,0-0.5-0.2-0.5-0.5v-5.6c0-0.2-0.2-0.5-0.4-0.5c-8.3-1.8-14.3-8.3-14.8-16c0-0.3,0.2-0.6,0.5-0.6l0,0c2.8,0,5.6,0,8.4,0
				c0.4,0,0.6,0.1,0.7,0.6c0.4,1.9,1,3.6,2.4,5c0.7,0.7,1.5,1.1,2.4,1.5c0.3,0.1,0.7-0.1,0.7-0.5l0-9.6c0-0.2-0.2-0.5-0.4-0.5
				c-1.4-0.3-2.8-0.6-4.1-1c-2.1-0.6-4.1-1.5-5.9-2.9c-2.9-2.4-4.1-5.6-4.1-9.3c0.1-5.2,2.8-8.8,7.1-11.4c2.2-1.3,4.5-2.2,7.1-2.5
				c0.1,0,0.4-0.4,0.4-0.6c0-1.7,0-3.4,0-5.1v-0.3C658,24.1,658.3,23.9,658.5,23.9z M667.8,68.3c0.7-0.1,1.3-0.3,1.9-0.5
				c7.2-2.7,7-6.7-0.5-8.4c-0.5-0.1-0.9-0.2-1.4-0.2c-0.3,0-0.6,0.2-0.6,0.5v8.1C667.2,68.1,667.5,68.4,667.8,68.3z M658,40.3
				c0-0.3-0.3-0.6-0.6-0.5c-1.3,0.3-2.5,0.9-3.4,2.1c-1,1.3-1.1,3-0.1,4.3c0.9,1.2,2.2,1.6,3.6,1.7c0.3,0,0.6-0.2,0.6-0.5V40.3z"/>
		</g>
	</g>
</g>
<rect x="383.8" y="87.4" class="st4" width="161.1" height="23.8"/>
<text transform="matrix(1 0 0 1 441.3191 100.9937)" class="st5 st6 st7">SEDE</text>
<rect x="97.8" y="158.4" class="st4" width="161.1" height="23.8"/>
<text transform="matrix(1 0 0 1 113.0034 171.979)" class="st5 st6 st7">Fecha de inicio:</text>
<rect x="85.9" y="228" class="st4" width="161.1" height="23.8"/>
<text transform="matrix(1 0 0 1 115.63 241.5643)" class="st5 st6 st7">Fecha de fin</text>
<rect x="73.3" y="188.2" class="st4" width="210.1" height="33.7"/>
<text transform="matrix(1 0 0 1 115.7163 201.0841)" class="st5 st8 st9">14/agosto/2020 </text>
<rect x="72.3" y="264" class="st4" width="210.1" height="33.7"/>
<text transform="matrix(1 0 0 1 114.7163 276.8875)" class="st5 st8 st9">14/agosto/2020 </text>
<rect x="383.6" y="212.2" class="st4" width="161.1" height="23.8"/>
<text transform="matrix(1 0 0 1 389.6022 225.8256)" class="st5 st6 st7">Horario de clases: </text>
<rect x="354.9" y="237.5" class="st4" width="217.5" height="53"/>
<text transform="matrix(1 0 0 1 364.2812 248.1117)"><tspan x="0" y="0" class="st5 st8 st10">Viernes    16:00 hrs a  21:00 hrs </tspan><tspan x="-2.2" y="33.6" class="st5 st8 st10">Sábados  09:00 hrs a  14:00 hrs.</tspan></text>
<g>
	<g>
		<path class="st14" d="M382.6,8.7C366.3,8.7,353,22,353,38.3c0,4.9,1.2,9.8,3.6,14.1L381,96.8c0.3,0.6,0.9,1,1.6,1
			c0.7,0,1.3-0.4,1.6-1l24.5-44.3c2.3-4.3,3.6-9.2,3.6-14.1C412.3,22,399,8.7,382.6,8.7z M382.6,53.2c-8.2,0-14.8-6.7-14.8-14.8
			s6.7-14.8,14.8-14.8s14.8,6.7,14.8,14.8S390.8,53.2,382.6,53.2z"/>
	</g>
</g>
</svg>
